<svg width="32" height="32" viewBox="0 0 32 32" fill="none" xmlns="http://www.w3.org/2000/svg">
<g clip-path="url(#clip0_4937_5659)">
<path d="M3.62131 20.2874C1.6245 20.2874 2.43209e-09 21.9222 2.43209e-09 23.9316C-2.31775e-05 24.5675 0.165648 25.1925 0.480687 25.7449C0.495438 25.7707 0.509063 25.797 0.521563 25.8238L3.11719 30.4684C3.27319 30.7476 3.66956 30.7563 3.8375 30.4842L6.62475 25.9681C6.69081 25.8615 6.71712 25.8196 6.73088 25.7976C6.73869 25.7851 6.74025 25.7825 6.74713 25.7712C6.75081 25.7643 6.75463 25.7575 6.7585 25.7508C7.07576 25.197 7.24264 24.5699 7.24256 23.9317C7.24256 21.9222 5.61806 20.2874 3.62131 20.2874ZM3.62131 25.3977C2.81625 25.3977 2.16363 24.7409 2.16363 23.9307C2.16363 23.1205 2.81625 22.4638 3.62131 22.4638C4.42637 22.4638 5.079 23.1206 5.079 23.9308C5.079 24.741 4.42637 25.3977 3.62131 25.3977Z" fill="#F47721"/>
<path d="M28.1762 13.971C28.1685 13.971 28.1608 13.9709 28.153 13.9707C27.7775 13.9625 27.4342 13.7554 27.2501 13.4259L23.3878 6.51479C23.3753 6.49244 23.3636 6.46966 23.3527 6.44648C22.8803 5.58806 22.6325 4.62413 22.6325 3.64429C22.6325 3.17042 22.6907 2.71011 22.798 2.26904C21.9915 1.95536 21.0794 1.66117 20.1485 1.42529C20.2177 3.13567 19.7608 4.79861 18.8177 6.25329C17.8708 7.71373 16.4813 8.89942 14.7993 9.68223C14.4738 9.83373 14.1448 9.96423 13.8265 10.0904C13.0695 10.3906 12.3544 10.6741 11.9098 11.1594C11.6616 11.4302 11.4615 11.8059 11.2496 12.2035C11.0307 12.6144 10.7826 13.08 10.4385 13.503C9.70728 14.4019 8.58221 15.0435 7.27059 15.3098C5.96059 15.5756 4.84028 15.5915 3.84553 15.3585C2.61021 15.0689 2.21503 15.25 1.8664 15.4094C1.70996 15.481 1.53265 15.5622 1.31546 15.612C1.28996 15.6178 1.15834 15.642 0.989215 15.672C0.97663 15.9291 0.970295 16.1864 0.970215 16.4438C0.970215 17.0627 1.04696 17.9334 1.14509 18.7143C1.91729 18.3414 2.76388 18.1481 3.6214 18.149C6.7899 18.149 9.36765 20.7431 9.36765 23.9317C9.36765 24.929 9.11022 25.9122 8.62259 26.7784C8.61228 26.7985 8.60121 26.8182 8.58953 26.8378L8.57397 26.8639C8.54815 26.9069 8.54815 26.9069 8.5284 26.9384C8.51534 26.9592 8.49046 26.999 8.42884 27.0983L7.27546 28.967C7.87328 29.3987 8.37471 29.7232 9.03922 30.0757C9.59728 29.6632 9.20878 29.9494 9.59728 29.6632C10.7212 28.8354 12.0245 27.2383 12.2867 25.9379C12.5655 24.5552 12.4928 23.1116 12.416 21.5833L12.3992 21.2456C12.34 20.0377 12.3173 18.858 12.6848 17.7059C13.1576 16.2234 14.2563 15.109 15.5522 14.7979C16.8893 14.4767 18.0935 15.0004 19.156 15.4623C19.3685 15.5547 19.5693 15.642 19.7666 15.7209C22.1255 16.6634 24.8312 16.5435 27.1823 16.357C27.3113 16.3468 27.4406 16.3363 27.57 16.3258C28.9722 16.2115 30.4207 16.0947 31.8854 16.3254C31.8653 14.543 31.3955 12.4505 30.7783 10.7122L29.0787 13.466C28.9838 13.6201 28.8511 13.7475 28.6931 13.8359C28.5352 13.9242 28.3572 13.9708 28.1762 13.971Z" fill="#F47721"/>
<path d="M4.32768 13.2756C5.01993 13.4379 5.84512 13.4176 6.8505 13.2134C7.68262 13.0445 8.37293 12.6662 8.79431 12.1482C9.00762 11.8861 9.18706 11.5493 9.377 11.1929C9.62993 10.7182 9.91656 10.1802 10.3477 9.70963C11.1226 8.86406 12.1453 8.4585 13.0477 8.10069C13.3511 7.98037 13.6378 7.86675 13.9074 7.74119C16.651 6.46431 18.218 3.98806 18.012 1.27762C18.0049 1.18596 18.0011 1.09407 18.0007 1.00213C17.4529 0.928625 16.9224 0.887312 16.4285 0.887312C8.94812 0.887312 2.70906 6.23444 1.27881 13.3378C1.92187 13.0847 2.78375 12.9137 4.32768 13.2756ZM31.5045 5.484C31.5082 5.47706 31.5121 5.47013 31.5161 5.46331C31.8333 4.90956 32.0002 4.28245 32.0001 3.64425C32.0001 1.63481 30.3756 0 28.3789 0C26.3821 0 24.7576 1.63481 24.7576 3.64425C24.7575 4.28013 24.9232 4.90505 25.2382 5.45738C25.2531 5.48319 25.2667 5.50956 25.2791 5.53631L27.8747 10.1809C28.0307 10.4601 28.4271 10.4688 28.5951 10.1967L31.3823 5.68069C31.4486 5.57381 31.4747 5.53194 31.4885 5.51C31.4962 5.49775 31.4978 5.49519 31.5045 5.484ZM28.3789 5.11037C27.5738 5.11037 26.9212 4.45356 26.9212 3.64337C26.9212 2.83319 27.5738 2.17637 28.3789 2.17637C29.1839 2.17637 29.8366 2.83319 29.8366 3.64337C29.8366 4.45356 29.1839 5.11037 28.3789 5.11037ZM31.6687 18.4554C30.4196 18.2389 29.1187 18.3447 27.7416 18.4571C27.6107 18.4678 27.4799 18.4784 27.3493 18.4888C24.7602 18.694 21.7649 18.8199 18.9827 17.7083C18.7557 17.6177 18.5308 17.5199 18.3132 17.4252C17.4811 17.0635 16.6952 16.7218 16.0454 16.8778C15.4764 17.0144 14.9516 17.5959 14.7081 18.3592C14.4494 19.1705 14.4706 20.0986 14.5216 21.1401L14.5382 21.475C14.6184 23.0684 14.7013 24.7161 14.3692 26.363C14.0323 28.0338 12.7623 29.9469 11.2901 31.0841C12.9151 31.6689 14.6553 32 16.4285 32C24.2847 32 30.7717 26.102 31.7568 18.4661C31.7273 18.4637 31.6979 18.4602 31.6687 18.4554Z" fill="#F47721"/>
</g>
<defs>
<clipPath id="clip0_4937_5659">
<rect width="32" height="32" fill="white"/>
</clipPath>
</defs>
</svg>
