<svg width="38" height="38" viewBox="0 0 38 38" fill="none" xmlns="http://www.w3.org/2000/svg">
<g clip-path="url(#clip0_4937_5649)">
<path d="M12.7053 16.8319L13.3586 15.7003C13.6661 15.1678 13.4837 14.4869 12.9512 14.1795C12.4187 13.872 11.7378 14.0545 11.4304 14.587L10.778 15.7171C10.58 15.6804 10.3764 15.6603 10.168 15.6603C9.95956 15.6603 9.75591 15.6804 9.55797 15.7171L8.90551 14.587C8.59802 14.0545 7.91721 13.8721 7.38477 14.1795C6.85225 14.4869 6.66982 15.1678 6.9773 15.7003L7.63065 16.8319C7.36397 17.1431 7.15683 17.5007 7.01961 17.8868H5.71484C5.10002 17.8868 4.60156 18.3853 4.60156 19.0001C4.60156 19.6149 5.10002 20.1134 5.71484 20.1134H7.01961C7.15683 20.4995 7.36397 20.8571 7.63065 21.1683L6.9773 22.2999C6.66982 22.8324 6.85225 23.5133 7.38477 23.8207C7.91543 24.127 8.59705 23.9475 8.90551 23.4132L9.55797 22.2831C9.75591 22.3198 9.95956 22.3399 10.168 22.3399C10.3764 22.3399 10.58 22.3198 10.778 22.2831L11.4304 23.4132C11.7388 23.9474 12.4202 24.1272 12.9512 23.8207C13.4837 23.5133 13.6661 22.8324 13.3586 22.2999L12.7053 21.1683C12.972 20.8571 13.1791 20.4995 13.3163 20.1134H14.6211C15.2359 20.1134 15.7344 19.6149 15.7344 19.0001C15.7344 18.3853 15.2359 17.8868 14.6211 17.8868H13.3163C13.179 17.5007 12.9719 17.1431 12.7053 16.8319ZM9.05469 19.0001C9.05469 18.3862 9.55411 17.8868 10.168 17.8868C10.7818 17.8868 11.2812 18.3862 11.2812 19.0001C11.2812 19.614 10.7818 20.1134 10.168 20.1134C9.55411 20.1134 9.05469 19.614 9.05469 19.0001ZM25.4432 21.1683L24.7898 22.2999C24.4823 22.8324 24.6647 23.5133 25.1973 23.8207C25.7279 24.127 26.4096 23.9475 26.718 23.4132L27.3705 22.2831C27.5684 22.3198 27.7721 22.3399 27.9805 22.3399C28.1889 22.3399 28.3925 22.3198 28.5905 22.2831L29.2429 23.4132C29.5513 23.9474 30.2327 24.1272 30.7637 23.8207C31.2962 23.5133 31.4786 22.8324 31.1711 22.2999L30.5178 21.1683C30.7845 20.8571 30.9916 20.4995 31.1288 20.1134H32.4336C33.0484 20.1134 33.5469 19.6149 33.5469 19.0001C33.5469 18.3853 33.0484 17.8868 32.4336 17.8868H31.1288C30.9916 17.5007 30.7844 17.1431 30.5178 16.8319L31.1711 15.7003C31.4786 15.1678 31.2962 14.4869 30.7637 14.1795C30.2312 13.872 29.5503 14.0545 29.2429 14.587L28.5905 15.7171C28.3925 15.6804 28.1889 15.6603 27.9805 15.6603C27.7721 15.6603 27.5684 15.6804 27.3705 15.7171L26.718 14.587C26.4105 14.0545 25.7296 13.8721 25.1973 14.1795C24.6647 14.4869 24.4823 15.1678 24.7898 15.7003L25.4432 16.8319C25.1765 17.1431 24.9693 17.5007 24.8321 17.8868H23.5273C22.9125 17.8868 22.4141 18.3853 22.4141 19.0001C22.4141 19.6149 22.9125 20.1134 23.5273 20.1134H24.8321C24.9694 20.4995 25.1765 20.8571 25.4432 21.1683ZM29.0938 19.0001C29.0938 19.614 28.5943 20.1134 27.9805 20.1134C27.3666 20.1134 26.8672 19.614 26.8672 19.0001C26.8672 18.3862 27.3666 17.8868 27.9805 17.8868C28.5943 17.8868 29.0938 18.3862 29.0938 19.0001Z" fill="#F47721"/>
<path d="M38 18.9999C38 13.4751 33.5052 8.98034 27.9805 8.98034C22.4557 8.98034 17.9609 13.4751 17.9609 18.9999C17.9609 23.2969 14.465 26.7928 10.168 26.7928C5.78906 26.7928 2.22656 23.2969 2.22656 18.9999C2.22656 14.9172 5.44261 11.558 9.51922 11.233C9.24098 11.5547 9.15993 12.0216 9.35127 12.432C9.61237 12.9919 10.276 13.2291 10.8307 12.9704L13.6845 11.6397C14.3673 11.3213 14.5471 10.4206 14.0242 9.86525L11.6156 7.05273C11.2156 6.58574 10.5129 6.53134 10.046 6.93131C9.57897 7.33127 9.52464 8.03405 9.92453 8.50103L10.3365 8.98212C10.2803 8.98123 10.2242 8.98034 10.168 8.98034C7.48734 8.98034 4.94802 10.0194 3.01788 11.9061C1.07172 13.8084 0 16.3277 0 18.9999C0 21.672 1.07172 24.1913 3.01788 26.0936C4.94802 27.9803 7.48734 29.0194 10.168 29.0194C15.6927 29.0194 20.1875 24.5246 20.1875 18.9999C20.1875 14.7028 23.6834 11.2069 27.9805 11.2069C32.2775 11.2069 35.7734 14.7028 35.7734 18.9999C35.7734 23.0781 32.6244 26.4343 28.6302 26.7655C28.9076 26.4439 28.9883 25.9777 28.7972 25.5678C28.5373 25.0105 27.8748 24.7694 27.3177 25.0293L24.4639 26.3601C23.782 26.678 23.6019 27.5794 24.124 28.1343L26.5328 30.947C26.9328 31.414 27.6356 31.4683 28.1025 31.0684C28.5695 30.6685 28.6238 29.9657 28.2239 29.4987L27.8119 29.0176C27.868 29.0185 27.9242 29.0194 27.9805 29.0194C33.5052 29.0194 38 24.5246 38 18.9999Z" fill="#F47721"/>
</g>
<defs>
<clipPath id="clip0_4937_5649">
<rect width="38" height="38" fill="white"/>
</clipPath>
</defs>
</svg>
