<svg width="88" height="60" viewBox="0 0 88 60" fill="none" xmlns="http://www.w3.org/2000/svg">
<path d="M79.575 11.9837C80.397 13.2122 81.186 14.7277 80.798 16.3518C79.459 15.5854 78.382 14.3341 77.528 13.0988C76.668 11.8552 75.775 10.5328 75.469 9C77.158 9.432 78.67 10.6312 79.575 11.9837Z" fill="#394149"/>
<path d="M6.98059 16.3492C6.59359 14.7248 7.38419 13.2099 8.20769 11.9821C9.11419 10.6304 10.6267 9.43226 12.3159 9.00146C12.009 10.534 11.1146 11.8559 10.2537 13.0987C9.39859 14.3334 8.32009 15.5839 6.98059 16.3492Z" fill="#394149"/>
<path d="M5.80198 19.4653C6.10408 18.1789 6.09738 16.7706 5.80978 15.564C5.55688 14.5036 5.18888 13.0046 3.97768 12.4988C3.09728 13.911 2.74338 15.8341 3.25648 17.2751C3.62748 18.3174 4.29468 19.6955 5.67838 19.9088C6.94808 20.2015 8.23198 19.5242 9.24598 18.965C10.3735 18.3433 11.4779 17.3542 12.1489 16.1783C10.918 15.557 9.51618 16.0612 8.46158 16.5444C7.32478 17.0653 6.28048 18.1829 5.80198 19.4653Z" fill="#394149"/>
<path d="M30.4431 20.701V14.2424H28.2381V16.5955H24.9306V14.2424H22.7256V20.701H24.9306V18.3562H28.2381V20.701H30.4431Z" fill="#394149"/>
<path d="M37.7547 14.2424H40.19L36.7345 18.5701V20.701H34.5213V18.5783L31.1069 14.2424H33.6162L35.6567 16.8258L37.7547 14.2424Z" fill="#394149"/>
<path fill-rule="evenodd" clip-rule="evenodd" d="M47.8694 14.7936C48.3055 15.1392 48.5523 15.7234 48.5523 16.5708C48.5523 17.2619 48.3795 17.7802 48.0504 18.1423C47.6061 18.6524 46.8739 18.8827 45.9195 18.891C45.6233 18.8992 43.0892 18.891 43.0892 18.891V20.701H40.876V14.2424H45.8866C46.7751 14.2424 47.4498 14.4234 47.8694 14.7936ZM46.2321 17.0727C46.298 16.9575 46.3309 16.8094 46.3309 16.6037C46.3309 16.3898 46.2897 16.2088 46.2157 16.1101C46.0758 15.9044 45.8125 15.8056 45.3847 15.8056H43.0728V17.3853H45.3682C45.829 17.3853 46.1005 17.2784 46.2321 17.0727Z" fill="#394149"/>
<path d="M56.237 19.0966V20.701H49.4331V14.2424H56.18V15.855H51.6051V16.686H56.048V18.2574H51.6051V19.0966H56.237Z" fill="#394149"/>
<path fill-rule="evenodd" clip-rule="evenodd" d="M64.498 14.9006C64.795 15.205 64.934 15.6246 64.934 16.2088C64.934 16.7107 64.811 17.1385 64.605 17.4265C64.375 17.7391 64.021 18.0024 63.585 18.0682L65.535 20.701H63.083L61.479 18.422H59.48V20.701H57.283V14.2424H62.425C63.445 14.2424 64.112 14.4892 64.498 14.9006ZM62.721 16.7518C62.779 16.6531 62.795 16.5214 62.795 16.4145C62.795 16.2911 62.779 16.1594 62.721 16.0771C62.606 15.8632 62.376 15.8056 62.03 15.8056H59.488V16.9822H62.071C62.425 16.9822 62.639 16.9164 62.721 16.7518Z" fill="#394149"/>
<path d="M55.059 28.8016C55.059 27.3253 54.1211 26.5494 51.9335 26.3123C51.5779 26.2692 50.5326 26.1614 49.8752 26.1075C48.1833 25.9243 47.6769 25.8274 47.6769 25.3963C47.6769 25.0084 48.0756 24.8252 49.595 24.8252C50.6727 24.8252 51.2762 25.0299 51.5132 25.3424C51.6318 25.4933 51.6749 25.6118 51.6857 25.7304H54.7893C54.7569 25.4717 54.6492 25.1053 54.4767 24.7821C53.9164 23.7044 52.5693 22.8423 49.6705 22.8423C46.4052 22.8423 44.6164 23.9954 44.6164 25.5041C44.6164 26.9589 45.6293 27.8102 48.3665 28.0581C48.676 28.0846 49.3407 28.1474 49.8849 28.1988L49.9185 28.202L49.9246 28.2026L49.927 28.2028L50.2201 28.2305C51.6533 28.3814 52.0413 28.4783 52.0413 28.931C52.0413 29.3512 51.6641 29.5775 50.08 29.5775C48.8515 29.5775 48.1295 29.3943 47.8708 29.0818C47.7631 28.9525 47.6876 28.7585 47.6661 28.6292H44.5625C44.5948 28.8447 44.6487 29.1896 44.7672 29.4698C45.2953 30.6552 46.6747 31.5604 49.8752 31.5604C53.3129 31.5604 55.059 30.5905 55.059 28.8016Z" fill="#394149"/>
<path fill-rule="evenodd" clip-rule="evenodd" d="M33.057 30.5691C33.3803 30.1919 33.5419 29.6207 33.5419 29.0388C33.5419 28.5431 33.4126 28.0689 33.1432 27.7564C32.8199 27.3361 32.2487 27.0344 31.6453 26.959C32.0548 26.9051 32.4427 26.6896 32.669 26.4094C32.9492 26.0753 33.0785 25.6227 33.0785 25.0731C33.0785 24.5235 32.9169 24.0386 32.5505 23.6722C32.141 23.2519 31.3974 22.9717 30.2336 22.9717H22.9272V31.4312H30.4383C31.6345 31.4312 32.5613 31.1725 33.057 30.5691ZM30.0827 25.5796C30.0827 25.7844 30.018 25.9568 29.9103 26.0753C29.7594 26.2154 29.4792 26.2693 29.1128 26.2693H25.7506V24.8899H29.0374C29.4469 24.8899 29.7271 24.9438 29.8779 25.0839C30.018 25.2024 30.0827 25.3748 30.0827 25.5796ZM30.406 29.2867C30.2336 29.4483 29.9318 29.513 29.4253 29.513H25.7506V28.1013H29.4577C29.9318 28.1013 30.212 28.1659 30.3736 28.306C30.503 28.4353 30.5568 28.597 30.5568 28.8125C30.5568 29.0173 30.5137 29.1789 30.406 29.2867Z" fill="#394149"/>
<path d="M43.6889 29.3298V31.4312H34.7769V22.9717H43.6135V25.0839H37.6218V26.1723H43.4411V28.2306H37.6218V29.3298H43.6889Z" fill="#394149"/>
<path d="M65.545 25.0947V22.9717H55.448V25.0947H59.015V31.4312H61.967V25.0947H65.545Z" fill="#394149"/>
<path d="M65.2891 38.9169H64.8141L64.7801 38.4594C64.6351 38.6909 64.3281 38.9688 63.6801 38.9688C62.5851 38.9688 62.076 38.3088 62.076 36.6237C62.076 35.3209 62.4001 34.2729 63.7371 34.2729C64.8961 34.2729 65.2491 35.0315 65.2661 35.8479H64.687C64.67 35.3152 64.4321 34.8231 63.7491 34.8231C62.9271 34.8231 62.6891 35.3153 62.6891 36.6413C62.6891 38.0252 62.9851 38.4594 63.7611 38.4594C64.3051 38.4594 64.6231 38.1584 64.7281 37.7994V36.9366H63.5581V36.4095H65.2831V37.7415C65.2831 38.1394 65.2871 38.564 65.2881 38.7775L65.2891 38.8792V38.9169Z" fill="#394149"/>
<path fill-rule="evenodd" clip-rule="evenodd" d="M23.0366 37.7644H24.6579L24.9937 38.9167H25.6075L24.2641 34.3308H23.5172L22.0811 38.9167H22.6891L23.0366 37.7644ZM24.5131 37.2491H23.1929C23.1929 37.2491 23.7661 35.3962 23.7777 35.3557C23.7835 35.3267 23.8762 34.9156 23.8762 34.9156L23.9403 35.2197L23.9688 35.3557C23.9746 35.3846 24.5131 37.2491 24.5131 37.2491Z" fill="#394149"/>
<path d="M30.0024 34.3308H30.5583L29.4755 38.9167H28.7864C28.7864 38.9167 28.0163 35.3499 28.0163 35.1993C28.0105 35.3499 27.223 38.9167 27.223 38.9167H26.534L25.4512 34.3308H26.0765C26.0765 34.3308 26.9161 37.9613 26.9161 38.1061C26.9161 37.9613 27.6863 34.3308 27.6863 34.3308H28.3753C28.3753 34.3308 29.1454 37.9671 29.1454 38.1061C29.1454 37.9671 30.0024 34.3308 30.0024 34.3308Z" fill="#394149"/>
<path fill-rule="evenodd" clip-rule="evenodd" d="M32.9361 37.7644H31.3148L30.9674 38.9167H30.3594L31.7954 34.3308H32.5424L33.8858 38.9167H33.272L32.9361 37.7644ZM31.4712 37.2491H32.7914C32.7914 37.2491 32.2529 35.3846 32.2471 35.3557L32.2033 35.147L32.1544 34.9156C32.1544 34.9156 32.0618 35.3267 32.056 35.3557C32.0444 35.3962 31.4712 37.2491 31.4712 37.2491Z" fill="#394149"/>
<path fill-rule="evenodd" clip-rule="evenodd" d="M36.1172 34.3308C36.8236 34.3308 37.2058 34.6608 37.2058 35.622C37.2058 36.4385 36.8989 36.7106 36.5804 36.8032L37.4606 38.9167H36.8236L36.0072 36.9191H34.8955V38.9167H34.3164V34.3308H36.1172ZM36.0304 36.3979C36.4878 36.3979 36.5978 36.1605 36.5978 35.6394C36.5978 35.0488 36.4241 34.8693 36.0014 34.8693H34.9012V36.3979H36.0304Z" fill="#394149"/>
<path fill-rule="evenodd" clip-rule="evenodd" d="M41.0609 36.5485C41.0609 37.6313 40.9799 38.0713 40.7483 38.4014C40.5167 38.7199 40.1519 38.9167 39.5612 38.9167H37.9863V34.3308H39.5207C40.0998 34.3308 40.5514 34.5045 40.7599 34.8172C40.9915 35.153 41.0609 35.5699 41.0609 36.5485ZM39.4397 38.3724C39.7929 38.3724 40.0882 38.2798 40.2387 38.0771C40.4009 37.8571 40.4472 37.4112 40.4472 36.5485C40.4472 35.8247 40.4066 35.4367 40.2387 35.1877C40.0824 34.9735 39.7813 34.8808 39.4281 34.8808H38.5711V38.3724H39.4397Z" fill="#394149"/>
<path d="M47.1699 34.3308H47.7258L46.643 38.9167H45.9539C45.9539 38.9167 45.1838 35.3499 45.1838 35.1993C45.178 35.3499 44.3905 38.9167 44.3905 38.9167H43.7015L42.6187 34.3308H43.244C43.244 34.3308 44.0836 37.9613 44.0836 38.1061C44.0836 37.9613 44.8537 34.3308 44.8537 34.3308H45.5428C45.5428 34.3308 46.3129 37.9671 46.3129 38.1061C46.3129 37.9671 47.1699 34.3308 47.1699 34.3308Z" fill="#394149"/>
<path d="M48.7497 34.3308V38.9167H48.1475V34.3308H48.7497Z" fill="#394149"/>
<path d="M52.5193 34.3308V38.9167H51.8534L50.1452 35.3614V38.9167H49.5835V34.3308H50.2842L51.9518 37.8339V34.3308H52.5193Z" fill="#394149"/>
<path d="M56.274 34.3308V38.9167H55.608L53.9001 35.3614V38.9167H53.3384V34.3308H54.0391L55.707 37.8339V34.3308H56.274Z" fill="#394149"/>
<path d="M57.695 34.3308V38.9167H57.093V34.3308H57.695Z" fill="#394149"/>
<path d="M61.465 34.3308V38.9167H60.7991L59.0911 35.3614V38.9167H58.5291V34.3308H59.2301L60.8981 37.8339V34.3308H61.465Z" fill="#394149"/>
<path d="M29.5554 47.9553L28.8919 45.9131L28.2283 47.9553H26.0811L27.8182 49.2175L27.1547 51.2597L28.8919 49.9975L30.6291 51.2597L29.9655 49.2175L31.7027 47.9553H29.5554Z" fill="#394149"/>
<path d="M37.2289 47.9558L36.5518 45.9136L35.8747 47.9558H33.6836L35.4563 49.2179L34.7792 51.2601L36.5518 49.998L38.3245 51.2601L37.6474 49.2179L39.42 47.9558H37.2289Z" fill="#394149"/>
<path d="M44.829 47.9558L44.1519 45.9136L43.4748 47.9558H41.2837L43.0563 49.2179L42.3792 51.2601L44.1519 49.998L45.9245 51.2601L45.2474 49.2179L47.0201 47.9558H44.829Z" fill="#394149"/>
<path d="M52.4286 47.9558L51.7515 45.9136L51.0744 47.9558H48.8833L50.6559 49.2179L49.9788 51.2601L51.7515 49.998L53.5241 51.2601L52.847 49.2179L54.6197 47.9558H52.4286Z" fill="#394149"/>
<path d="M60.075 47.9558L59.412 45.9136L58.748 47.9558H56.601L58.338 49.2179L57.675 51.2601L59.412 49.998L61.149 51.2601L60.485 49.2179L62.223 47.9558H60.075Z" fill="#394149"/>
<path d="M1.8923 22.9366C2.5167 23.8892 3.48291 25.0824 4.89171 25.0484C6.17281 25.1124 7.2796 24.2381 8.1512 23.5084C9.0899 22.7225 9.9372 21.5732 10.2949 20.3307C8.9846 19.9495 7.73011 20.6557 6.79461 21.3218C5.81771 22.0175 5.0664 23.2907 4.905 24.598C4.8929 23.2883 4.5384 21.9356 3.9669 20.8459C3.4444 19.8497 2.71631 18.5031 1.41731 18.2339C0.905506 19.784 1.0688 21.6806 1.8923 22.9366Z" fill="#394149"/>
<path d="M5.30843 30.1789C4.00093 30.398 2.72553 29.5969 1.89723 28.6546C0.830832 27.4414 0.196329 25.8139 0.325729 24.1846C1.66893 24.2187 2.68623 25.3798 3.43813 26.2578C4.24793 27.2034 4.91143 28.4475 5.22973 29.7309C5.08973 28.4519 5.51913 27.0708 6.31623 26.2174C7.08563 25.3936 8.16343 24.4958 9.50443 24.6399C9.47553 25.9368 8.82543 27.1724 8.15493 28.0978C7.52993 28.9602 6.56713 30.0269 5.30843 30.1789Z" fill="#394149"/>
<path d="M2.8931 34.4883C4.0973 35.2723 5.5578 36.0483 7.0927 35.461C8.3519 35.0155 9.1525 33.748 9.6449 32.5846C10.1665 31.3519 10.5149 29.9305 10.2737 28.5813C8.89 28.7041 7.7426 29.6941 7.1332 30.9026C6.4961 32.166 6.3739 33.6698 6.8633 34.9944C6.1402 33.6317 5.0827 32.5291 3.9625 31.5103C2.9442 30.5842 1.4774 29.6086 0 29.7921C0.2811 31.6186 1.3957 33.5135 2.8931 34.4883Z" fill="#394149"/>
<path d="M10.1945 40.3988C11.3795 39.6904 11.8564 38.1998 12.0513 36.9225C12.2614 35.545 12.2524 34.0258 11.6803 32.719C10.3055 33.103 9.36178 34.3404 9.05018 35.6957C8.72098 37.1276 8.99878 38.6537 9.79958 39.8729C8.73508 38.6516 7.31958 37.6432 5.96308 36.9361C4.65278 36.2531 3.04528 35.4293 1.47168 35.9268C2.23048 37.7787 3.85368 39.5029 5.65268 40.2161C7.04588 40.7683 8.74078 41.3144 10.1945 40.3988Z" fill="#394149"/>
<path d="M15.8123 40.8781C15.9862 42.2077 15.9813 43.8941 14.949 44.9175C13.659 46.2379 11.6626 45.9831 10.1228 45.6926C8.05564 45.3023 5.72865 43.8924 4.48145 42.0151C6.00465 41.1764 7.86755 41.7129 9.37555 42.1472L9.46165 42.1719C11.1449 42.6562 12.9387 43.4362 14.4389 44.502C13.2417 43.4202 12.3694 41.8324 12.3267 40.232C12.2883 38.8006 12.9096 37.2692 14.2466 36.5869C15.18 37.812 15.6171 39.3849 15.8123 40.8781Z" fill="#394149"/>
<path d="M21.8034 48.6824C22.5636 47.2353 21.8104 45.5369 21.2102 44.2816C20.5006 42.7976 19.5311 41.2852 18.1436 40.199C16.8113 41.3472 16.938 42.9901 17.3341 44.4179C17.8051 46.1156 19.438 47.5628 21.1289 48.3875C19.1706 47.6572 17.0319 47.2189 14.9971 47.0895L14.791 47.0762C13.1563 46.9697 11.0282 46.8311 9.72559 48.0274C11.6951 49.7017 14.4926 50.6677 16.9582 50.6175C18.6105 50.5839 20.8775 50.3884 21.8034 48.6824Z" fill="#394149"/>
<path d="M81.974 19.4699C81.497 18.1866 80.453 17.0676 79.317 16.5457C78.262 16.0617 76.861 15.5566 75.63 16.1768C76.3 17.3532 77.403 18.3431 78.53 18.9657C79.543 19.5255 80.826 20.2037 82.096 19.9122C83.48 19.7002 84.149 18.3224 84.521 17.2801C85.036 15.8398 84.684 13.9163 83.805 12.5032C82.593 13.0083 82.223 14.5069 81.97 15.5672C81.681 16.7741 81.673 18.1829 81.974 19.4699Z" fill="#394149"/>
<path d="M80.979 21.3243C81.955 22.0203 82.704 23.2928 82.865 24.5992C82.879 23.2902 83.235 21.9388 83.807 20.8502C84.33 19.8543 85.06 18.5083 86.359 18.24C86.869 19.7906 86.704 21.6871 85.879 22.9424C85.255 23.8933 84.289 25.084 82.883 25.0521C81.6 25.1176 80.492 24.2412 79.62 23.51C78.682 22.7233 77.836 21.5734 77.48 20.3307C78.79 19.9503 80.044 20.6575 80.979 21.3243Z" fill="#394149"/>
<path d="M82.535 29.7393C82.678 28.4592 82.25 27.0752 81.452 26.2201C80.684 25.3957 79.607 24.4971 78.266 24.6402C78.293 25.9371 78.942 27.1733 79.612 28.0992C80.236 28.9617 81.197 30.0284 82.455 30.1821C83.763 30.4036 85.04 29.6029 85.87 28.6607C86.937 27.4484 87.573 25.8214 87.446 24.1919C86.102 24.2251 85.084 25.3853 84.331 26.2627C83.519 27.2089 82.854 28.4544 82.535 29.7393Z" fill="#394149"/>
<path d="M80.631 30.905C81.267 32.1691 81.388 33.6732 80.897 34.9974C81.621 33.6349 82.68 32.533 83.801 31.5149C84.82 30.5895 86.288 29.6152 87.765 29.7997C87.483 31.6261 86.366 33.5202 84.868 34.4938C83.664 35.2758 82.205 36.0502 80.672 35.4653C79.411 35.0206 78.61 33.7505 78.118 32.5851C77.597 31.352 77.25 29.9304 77.493 28.5813C78.876 28.7052 80.023 29.6961 80.631 30.905Z" fill="#394149"/>
<path d="M77.958 39.8705C78.758 38.6525 79.037 37.1279 78.71 35.6967C78.4 34.3411 77.457 33.103 76.082 32.718C75.509 34.0242 75.499 35.5433 75.707 36.9211C75.901 38.1959 76.375 39.6835 77.553 40.3945C79.008 41.3173 80.707 40.7715 82.102 40.2195C83.902 39.5076 85.527 37.7846 86.287 35.9331C84.714 35.4346 83.106 36.2572 81.795 36.9392C80.439 37.6449 79.023 38.6512 77.958 39.8705Z" fill="#394149"/>
<path d="M71.9421 40.8742C71.7671 42.2035 71.7701 43.8898 72.8021 44.9141C74.0901 46.2355 76.0871 45.9821 77.6271 45.6926C79.6951 45.3039 82.0231 43.8955 83.2721 42.0193C81.7501 41.1796 79.8861 41.7145 78.3781 42.1476L78.2911 42.1724C76.6081 42.6552 74.8141 43.4336 73.3131 44.4978C74.5111 43.4169 75.3841 41.8304 75.4281 40.2306C75.4681 38.7993 74.8481 37.2674 73.5121 36.584C72.5771 37.8084 72.1391 39.3811 71.9421 40.8742Z" fill="#394149"/>
<path d="M70.787 50.6126C69.135 50.5777 66.868 50.3806 65.944 48.6738L65.931 48.6504C65.193 47.2077 65.943 45.5215 66.541 44.2736C67.252 42.7901 68.223 41.2784 69.611 40.1934C70.943 41.3425 70.814 42.9853 70.417 44.4127C69.944 46.1101 68.31 47.5563 66.618 48.3796C68.577 47.6508 70.716 47.2141 72.751 47.0861L72.958 47.0729C74.593 46.9677 76.721 46.8309 78.022 48.0279C76.051 49.7005 73.253 50.6646 70.787 50.6126Z" fill="#394149"/>
</svg>
