<svg width="42" height="42" viewBox="0 0 42 42" fill="none" xmlns="http://www.w3.org/2000/svg">
<g clip-path="url(#clip0_4028_3157)">
<path d="M40.6874 34.043H1.3125V40.7695H40.6874V34.043Z" stroke="#F47721" stroke-width="2.46093" stroke-miterlimit="10" stroke-linecap="round" stroke-linejoin="round"/>
<path d="M37.4061 1.23057H4.59374L1.3125 34.043H40.6874L37.4061 1.23057Z" stroke="#F47721" stroke-width="2.46093" stroke-miterlimit="10" stroke-linecap="round" stroke-linejoin="round"/>
<path d="M20.9999 1.23062C20.9999 1.23062 20.9999 7.79311 16.8984 7.79311C10.3359 7.79311 9.51561 12.715 6.23437 12.715H3.44531" stroke="#F47721" stroke-width="2.46093" stroke-miterlimit="10" stroke-linecap="round" stroke-linejoin="round"/>
<path d="M2.78906 19.2774C5.29413 19.2774 7.69804 20.2775 9.44448 22.0735C11.1032 23.7791 13.476 25.7929 16.0781 26.6602C20.9999 28.3008 21.8203 34.043 21.8203 34.043" stroke="#F47721" stroke-width="2.46093" stroke-miterlimit="10" stroke-linecap="round" stroke-linejoin="round"/>
<path d="M11.9765 9.05124C11.9765 9.05124 20.5341 17.5928 12.9274 24.9756" stroke="#F47721" stroke-width="2.46093" stroke-miterlimit="10" stroke-linecap="round" stroke-linejoin="round"/>
<path d="M15.6308 15.1758C15.6308 15.1758 22.6405 13.5352 24.2812 17.6367C25.9218 21.7383 30.0233 23.3789 30.0233 23.3789" stroke="#F47721" stroke-width="2.46093" stroke-miterlimit="10" stroke-linecap="round" stroke-linejoin="round"/>
<path d="M39.2111 19.2774C39.2111 19.2774 31.664 17.6368 30.0233 23.3789C28.3827 29.1211 20.2158 29.9414 20.2158 29.9414" stroke="#F47721" stroke-width="2.46093" stroke-miterlimit="10" stroke-linecap="round" stroke-linejoin="round"/>
<path d="M29.203 1.23064C29.203 1.23064 33.3046 12.715 24.2812 17.6368" stroke="#F47721" stroke-width="2.46093" stroke-miterlimit="10" stroke-linecap="round" stroke-linejoin="round"/>
<path d="M38.5546 12.715C38.5546 12.715 36.5858 11.0743 34.9452 10.254C33.3046 9.43373 29.9613 9.43373 29.9613 9.43373" stroke="#F47721" stroke-width="2.46093" stroke-miterlimit="10" stroke-linecap="round" stroke-linejoin="round"/>
</g>
<defs>
<clipPath id="clip0_4028_3157">
<rect width="42" height="42" fill="white"/>
</clipPath>
</defs>
</svg>
