<svg width="58" height="58" viewBox="0 0 58 58" fill="none" xmlns="http://www.w3.org/2000/svg">
<path d="M0 6.44444C0 2.88528 2.88528 0 6.44445 0H51.5556C55.1147 0 58 2.88528 58 6.44445V51.5556C58 55.1147 55.1147 58 51.5556 58H6.44444C2.88528 58 0 55.1147 0 51.5556V6.44444Z" fill="#F47721"/>
<g clip-path="url(#clip0_4090_272)">
<path d="M16.6213 33.2871C14.6245 33.2871 13 34.9219 13 36.9314C13 37.5673 13.1656 38.1922 13.4807 38.7446C13.4954 38.7705 13.5091 38.7968 13.5216 38.8235L16.1172 43.4682C16.2732 43.7474 16.6696 43.756 16.8375 43.4839L19.6248 38.9679C19.6908 38.8613 19.7171 38.8194 19.7309 38.7974C19.7387 38.7849 19.7403 38.7823 19.7471 38.7709C19.7508 38.764 19.7546 38.7573 19.7585 38.7505C20.0758 38.1968 20.2426 37.5696 20.2426 36.9314C20.2426 34.9219 18.6181 33.2871 16.6213 33.2871ZM16.6213 38.3975C15.8163 38.3975 15.1636 37.7407 15.1636 36.9305C15.1636 36.1203 15.8163 35.4635 16.6213 35.4635C17.4264 35.4635 18.079 36.1204 18.079 36.9305C18.079 37.7407 17.4264 38.3975 16.6213 38.3975Z" fill="#FBF4EF"/>
<path d="M41.1763 26.971C41.1686 26.971 41.1608 26.9709 41.1531 26.9707C40.7775 26.9625 40.4343 26.7554 40.2502 26.4259L36.3878 19.5148C36.3753 19.4924 36.3637 19.4697 36.3528 19.4465C35.8803 18.5881 35.6326 17.6241 35.6325 16.6443C35.6325 16.1704 35.6907 15.7101 35.7981 15.269C34.9915 14.9554 34.0795 14.6612 33.1485 14.4253C33.2178 16.1357 32.7608 17.7986 31.8178 19.2533C30.8709 20.7137 29.4813 21.8994 27.7993 22.6822C27.4739 22.8337 27.1448 22.9642 26.8266 23.0904C26.0695 23.3906 25.3545 23.6741 24.9098 24.1594C24.6617 24.4302 24.4615 24.8059 24.2497 25.2035C24.0307 25.6144 23.7827 26.08 23.4385 26.503C22.7073 27.4019 21.5823 28.0435 20.2707 28.3098C18.9607 28.5756 17.8403 28.5915 16.8456 28.3585C15.6103 28.0689 15.2151 28.25 14.8665 28.4094C14.71 28.481 14.5327 28.5622 14.3155 28.612C14.29 28.6178 14.1584 28.642 13.9893 28.672C13.9767 28.9291 13.9704 29.1864 13.9703 29.4438C13.9703 30.0627 14.047 30.9334 14.1452 31.7143C14.9173 31.3414 15.7639 31.1481 16.6215 31.149C19.79 31.149 22.3677 33.7431 22.3677 36.9317C22.3677 37.929 22.1103 38.9122 21.6227 39.7784C21.6123 39.7985 21.6013 39.8182 21.5896 39.8378L21.574 39.8639C21.5482 39.9069 21.5482 39.9069 21.5285 39.9384C21.5154 39.9592 21.4905 39.999 21.4289 40.0983L20.2755 41.967C20.8733 42.3987 21.3748 42.7232 22.0393 43.0757C22.5973 42.6632 22.2088 42.9494 22.5973 42.6632C23.7213 41.8354 25.0245 40.2383 25.2867 38.9379C25.5655 37.5552 25.4929 36.1116 25.416 34.5833L25.3992 34.2456C25.34 33.0377 25.3174 31.858 25.6848 30.7059C26.1577 29.2234 27.2563 28.109 28.5522 27.7979C29.8894 27.4767 31.0935 28.0004 32.156 28.4623C32.3685 28.5547 32.5693 28.642 32.7667 28.7209C35.1256 29.6634 37.8312 29.5435 40.1823 29.357C40.3114 29.3468 40.4407 29.3363 40.57 29.3258C41.9723 29.2115 43.4208 29.0947 44.8855 29.3254C44.8653 27.543 44.3956 25.4505 43.7784 23.7122L42.0788 26.466C41.9839 26.6201 41.8512 26.7475 41.6932 26.8359C41.5352 26.9242 41.3573 26.9708 41.1763 26.971Z" fill="#FBF4EF"/>
<path d="M17.3276 26.2756C18.0198 26.4379 18.845 26.4176 19.8504 26.2134C20.6825 26.0445 21.3728 25.6662 21.7942 25.1482C22.0075 24.8861 22.187 24.5493 22.3769 24.1929C22.6298 23.7182 22.9165 23.1802 23.3477 22.7096C24.1225 21.8641 25.1452 21.4585 26.0476 21.1007C26.351 20.9804 26.6377 20.8668 26.9073 20.7412C29.6509 19.4643 31.2179 16.9881 31.0119 14.2776C31.0048 14.186 31.001 14.0941 31.0007 14.0021C30.4528 13.9286 29.9223 13.8873 29.4284 13.8873C21.948 13.8873 15.709 19.2344 14.2787 26.3378C14.9218 26.0847 15.7837 25.9137 17.3276 26.2756ZM44.5044 18.484C44.5082 18.4771 44.512 18.4701 44.516 18.4633C44.8332 17.9096 45.0001 17.2824 45 16.6442C45 14.6348 43.3755 13 41.3788 13C39.382 13 37.7575 14.6348 37.7575 16.6442C37.7574 17.2801 37.9231 17.905 38.2382 18.4574C38.253 18.4832 38.2666 18.5096 38.279 18.5363L40.8747 23.1809C41.0307 23.4601 41.427 23.4688 41.595 23.1967L44.3822 18.6807C44.4485 18.5738 44.4747 18.5319 44.4884 18.51C44.4961 18.4978 44.4977 18.4952 44.5044 18.484ZM41.3788 18.1104C40.5737 18.1104 39.9211 17.4536 39.9211 16.6434C39.9211 15.8332 40.5737 15.1764 41.3788 15.1764C42.1838 15.1764 42.8365 15.8332 42.8365 16.6434C42.8365 17.4536 42.1838 18.1104 41.3788 18.1104ZM44.6687 31.4554C43.4195 31.2389 42.1187 31.3447 40.7415 31.4571C40.6106 31.4678 40.4798 31.4784 40.3492 31.4888C37.7601 31.694 34.7648 31.8199 31.9826 30.7083C31.7557 30.6177 31.5307 30.5199 31.3132 30.4252C30.481 30.0635 29.6951 29.7218 29.0453 29.8778C28.4763 30.0144 27.9515 30.5959 27.708 31.3592C27.4493 32.1705 27.4705 33.0986 27.5215 34.1401L27.5382 34.475C27.6183 36.0684 27.7012 37.7161 27.3691 39.363C27.0322 41.0338 25.7622 42.9469 24.29 44.0841C25.915 44.6689 27.6552 45 29.4284 45C37.2847 45 43.7716 39.102 44.7567 31.4661C44.7272 31.4637 44.6978 31.4602 44.6687 31.4554Z" fill="#FBF4EF"/>
</g>
<defs>
<clipPath id="clip0_4090_272">
<rect width="32" height="32" fill="white" transform="translate(13 13)"/>
</clipPath>
</defs>
</svg>
