<svg width="58" height="58" viewBox="0 0 58 58" fill="none" xmlns="http://www.w3.org/2000/svg">
<path d="M0 6.44444C0 2.88528 2.88528 0 6.44445 0H51.5556C55.1147 0 58 2.88528 58 6.44445V51.5556C58 55.1147 55.1147 58 51.5556 58H6.44444C2.88528 58 0 55.1147 0 51.5556V6.44444Z" fill="#F47721"/>
<g clip-path="url(#clip0_4090_268)">
<path d="M17.0625 29.375H13.9375C13.4197 29.375 13 29.7948 13 30.3125V42.8125C13 43.3302 13.4197 43.75 13.9375 43.75H17.0625C17.5802 43.75 18 43.3302 18 42.8125V30.3125C18 29.7948 17.5802 29.375 17.0625 29.375ZM28.9927 24.1279L28.117 29.2337C27.9856 29.9996 28.7895 30.5836 29.4772 30.222L34.0625 27.8114L38.6478 30.222C39.3355 30.5836 40.1394 29.9996 40.008 29.2337L39.1323 24.1279L42.8419 20.512C43.3983 19.9696 43.0913 19.0246 42.3223 18.9129L37.1959 18.168L34.9032 13.5226C34.5593 12.8258 33.5657 12.8258 33.2218 13.5226L30.9292 18.1679L25.8027 18.9129C25.0338 19.0246 24.7268 19.9696 25.2832 20.5119L28.9927 24.1279ZM44.6588 35.615C44.024 34.5571 42.6888 34.1552 41.5756 34.6871L35.8952 37.4009C35.3619 39.3556 33.5873 40.7342 31.5271 40.7342C31.2628 40.7341 30.999 40.711 30.7387 40.6651L24.3945 39.5465C23.8973 39.4588 23.5369 39.0014 23.6011 38.5006C23.6696 37.966 24.1694 37.6028 24.6939 37.6953L31.0641 38.8186C32.5088 39.0732 33.8864 38.1087 34.1411 36.6641C34.3959 35.2194 33.4313 33.8418 31.9866 33.5871L28.4491 32.9633C27.9736 32.8798 27.5326 32.6602 27.1795 32.3311C25.1911 30.4805 22.3463 29.9622 19.875 30.8911V42.4058L26.4274 44.4072C27.7139 44.8004 29.0517 45.0002 30.3969 45C33.0221 45 35.5747 44.2461 37.7788 42.82L43.9069 38.8548C44.9898 38.1541 45.3224 36.7211 44.6588 35.615Z" fill="white"/>
</g>
<defs>
<clipPath id="clip0_4090_268">
<rect width="32" height="32" fill="white" transform="translate(13 13)"/>
</clipPath>
</defs>
</svg>
