<svg width="58" height="58" viewBox="0 0 58 58" fill="none" xmlns="http://www.w3.org/2000/svg">
<path d="M0 6.44444C0 2.88528 2.88528 0 6.44445 0H51.5556C55.1147 0 58 2.88528 58 6.44445V51.5556C58 55.1147 55.1147 58 51.5556 58H6.44444C2.88528 58 0 55.1147 0 51.5556V6.44444Z" fill="#F47721"/>
<g clip-path="url(#clip0_4090_276)">
<path d="M38.2781 20.4113H31.4163V13.5488L38.2781 20.4113Z" fill="white"/>
<path d="M30.4788 22.2863C29.9613 22.2863 29.5413 21.8663 29.5413 21.3488V13H13.9375C13.42 13 13 13.42 13 13.9375V44.0625C13 44.58 13.42 45 13.9375 45H32.4669C30.3594 43.3638 29.0006 40.8063 29.0006 37.9381C29.0006 33.01 33.01 29.0006 37.9381 29.0006C38.2381 29.0006 38.5344 29.0156 38.8269 29.0444V22.2863H30.4788ZM22.9756 34.375H17.6875C17.17 34.375 16.75 33.955 16.75 33.4375C16.75 32.92 17.17 32.5 17.6875 32.5H22.9756C23.4937 32.5 23.9131 32.92 23.9131 33.4375C23.9131 33.955 23.4937 34.375 22.9756 34.375ZM27.3813 30H17.6875C17.17 30 16.75 29.58 16.75 29.0625C16.75 28.545 17.17 28.125 17.6875 28.125H27.3813C27.8988 28.125 28.3188 28.545 28.3188 29.0625C28.3188 29.58 27.8988 30 27.3813 30ZM27.3813 25.625H17.6875C17.17 25.625 16.75 25.205 16.75 24.6875C16.75 24.17 17.17 23.75 17.6875 23.75H27.3813C27.8988 23.75 28.3188 24.17 28.3188 24.6875C28.3188 25.205 27.8988 25.625 27.3813 25.625Z" fill="white"/>
<path d="M37.9375 30.8755C34.0431 30.8755 30.8756 34.043 30.8756 37.9374C30.8756 41.8317 34.0431 44.9999 37.9375 44.9999C41.8319 44.9999 45 41.8317 45 37.9374C45 34.043 41.8319 30.8755 37.9375 30.8755ZM41.575 36.6899L37.7537 40.5111C37.5706 40.6942 37.3306 40.7861 37.0906 40.7861C36.8506 40.7861 36.6106 40.6942 36.4281 40.5111L34.3 38.3836C33.9344 38.018 33.9344 37.4242 34.3 37.058C34.6662 36.6917 35.26 36.6917 35.6262 37.058L37.0906 38.523L38.1419 37.4717L40.2494 35.3642C40.6156 34.998 41.2087 34.998 41.575 35.3642C41.9412 35.7305 41.9412 36.3236 41.575 36.6899Z" fill="white"/>
</g>
<defs>
<clipPath id="clip0_4090_276">
<rect width="32" height="32" fill="white" transform="translate(13 13)"/>
</clipPath>
</defs>
</svg>
