<svg version="1.2" xmlns="http://www.w3.org/2000/svg" viewBox="0 0 96 96" width="96" height="96">
	<style>
		.s0 { fill: #f47721 } 
	</style>
	<path class="s0" d="m1.81 22.85c7.05-1.73 22.64-5.97 21.96-9.51-0.81-4.2-8.74-10.74-10.98-13.12-7.26 1.19-12.79 7.21-12.79 14.48v6.81c0 0.9 0.89 1.57 1.81 1.34z"/>
	<path class="s0" d="m77.97 68.73c-0.81-5.66-7.54-11.59-12.94-15.45-5.4-3.87-12.41-7.99-14.43-6.44-2.02 1.54-2.84 7.21-4.45 15.45-1.48 7.55-11.76 21.57-9.16 30.21 0.29 0.96 1.23 1.62 2.28 1.62h24.77c0.91 0 1.75-0.45 2.21-1.19 5.18-8.37 12.24-20.58 11.72-24.2z"/>
	<path class="s0" d="m41.83 41.68c7.28 4.64 10.52-11.08 14.03-15.71 3.5-4.64 12.91-14.51 11.81-16.82-1.31-2.76-4.24-6.14-7.18-9.15h-18.27c-5.14 7.09-11.81 16.52-12.79 19.01-1.62 4.12 5.12 18.03 12.4 22.67z"/>
	<path class="s0" d="m42.11 49.41c-1.86-4.92-27.44 0.38-39.43 3.15-1.58 0.36-2.68 1.71-2.68 3.25v23.6c0 8.12 6.89 14.71 15.39 14.71h6.2c1.09 0 2.09-0.58 2.59-1.52 6.46-12.17 19.77-38.28 17.93-43.19z"/>
	<path class="s0" d="m2 45.7c9.49-0.75 27.89-2.83 26.08-7.63-2.42-6.44-4.58-14.43-11.32-14.43-4.22 0-11.06 2.32-15.6 4.05-0.7 0.27-1.16 0.93-1.16 1.65v14.59c0 1.04 0.92 1.86 2 1.77z"/>
	<path class="s0" d="m83.01 0.6c-1.1-0.31-2.3 0.07-2.99 0.95-3.04 3.9-6.62 8.82-8.79 12.82-4.31 7.99-14.83 20.61-14.83 23.96 0 3.35 25.89 18.81 30.75 21.9 3.95 2.52 4.87 2.64 6.97 0.5v-46.02c0-6.7-4.7-12.34-11.11-14.11z"/>
	<path class="s0" d="m90.92 66.42c-2.62-0.78-11.1 16.41-15.23 25.48-0.48 1.05 0.33 2.22 1.53 2.22h1.5c8.5 0 15.39-6.59 15.39-14.71v-4.3c-0.94-4.72-2.04-8.36-3.19-8.69z"/>
	<path class="s0" d="m29.8 6.15c0.91 0.56 4.56-3.4 6.18-5.24 0.32-0.36 0.05-0.91-0.44-0.91h-9.37c-0.67 0-1.06 0.73-0.66 1.24 1.27 1.65 3.47 4.42 4.29 4.91z"/>
	<path class="s0" d="m69.81 3.83c0.8 0.93 2.3 0.9 3.06-0.06l2.17-2.74c0.33-0.42 0.02-1.03-0.54-1.03h-6.2c-0.78 0-1.19 0.88-0.67 1.43 0.67 0.72 1.49 1.6 2.18 2.4z"/>
</svg>