<svg width="48" height="48" viewBox="0 0 48 48" fill="none" xmlns="http://www.w3.org/2000/svg">
<path d="M0 5.33333C0 2.38781 2.38781 0 5.33333 0H42.6667C45.6122 0 48 2.38781 48 5.33333V42.6667C48 45.6122 45.6122 48 42.6667 48H5.33333C2.38781 48 0 45.6122 0 42.6667V5.33333Z" fill="#F47721"/>
<g clip-path="url(#clip0_4146_501)">
<path d="M18.0922 13.2215C18.4865 14.2844 18.3122 15.4755 17.5338 16.3003C16.7553 17.1251 15.5763 17.3679 14.4924 17.0358C14.0982 15.9729 14.2725 14.7818 15.0509 13.957C15.8294 13.1322 17.0084 12.8894 18.0922 13.2215Z" stroke="white" stroke-width="1.48437" stroke-miterlimit="22.926" stroke-linecap="round" stroke-linejoin="round"/>
<path d="M13.3648 17.6209C14.4499 17.949 15.2937 18.8074 15.4807 19.926C15.6677 21.0446 15.1488 22.1309 14.2293 22.7939C13.1441 22.4659 12.3003 21.6074 12.1133 20.4888C11.9264 19.3702 12.4452 18.2839 13.3648 17.6209Z" stroke="white" stroke-width="1.48437" stroke-miterlimit="22.926" stroke-linecap="round" stroke-linejoin="round"/>
<path d="M12.7853 23.4947C13.8891 23.2362 15.0491 23.5578 15.7703 24.433C16.4915 25.3083 16.5854 26.5084 16.1206 27.5424C15.0168 27.8009 13.8567 27.4793 13.1355 26.6041C12.4143 25.7288 12.3205 24.5286 12.7853 23.4947Z" stroke="white" stroke-width="1.48437" stroke-miterlimit="22.926" stroke-linecap="round" stroke-linejoin="round"/>
<path d="M23.9999 17.2341L25.7858 19.9265L28.8984 20.793L26.8895 23.3234L27.0274 26.5515L23.9999 25.4229L20.9725 26.5515L21.1104 23.3234L19.1015 20.793L22.214 19.9266L23.9999 17.2341Z" stroke="white" stroke-width="1.48437" stroke-miterlimit="22.926" stroke-linecap="round" stroke-linejoin="round"/>
<path d="M13.7858 29.2079C14.4782 28.3102 15.5805 27.8266 16.6925 28.0495C17.8046 28.2724 18.6355 29.1434 18.9283 30.2386C18.236 31.1363 17.1336 31.6198 16.0217 31.3969C14.9096 31.1741 14.0788 30.303 13.7858 29.2079Z" stroke="white" stroke-width="1.48437" stroke-miterlimit="22.926" stroke-linecap="round" stroke-linejoin="round"/>
<path d="M29.9076 13.2215C29.5133 14.2844 29.6876 15.4755 30.466 16.3003C31.2445 17.1251 32.4235 17.3679 33.5074 17.0358C33.9016 15.9729 33.7273 14.7818 32.9489 13.957C32.1704 13.1322 30.9914 12.8894 29.9076 13.2215Z" stroke="white" stroke-width="1.48437" stroke-miterlimit="22.926" stroke-linecap="round" stroke-linejoin="round"/>
<path d="M34.635 17.6209C33.5499 17.949 32.7061 18.8074 32.519 19.926C32.3321 21.0446 32.8509 22.1309 33.7705 22.7939C34.8556 22.4659 35.6995 21.6074 35.8864 20.4888C36.0734 19.3702 35.5545 18.2839 34.635 17.6209Z" stroke="white" stroke-width="1.48437" stroke-miterlimit="22.926" stroke-linecap="round" stroke-linejoin="round"/>
<path d="M35.2145 23.4947C34.1108 23.2362 32.9507 23.5578 32.2295 24.433C31.5083 25.3083 31.4145 26.5084 31.8793 27.5424C32.983 27.8009 34.1432 27.4793 34.8643 26.6041C35.5855 25.7288 35.6794 24.5286 35.2145 23.4947Z" stroke="white" stroke-width="1.48437" stroke-miterlimit="22.926" stroke-linecap="round" stroke-linejoin="round"/>
<path d="M34.214 29.2079C33.5217 28.3102 32.4193 27.8266 31.3073 28.0495C30.1953 28.2724 29.3644 29.1434 29.0715 30.2386C29.7638 31.1363 30.8662 31.6198 31.9782 31.3969C33.0902 31.1741 33.9211 30.303 34.214 29.2079Z" stroke="white" stroke-width="1.48437" stroke-miterlimit="22.926" stroke-linecap="round" stroke-linejoin="round"/>
<path d="M19.1384 30.5063C20.6364 31.3742 22.3394 31.8253 24.0705 31.8127C25.8017 31.8001 27.498 31.3243 28.9832 30.4347" stroke="white" stroke-width="1.48437" stroke-miterlimit="22.926" stroke-linecap="round" stroke-linejoin="round"/>
<path d="M21.0312 34.9225L23.901 32.1022" stroke="white" stroke-width="1.48437" stroke-miterlimit="22.926" stroke-linecap="round" stroke-linejoin="round"/>
<path d="M26.9686 34.9225L24.0988 32.1022" stroke="white" stroke-width="1.48437" stroke-miterlimit="22.926" stroke-linecap="round" stroke-linejoin="round"/>
</g>
<defs>
<clipPath id="clip0_4146_501">
<rect width="25.3333" height="25.3333" fill="white" transform="translate(11.3333 11.3333)"/>
</clipPath>
</defs>
</svg>
