<svg width="225" height="40" viewBox="0 0 225 40" fill="none" xmlns="http://www.w3.org/2000/svg">
<path d="M60.5855 12.6879C60.1882 12.2396 59.6916 11.8321 59.0957 11.4653C58.5196 11.0985 57.6357 10.9151 56.4439 10.9151C55.2719 10.9151 54.4178 11.1189 53.8814 11.5264C53.3451 11.9136 53.077 12.372 53.077 12.9018C53.077 13.126 53.1366 13.3603 53.2557 13.6048C53.3749 13.829 53.5835 14.0531 53.8814 14.2772C54.1993 14.5014 54.6462 14.6848 55.2222 14.8274L60.0491 16.1722C61.9163 16.6816 63.277 17.5171 64.1311 18.6785C64.9853 19.84 65.4123 21.1848 65.4123 22.7131C65.4123 24.1801 65.0349 25.4639 64.2801 26.5642C63.5451 27.6441 62.4924 28.4796 61.1218 29.0705C59.7512 29.6614 58.1124 29.9568 56.2055 29.9568C54.7952 29.9568 53.4643 29.7938 52.2129 29.4678C50.9813 29.1418 49.8888 28.6833 48.9354 28.0924C48.0018 27.4811 47.2966 26.7679 46.8199 25.9529C46.7007 25.7491 46.651 25.5861 46.6709 25.4639C46.6908 25.3212 46.8 25.1684 46.9987 25.0054L49.6803 23.1104C49.9385 22.927 50.1471 22.8557 50.306 22.8964C50.4847 22.9168 50.6238 22.9983 50.7231 23.141C51.18 23.7522 51.6368 24.2515 52.0937 24.6386C52.5506 25.0054 53.067 25.2805 53.6431 25.4639C54.239 25.6269 54.9442 25.7084 55.7586 25.7084C56.9504 25.7084 57.9038 25.5352 58.6189 25.1888C59.334 24.822 59.6916 24.282 59.6916 23.5689C59.6916 23.2836 59.6121 23.0187 59.4532 22.7742C59.3142 22.5093 59.0857 22.275 58.7679 22.0712C58.47 21.8674 58.0528 21.6942 57.5165 21.5516L52.9876 20.329C51.8156 20.003 50.8125 19.514 49.9782 18.8619C49.1439 18.2099 48.4984 17.4458 48.0415 16.5696C47.6045 15.6934 47.386 14.7459 47.386 13.7271C47.386 12.423 47.7436 11.2412 48.4586 10.1816C49.1936 9.10164 50.2265 8.24583 51.5574 7.61417C52.8883 6.9825 54.4575 6.66666 56.2651 6.66666C57.4172 6.66666 58.5097 6.79911 59.5426 7.064C60.5954 7.3289 61.529 7.70586 62.3434 8.19489C63.1777 8.68392 63.8332 9.25446 64.3099 9.90651C64.3894 10.0491 64.4489 10.1918 64.4887 10.3344C64.5483 10.477 64.4887 10.6197 64.3099 10.7623L61.3899 12.9324C61.2708 13.0343 61.1516 13.075 61.0324 13.0547C60.9331 13.0139 60.7841 12.8916 60.5855 12.6879Z" fill="white"/>
<path d="M74.6771 17.1503C74.4388 17.1503 74.3196 17.2726 74.3196 17.5171V24.119C74.3196 24.7303 74.4785 25.1786 74.7963 25.4639C75.134 25.7491 75.6604 25.8918 76.3755 25.8918H77.8057C77.9447 25.8918 78.054 25.9529 78.1334 26.0751C78.2327 26.177 78.2824 26.2993 78.2824 26.4419L78.2526 28.6426C78.2526 29.0705 77.9944 29.3354 77.4779 29.4373C77.1005 29.4984 76.6933 29.5493 76.2563 29.5901C75.8193 29.6104 75.3823 29.6308 74.9453 29.6512C74.5282 29.6512 74.111 29.6512 73.6939 29.6512C72.3034 29.6512 71.1712 29.315 70.2972 28.6426C69.443 27.9498 69.016 26.9513 69.016 25.6472V17.6699C69.016 17.3235 68.8769 17.1503 68.5988 17.1503H66.9899C66.5529 17.1503 66.3344 16.9465 66.3344 16.539V13.9716C66.3344 13.6252 66.533 13.452 66.9303 13.452H68.8372C69.0358 13.452 69.1451 13.3399 69.165 13.1158L69.6119 8.5311C69.6516 8.14395 69.8205 7.95037 70.1184 7.95037H73.9322C74.2898 7.95037 74.4686 8.15414 74.4686 8.56167V13.1158C74.4686 13.3195 74.5679 13.4214 74.7665 13.4214H77.7163C78.1136 13.4214 78.3122 13.5946 78.3122 13.941V16.539C78.3122 16.9465 78.0838 17.1503 77.6269 17.1503H74.6771Z" fill="white"/>
<path d="M87.4799 29.9568C85.871 29.9568 84.4507 29.6003 83.2192 28.8871C82.0075 28.1739 81.054 27.1959 80.3588 25.9529C79.6834 24.6896 79.3457 23.253 79.3457 21.6433C79.3457 19.9317 79.7033 18.4442 80.4184 17.1809C81.1335 15.8972 82.1068 14.9089 83.3383 14.2161C84.5699 13.5029 85.9604 13.1463 87.5097 13.1463C89.1385 13.1463 90.5588 13.5131 91.7705 14.2467C93.002 14.9802 93.9555 15.9888 94.6309 17.2726C95.3261 18.5359 95.6737 19.9928 95.6737 21.6433C95.6737 23.253 95.3261 24.6896 94.6309 25.9529C93.9356 27.1959 92.9722 28.1739 91.7407 28.8871C90.529 29.6003 89.1088 29.9568 87.4799 29.9568ZM87.5097 26.4114C88.1454 26.4114 88.6717 26.2382 89.0889 25.8918C89.506 25.5454 89.8139 25.0054 90.0126 24.2718C90.2112 23.5383 90.3105 22.6214 90.3105 21.521C90.3105 20.4003 90.2013 19.4732 89.9828 18.7397C89.7841 18.0061 89.4762 17.4661 89.0591 17.1197C88.6618 16.753 88.1454 16.5696 87.5097 16.5696C86.8939 16.5696 86.3676 16.753 85.9306 17.1197C85.5134 17.4661 85.2055 18.0061 85.0069 18.7397C84.8083 19.4732 84.7089 20.4003 84.7089 21.521C84.7089 22.6417 84.8083 23.5689 85.0069 24.3024C85.2055 25.0156 85.5134 25.5454 85.9306 25.8918C86.3676 26.2382 86.8939 26.4114 87.5097 26.4114Z" fill="white"/>
<path d="M98.582 29.6512C98.1053 29.6512 97.8669 29.4169 97.8669 28.9482V14.0938C97.8669 13.6659 98.0358 13.452 98.3735 13.452H102.604C102.942 13.452 103.111 13.6354 103.111 14.0022V15.4693C103.111 15.5915 103.141 15.673 103.2 15.7138C103.26 15.7341 103.349 15.6934 103.469 15.5915C103.925 15.1025 104.412 14.6746 104.929 14.3078C105.445 13.941 105.981 13.6558 106.537 13.452C107.114 13.2482 107.719 13.1463 108.355 13.1463C109.765 13.1463 110.898 13.5946 111.752 14.4912C112.626 15.3674 113.063 16.5492 113.063 18.0367V28.826C113.063 29.3761 112.785 29.6512 112.228 29.6512H108.385C108.146 29.6512 107.978 29.6003 107.878 29.4984C107.799 29.3965 107.759 29.2131 107.759 28.9482V18.8008C107.759 18.2303 107.59 17.7922 107.253 17.4865C106.935 17.1809 106.478 17.028 105.882 17.028C105.524 17.028 105.187 17.0892 104.869 17.2114C104.571 17.3337 104.283 17.5273 104.005 17.7922C103.727 18.0367 103.449 18.3525 103.171 18.7397V28.8565C103.171 29.3863 102.873 29.6512 102.277 29.6512H98.582Z" fill="white"/>
<path d="M120.53 23.0493C120.53 23.7421 120.679 24.333 120.977 24.822C121.295 25.311 121.712 25.688 122.228 25.9529C122.764 26.1974 123.36 26.3197 124.016 26.3197C124.612 26.3197 125.188 26.1872 125.744 25.9223C126.3 25.6371 126.896 25.148 127.532 24.4552C127.611 24.3737 127.681 24.333 127.74 24.333C127.8 24.3126 127.919 24.333 128.098 24.3941L130.541 25.4333C130.859 25.5759 130.899 25.8001 130.66 26.1057C129.965 27.1042 129.26 27.8886 128.545 28.4592C127.85 29.0093 127.075 29.3965 126.221 29.6206C125.367 29.8448 124.393 29.9568 123.301 29.9568C121.751 29.9568 120.351 29.6104 119.1 28.9177C117.848 28.2249 116.865 27.2672 116.15 26.0446C115.435 24.822 115.077 23.4058 115.077 21.7961C115.077 20.0641 115.445 18.5461 116.18 17.242C116.934 15.9379 117.928 14.9293 119.159 14.2161C120.411 13.5029 121.761 13.1463 123.211 13.1463C124.761 13.1463 126.121 13.4927 127.293 14.1855C128.485 14.858 129.419 15.836 130.094 17.1197C130.789 18.4034 131.137 19.9622 131.137 21.7961C131.137 22.0406 131.107 22.224 131.048 22.3463C131.008 22.4685 130.869 22.5399 130.63 22.5602H120.947C120.828 22.5602 120.728 22.601 120.649 22.6825C120.569 22.764 120.53 22.8862 120.53 23.0493ZM125.476 19.6872C125.674 19.6872 125.804 19.6668 125.863 19.626C125.943 19.5649 125.982 19.4426 125.982 19.2593C125.982 18.8721 125.893 18.4646 125.714 18.0367C125.535 17.5884 125.257 17.2012 124.88 16.8752C124.502 16.5492 124.026 16.3862 123.45 16.3862C122.913 16.3862 122.427 16.5186 121.99 16.7835C121.553 17.028 121.215 17.3948 120.977 17.8839C120.738 18.3729 120.619 18.9638 120.619 19.6566L125.476 19.6872Z" fill="white"/>
<path d="M133.964 29.6512C133.507 29.6512 133.279 29.4169 133.279 28.9482V7.61417C133.279 7.18626 133.448 6.97231 133.786 6.97231H137.987C138.324 6.97231 138.493 7.16588 138.493 7.55304V15.2859C138.493 15.4081 138.523 15.4794 138.583 15.4998C138.642 15.5202 138.732 15.4896 138.851 15.4081C139.447 14.8376 140.013 14.3893 140.549 14.0633C141.085 13.7373 141.612 13.5029 142.128 13.3603C142.665 13.2177 143.211 13.1463 143.767 13.1463C145.257 13.1463 146.409 13.5844 147.223 14.4606C148.038 15.3164 148.445 16.539 148.445 18.1284V28.826C148.445 29.3761 148.167 29.6512 147.611 29.6512H143.767C143.529 29.6512 143.36 29.6003 143.261 29.4984C143.181 29.3965 143.141 29.2131 143.141 28.9482V18.8008C143.141 18.2303 142.972 17.7922 142.635 17.4865C142.317 17.1809 141.87 17.028 141.294 17.028C140.936 17.028 140.599 17.0892 140.281 17.2114C139.963 17.3337 139.665 17.5273 139.387 17.7922C139.129 18.0367 138.861 18.3525 138.583 18.7397V28.8565C138.583 29.3863 138.285 29.6512 137.689 29.6512H133.964Z" fill="white"/>
<path d="M155.941 23.0493C155.941 23.7421 156.09 24.333 156.388 24.822C156.706 25.311 157.123 25.688 157.639 25.9529C158.176 26.1974 158.772 26.3197 159.427 26.3197C160.023 26.3197 160.599 26.1872 161.155 25.9223C161.712 25.6371 162.307 25.148 162.943 24.4552C163.023 24.3737 163.092 24.333 163.152 24.333C163.211 24.3126 163.33 24.333 163.509 24.3941L165.952 25.4333C166.27 25.5759 166.31 25.8001 166.072 26.1057C165.376 27.1042 164.671 27.8886 163.956 28.4592C163.261 29.0093 162.486 29.3965 161.632 29.6206C160.778 29.8448 159.805 29.9568 158.712 29.9568C157.163 29.9568 155.762 29.6104 154.511 28.9177C153.259 28.2249 152.276 27.2672 151.561 26.0446C150.846 24.822 150.489 23.4058 150.489 21.7961C150.489 20.0641 150.856 18.5461 151.591 17.242C152.346 15.9379 153.339 14.9293 154.571 14.2161C155.822 13.5029 157.173 13.1463 158.623 13.1463C160.172 13.1463 161.533 13.4927 162.705 14.1855C163.897 14.858 164.83 15.836 165.505 17.1197C166.201 18.4034 166.548 19.9622 166.548 21.7961C166.548 22.0406 166.519 22.224 166.459 22.3463C166.419 22.4685 166.28 22.5399 166.042 22.5602H156.358C156.239 22.5602 156.14 22.601 156.06 22.6825C155.981 22.764 155.941 22.8862 155.941 23.0493ZM160.887 19.6872C161.086 19.6872 161.215 19.6668 161.275 19.626C161.354 19.5649 161.394 19.4426 161.394 19.2593C161.394 18.8721 161.304 18.4646 161.126 18.0367C160.947 17.5884 160.669 17.2012 160.291 16.8752C159.914 16.5492 159.437 16.3862 158.861 16.3862C158.325 16.3862 157.838 16.5186 157.401 16.7835C156.964 17.028 156.626 17.3948 156.388 17.8839C156.15 18.3729 156.031 18.9638 156.031 19.6566L160.887 19.6872Z" fill="white"/>
<path d="M169.376 29.6512C168.899 29.6512 168.661 29.4169 168.661 28.9482V14.0938C168.661 13.6659 168.829 13.452 169.167 13.452H173.398C173.736 13.452 173.905 13.6354 173.905 14.0022V15.4693C173.905 15.5915 173.934 15.673 173.994 15.7138C174.054 15.7341 174.143 15.6934 174.262 15.5915C174.719 15.1025 175.206 14.6746 175.722 14.3078C176.239 13.941 176.775 13.6558 177.331 13.452C177.907 13.2482 178.513 13.1463 179.149 13.1463C180.559 13.1463 181.691 13.5946 182.545 14.4912C183.419 15.3674 183.856 16.5492 183.856 18.0367V28.826C183.856 29.3761 183.578 29.6512 183.022 29.6512H179.178C178.94 29.6512 178.771 29.6003 178.672 29.4984C178.592 29.3965 178.553 29.2131 178.553 28.9482V18.8008C178.553 18.2303 178.384 17.7922 178.046 17.4865C177.728 17.1809 177.271 17.028 176.676 17.028C176.318 17.028 175.98 17.0892 175.663 17.2114C175.365 17.3337 175.077 17.5273 174.798 17.7922C174.52 18.0367 174.242 18.3525 173.964 18.7397V28.8565C173.964 29.3863 173.666 29.6512 173.07 29.6512H169.376Z" fill="white"/>
<path d="M203.093 12.5962C203.252 12.5962 203.391 12.6573 203.51 12.7796C203.629 12.8815 203.689 13.0648 203.689 13.3297V15.7443C203.689 16.0704 203.619 16.2945 203.48 16.4168C203.341 16.539 203.162 16.5696 202.944 16.5084C202.725 16.4473 202.487 16.4066 202.229 16.3862C201.99 16.3658 201.772 16.3658 201.573 16.3862C201.057 16.4066 200.858 16.6409 200.977 17.0892C201.037 17.2318 201.086 17.405 201.126 17.6088C201.186 17.7922 201.215 18.0061 201.215 18.2506C201.215 19.1676 200.937 20.003 200.381 20.7569C199.825 21.5108 198.991 22.1221 197.878 22.5908C196.766 23.0391 195.395 23.2632 193.767 23.2632C193.052 23.2632 192.466 23.304 192.009 23.3855C191.572 23.467 191.254 23.579 191.055 23.7217C190.876 23.8439 190.787 23.9968 190.787 24.1801C190.787 24.4247 190.906 24.5979 191.145 24.6997C191.403 24.7812 191.8 24.8424 192.336 24.8831L196.746 25.1582C198.872 25.3008 200.421 25.7695 201.394 26.5642C202.387 27.3589 202.884 28.3879 202.884 29.6512C202.884 31.1998 202.139 32.4733 200.649 33.4718C199.179 34.4906 197.004 35 194.124 35C191.105 35 188.85 34.6842 187.361 34.0525C185.871 33.4208 185.126 32.4529 185.126 31.1489C185.126 30.4561 185.404 29.9059 185.96 29.4984C186.516 29.0909 187.202 28.7546 188.016 28.4897C188.274 28.4082 188.274 28.2962 188.016 28.1535C187.519 27.909 187.082 27.6034 186.705 27.2366C186.348 26.8495 186.169 26.3604 186.169 25.7695C186.169 25.3212 186.308 24.9137 186.586 24.5469C186.884 24.1801 187.261 23.8541 187.718 23.5689C188.195 23.2632 188.701 22.9983 189.238 22.7742C189.337 22.7334 189.407 22.6825 189.446 22.6214C189.506 22.5602 189.456 22.4889 189.297 22.4074C188.344 21.9795 187.609 21.4191 187.092 20.7264C186.576 20.0336 186.318 19.2185 186.318 18.2812C186.318 16.7733 186.973 15.5508 188.284 14.6134C189.595 13.6761 191.532 13.2075 194.094 13.2075C195.207 13.2075 196.17 13.3399 196.985 13.6048C197.819 13.8493 198.484 14.1754 198.981 14.5829C199.14 14.7051 199.299 14.7561 199.458 14.7357C199.616 14.7153 199.746 14.644 199.845 14.5218C200.123 14.155 200.451 13.829 200.828 13.5437C201.225 13.2584 201.623 13.0343 202.02 12.8713C202.437 12.6879 202.795 12.5962 203.093 12.5962ZM193.707 20.6958C194.66 20.6958 195.346 20.4615 195.763 19.9928C196.18 19.5241 196.389 18.974 196.389 18.3423C196.389 17.6291 196.18 17.028 195.763 16.539C195.346 16.05 194.66 15.8055 193.707 15.8055C192.873 15.8055 192.217 16.05 191.741 16.539C191.284 17.028 191.055 17.6291 191.055 18.3423C191.055 18.9944 191.284 19.5547 191.741 20.0234C192.217 20.4716 192.873 20.6958 193.707 20.6958ZM191.651 29.0705C191.254 29.0501 190.886 29.101 190.549 29.2233C190.211 29.3456 189.943 29.5086 189.744 29.7123C189.546 29.9161 189.446 30.1606 189.446 30.4459C189.446 30.8738 189.595 31.2406 189.893 31.5462C190.211 31.8518 190.727 32.0862 191.443 32.2492C192.158 32.4122 193.141 32.4937 194.392 32.4937C195.664 32.4937 196.627 32.3205 197.282 31.9741C197.938 31.6481 198.266 31.21 198.266 30.6598C198.266 30.2931 198.087 29.9772 197.729 29.7123C197.372 29.4474 196.826 29.3048 196.091 29.2844L191.651 29.0705Z" fill="white"/>
<path d="M209.393 23.0493C209.393 23.7421 209.542 24.333 209.84 24.822C210.158 25.311 210.575 25.688 211.091 25.9529C211.627 26.1974 212.223 26.3197 212.879 26.3197C213.475 26.3197 214.051 26.1872 214.607 25.9223C215.163 25.6371 215.759 25.148 216.395 24.4552C216.474 24.3737 216.544 24.333 216.603 24.333C216.663 24.3126 216.782 24.333 216.961 24.3941L219.404 25.4333C219.722 25.5759 219.762 25.8001 219.523 26.1057C218.828 27.1042 218.123 27.8886 217.408 28.4592C216.713 29.0093 215.938 29.3965 215.084 29.6206C214.23 29.8448 213.256 29.9568 212.164 29.9568C210.614 29.9568 209.214 29.6104 207.963 28.9177C206.711 28.2249 205.728 27.2672 205.013 26.0446C204.298 24.822 203.94 23.4058 203.94 21.7961C203.94 20.0641 204.308 18.5461 205.043 17.242C205.797 15.9379 206.791 14.9293 208.022 14.2161C209.274 13.5029 210.624 13.1463 212.074 13.1463C213.624 13.1463 214.984 13.4927 216.156 14.1855C217.348 14.858 218.282 15.836 218.957 17.1197C219.652 18.4034 220 19.9622 220 21.7961C220 22.0406 219.97 22.224 219.911 22.3463C219.871 22.4685 219.732 22.5399 219.493 22.5602H209.81C209.691 22.5602 209.591 22.601 209.512 22.6825C209.432 22.764 209.393 22.8862 209.393 23.0493ZM214.339 19.6872C214.537 19.6872 214.667 19.6668 214.726 19.626C214.806 19.5649 214.845 19.4426 214.845 19.2593C214.845 18.8721 214.756 18.4646 214.577 18.0367C214.398 17.5884 214.12 17.2012 213.743 16.8752C213.366 16.5492 212.889 16.3862 212.313 16.3862C211.776 16.3862 211.29 16.5186 210.853 16.7835C210.416 17.028 210.078 17.3948 209.84 17.8839C209.601 18.3729 209.482 18.9638 209.482 19.6566L214.339 19.6872Z" fill="white"/>
<path d="M3.9733 11.4257C6.47184 10.8133 11.9926 9.3114 11.7509 8.057C11.4652 6.56992 8.65543 4.2527 7.86256 3.41206C5.2917 3.83195 3.33334 5.96547 3.33334 8.54074V10.9498C3.33242 11.2717 3.64737 11.5062 3.9733 11.4257Z" fill="#F47721"/>
<path d="M30.9491 27.6768C30.6625 25.6693 28.2757 23.5707 26.364 22.2018C24.4523 20.8336 21.9703 19.3728 21.2534 19.9213C20.5374 20.468 20.2499 22.4756 19.6777 25.3955C19.154 28.0687 15.512 33.0321 16.4349 36.0928C16.5374 36.4349 16.8697 36.6667 17.2424 36.6667H26.0152C26.3374 36.6667 26.6341 36.5092 26.798 36.245C28.6327 33.2805 31.1313 28.9566 30.9491 27.6768Z" fill="#F47721"/>
<path d="M18.1488 18.0957C20.7269 19.7384 21.8732 14.1724 23.1165 12.5305C24.3571 10.8868 27.6888 7.39044 27.3006 6.57254C26.8355 5.5972 25.7982 4.39791 24.7563 3.33421H18.2852C16.466 5.84475 14.1029 9.18456 13.7569 10.0654C13.1837 11.5254 15.5715 16.4529 18.1488 18.0957Z" fill="#F47721"/>
<path d="M18.2458 20.8328C17.5894 19.0903 8.52908 20.9657 4.28093 21.9498C3.72427 22.0775 3.33334 22.5525 3.33334 23.101V31.4584C3.33334 34.3346 5.77419 36.6658 8.78451 36.6658H10.9782C11.3673 36.6658 11.7207 36.4611 11.8974 36.1296C14.1835 31.8179 18.8995 22.5709 18.2458 20.8328Z" fill="#F47721"/>
<path d="M4.04014 19.5198C7.40295 19.2538 13.9198 18.5173 13.279 16.8177C12.4202 14.5372 11.6557 11.7073 9.26793 11.7073C7.77466 11.7073 5.35212 12.5279 3.7435 13.1419C3.49539 13.2364 3.33334 13.4682 3.33334 13.7236V18.8934C3.33242 19.26 3.65744 19.5504 4.04014 19.5198Z" fill="#F47721"/>
<path d="M32.7316 3.54503C32.3416 3.43743 31.9177 3.57039 31.6751 3.88268C30.5984 5.26479 29.3285 7.00467 28.5622 8.42265C27.0333 11.2516 23.3088 15.7233 23.3088 16.9086C23.3088 18.0948 32.4789 23.5699 34.1974 24.6651C35.5991 25.5591 35.9232 25.601 36.6667 24.8426V8.54249C36.6658 6.16928 35.004 4.17222 32.7316 3.54503Z" fill="#F47721"/>
<path d="M35.5332 26.8554C34.6048 26.5816 31.6027 32.6682 30.1397 35.882C29.9712 36.2529 30.2578 36.6658 30.6817 36.6658H31.2146C34.224 36.6658 36.6648 34.3346 36.6648 31.4584V29.9354C36.3297 28.2647 35.9415 26.9753 35.5332 26.8554Z" fill="#F47721"/>
<path d="M13.886 5.51322C14.2082 5.71004 15.5019 4.30694 16.0769 3.65437C16.1886 3.52753 16.0943 3.33421 15.9194 3.33421H12.6024C12.3643 3.33421 12.227 3.59139 12.368 3.77421C12.8175 4.35767 13.5957 5.3374 13.886 5.51322Z" fill="#F47721"/>
<path d="M28.0568 4.6892C28.3416 5.01898 28.8708 5.00849 29.1409 4.66908L29.9099 3.69986C30.028 3.5494 29.9172 3.33334 29.7186 3.33334H27.5231C27.2475 3.33334 27.101 3.64475 27.285 3.84069C27.524 4.09524 27.8142 4.40578 28.0568 4.6892Z" fill="#F47721"/>
</svg>
