<svg xmlns="http://www.w3.org/2000/svg" width="166" height="129" fill="none" viewBox="0 0 166 129"><path fill="#394149" d="M12.944 41.057c-1.024-2.608-.58-5.607.363-8.13.993-2.654 2.72-5.3 5.303-6.696.128 2.797-.724 5.56-1.656 8.052-.837 2.24-1.865 4.628-3.562 6.482a51 51 0 0 0-.601 4.199 10.65 10.65 0 0 1 2.612-3.895c1.465-1.39 3.645-2.462 5.69-1.828-.599 2.267-1.965 4.44-3.582 5.964-1.273 1.2-2.954 2.737-4.934 2.798a49 49 0 0 0 .133 6.09c.28-1.468.878-2.85 1.742-3.879 1.188-1.414 2.95-3.141 5.199-2.852-.123 2.294-1.036 4.644-2.308 6.41-1.01 1.404-2.344 3.193-4.237 3.655a48 48 0 0 0 1.261 5.804c.005-1.452.325-2.877.96-4.02.894-1.611 2.287-3.621 4.54-3.778.33 2.25-.118 4.71-1.02 6.668-.721 1.564-1.682 3.559-3.435 4.384a48 48 0 0 0 2.605 5.937c-.35-1.65-.336-3.388.079-4.952.571-2.156 1.99-4.421 4.269-5.079.805 2.38.694 5.037.226 7.457-.385 1.992-1.142 4.332-2.837 5.626a48 48 0 0 0 3.672 5.152c-.718-1.607-1.075-3.363-.884-4.971.28-2.343.936-4.849 3.323-6.098 1.355 2.343 1.669 4.97 1.784 7.566.093 2.098-.209 4.686-1.663 6.393a48.6 48.6 0 0 0 5.168 4.665c-1.19-1.53-2.023-3.326-2.2-5.101-.249-2.509-.127-5.27 2.094-7.11 1.9 1.988 3.033 4.916 3.589 7.46.491 2.249 1.004 4.91-.166 7.124a50 50 0 0 0 7.497 4.031c-1.863-1.33-3.388-3.156-4.114-5.04-.952-2.471-1.54-5.415.314-7.89 2.484 1.595 4.31 4.317 5.75 6.8 1.234 2.13 2.512 5.069 1.877 7.605a52 52 0 0 0 4.51 1.31l-.092.379a53 53 0 0 1-4.527-1.314c-1.03 3.054-4.409 4.063-7.14 4.509-3.893.634-8.527-.596-11.85-3.073 1.754-2.484 5.332-2.736 8.03-2.926l.035-.003a28.9 28.9 0 0 1 9.126.844 50.4 50.4 0 0 1-9.61-4.894l-.044.07c-1.623 2.638-4.883 2.74-7.442 2.574-3.472-.227-7.48-2.343-9.8-5.268 2.182-1.919 5.405-1.382 7.903-.965l.012.002c2.787.464 5.833 1.477 8.39 3.037a12 12 0 0 1-.714-.609 49 49 0 0 1-6.86-5.93l-.073.072c-2.023 2.04-4.97 1.506-7.27.842-3.077-.888-6.269-3.568-7.798-6.646 2.37-1.33 5.204-.234 7.408.634 2.419.952 4.978 2.475 6.946 4.417a12 12 0 0 1-.58-.802 48.7 48.7 0 0 1-4.92-6.622l-.073.045c-2.289 1.48-4.882.408-6.937-.646-2.787-1.43-5.027-4.571-5.994-7.66 2.472-.794 4.914.764 6.813 1.997 2.077 1.35 4.18 3.274 5.624 5.48q-.16-.326-.296-.666a48.6 48.6 0 0 1-3.52-7.615l-.049.017-.004.002c-2.081.793-4.399-.44-5.91-1.792-2.1-1.88-3.58-4.768-3.927-7.59 2.17-.282 4.214 1.4 5.612 2.836 1.609 1.651 3.053 3.604 3.94 5.772a10 10 0 0 1-.167-.716 49 49 0 0 1-1.823-7.661l-.031.004-.011.002c-2.2.368-4.234-1.309-5.45-2.936-1.705-2.283-2.584-5.444-2.364-8.308 2.192.154 3.86 2.244 4.943 3.934 1.253 1.957 2.291 4.172 2.746 6.489a9 9 0 0 1-.025-.556 49.6 49.6 0 0 1-.344-8.135h-.006c-2.237-.08-3.89-2.163-4.744-4.01-1.221-2.642-1.418-5.982-.603-8.797 2.132.6 3.321 3.051 4.023 4.938.808 2.176 1.373 4.549 1.377 6.908q.174-2.971.709-5.977m44.058-4.883v9.45c0 4.156-3.756 6.156-9.448 6.156-5.32 0-9.134-1.98-9.134-6.646v-8.96h5.3v8.96c0 1.666 1.428 2.705 4.05 2.705 2.503 0 3.99-1.078 3.99-2.686v-8.979zm17.653 11.293v4.097h-14.65v-15.39h5.3v11.293zm15.753-7.431v-3.862H72.081v3.862h6.474v11.528h5.36V40.036z"/><path fill="#394149" fill-rule="evenodd" d="M109.21 37.743c.704.725 1.038 1.725 1.038 3.117 0 1.196-.293 2.215-.783 2.901-.548.745-1.389 1.373-2.426 1.53l4.637 6.273h-5.829l-3.815-5.43h-4.753v5.43h-5.222v-15.39h12.225c2.425 0 4.01.588 4.928 1.569m-4.224 4.41c.137-.235.176-.548.176-.803 0-.294-.039-.608-.176-.804-.274-.51-.822-.647-1.644-.647h-6.043v2.804h6.141c.842 0 1.351-.157 1.546-.55m13.746 6.568h8.293l1.349 2.843h5.654l-7.746-15.39h-6.317l-8.195 15.39h5.534zm6.63-3.45h-4.909l1.937-3.705.587-1.412.548 1.392zm-16.711 9.191c-3.281 0-5.007 1.56-5.007 3.85 0 2.585 1.811 3.897 5.007 3.897 3.518 0 4.998-1.52 4.998-3.897 0-2.414-1.67-3.85-4.998-3.85m0 5.836c-1.868 0-2.409-.77-2.409-1.958 0-1.169.588-1.939 2.399-1.939 1.983 0 2.427.865 2.427 1.94 0 1.14-.539 1.957-2.417 1.957" clip-rule="evenodd"/><path fill="#394149" d="M98.78 62.095v-4.42h-4.95v1.607h2.646a1.2 1.2 0 0 1-.237.503c-.275.324-1.005.609-1.954.609-.986 0-1.621-.257-1.962-.656-.228-.295-.36-.713-.36-1.34 0-.656.132-1.103.388-1.398.37-.418.996-.598 1.915-.598.825 0 1.394.19 1.66.427.17.143.303.343.332.476h2.456a2.6 2.6 0 0 0-.218-.894c-.588-1.197-1.954-1.91-4.277-1.91-2.02 0-3.376.617-4.125 1.549-.493.637-.72 1.435-.72 2.329 0 .988.265 1.834.701 2.395.74.96 2.058 1.435 3.641 1.435 1.394 0 2.352-.333 2.959-.836l.066.722zM72.949 57.58c1.925.21 2.75.894 2.75 2.196 0 1.578-1.537 2.433-4.562 2.433-2.816 0-4.03-.798-4.495-1.844-.104-.247-.151-.551-.18-.741h2.731a.94.94 0 0 0 .18.399c.228.276.863.437 1.944.437 1.395 0 1.726-.2 1.726-.57 0-.4-.341-.485-1.602-.618-.503-.047-1.3-.123-1.631-.152-2.409-.219-3.3-.97-3.3-2.253 0-1.33 1.574-2.347 4.447-2.347 2.551 0 3.736.76 4.23 1.71.151.286.246.609.275.837H72.73a.63.63 0 0 0-.151-.342c-.209-.276-.74-.456-1.688-.456-1.337 0-1.688.161-1.688.503 0 .38.446.466 1.934.628.579.047 1.499.142 1.812.18"/><path fill="#394149" fill-rule="evenodd" d="M45.724 55.27c.502.4.787 1.075.787 2.054 0 .798-.2 1.397-.579 1.815-.512.59-1.356.855-2.456.865-.341.01-3.262 0-3.262 0v2.09h-2.55v-7.46h5.774c1.024 0 1.802.209 2.286.637m-1.887 2.633c.075-.133.113-.304.113-.541 0-.248-.047-.457-.133-.57-.16-.238-.464-.352-.957-.352h-2.665v1.825h2.646c.53 0 .844-.124.995-.362m12.006-2.51c.342.352.503.837.503 1.511 0 .58-.143 1.074-.38 1.407-.265.361-.673.665-1.176.742l2.248 3.04h-2.826l-1.85-2.632h-2.303v2.633h-2.532v-7.461h5.926c1.176 0 1.944.285 2.39.76m-2.048 2.139a.8.8 0 0 0 .085-.39c0-.142-.019-.295-.085-.39-.133-.247-.398-.313-.797-.313h-2.93v1.359h2.978c.407 0 .654-.076.749-.266" clip-rule="evenodd"/><path fill="#394149" d="M65.693 62.095v-1.853h-5.338v-.97h5.12v-1.815h-5.12v-.96h5.272v-1.863h-7.776v7.46zm19.233-5.589v-1.872h-8.885v1.872h3.139v5.589h2.598v-5.589zm3.417-1.872v7.46h-2.608v-7.46zm14.271 0v7.46h-2.609v-7.46zm21.096 0v4.581c0 2.015-1.821 2.985-4.58 2.985-2.579 0-4.429-.96-4.429-3.223v-4.343h2.571v4.343c0 .808.691 1.312 1.963 1.312 1.213 0 1.934-.523 1.934-1.302v-4.353zm10.238 5.142c0-1.302-.826-1.987-2.75-2.196a65 65 0 0 0-1.811-.18c-1.49-.162-1.936-.247-1.936-.628 0-.342.351-.503 1.689-.503.948 0 1.48.18 1.687.456a.63.63 0 0 1 .152.342h2.732a2.6 2.6 0 0 0-.276-.836c-.493-.95-1.678-1.711-4.229-1.711-2.873 0-4.448 1.017-4.448 2.347 0 1.284.893 2.034 3.301 2.253l.154.014.258.023 1.219.115c1.261.133 1.602.219 1.602.618 0 .37-.331.57-1.725.57-1.081 0-1.716-.161-1.945-.437a.9.9 0 0 1-.179-.4h-2.732c.029.19.076.495.181.742.464 1.046 1.677 1.844 4.495 1.844 3.025 0 4.561-.855 4.561-2.433"/><path fill="#394149" fill-rule="evenodd" d="M67.635 64.952c-2.132 0-3.254 1.013-3.254 2.502 0 1.68 1.177 2.532 3.254 2.532 2.287 0 3.248-.988 3.248-2.532 0-1.57-1.084-2.502-3.248-2.502m0 3.793c-1.214 0-1.565-.5-1.565-1.273 0-.76.382-1.26 1.56-1.26 1.287 0 1.577.562 1.577 1.26 0 .741-.351 1.273-1.572 1.273" clip-rule="evenodd"/><path fill="#394149" d="M55.777 68.405c0-.847-.536-1.291-1.788-1.427a42 42 0 0 0-1.177-.117c-.967-.106-1.257-.161-1.257-.408 0-.223.228-.328 1.097-.328.617 0 .962.118 1.097.297a.4.4 0 0 1 .099.222h1.775a1.7 1.7 0 0 0-.179-.543c-.32-.618-1.09-1.112-2.749-1.112-1.867 0-2.89.66-2.89 1.525 0 .835.58 1.323 2.145 1.465.215.018.733.067 1.06.098.82.087 1.041.142 1.041.402 0 .24-.216.37-1.122.37-.702 0-1.115-.105-1.263-.284a.6.6 0 0 1-.117-.259h-1.775c.018.124.05.321.117.482.302.68 1.091 1.198 2.921 1.198 1.966 0 2.965-.556 2.965-1.581"/><path fill="#394149" fill-rule="evenodd" d="M43.471 68.54c0 .334-.092.662-.277.878-.284.346-.814.494-1.498.494h-4.295v-4.85h4.178c.666 0 1.091.162 1.325.402.21.21.302.488.302.803s-.074.575-.234.766a.93.93 0 0 1-.585.316c.345.043.671.216.856.456.154.18.228.451.228.736m-2.077-1.698a.42.42 0 0 0 .099-.284.36.36 0 0 0-.117-.284c-.087-.08-.247-.112-.481-.112h-1.88v.791h1.923c.21 0 .37-.03.456-.111m-.277 1.97c.29 0 .462-.037.56-.13.062-.061.087-.154.087-.271 0-.124-.03-.216-.105-.29-.092-.08-.252-.118-.523-.118h-2.12v.81z" clip-rule="evenodd"/><path fill="#394149" d="M49.274 68.708v1.204h-5.096v-4.85h5.053v1.212h-3.427v.623h3.328v1.18h-3.328v.63zm12.5-3.645v1.217h-2.046v3.632h-1.689V66.28H56v-1.217zm14.749 0v1.23h-3.285v.685h3.131v1.217h-3.13v1.717H71.58v-4.85zm8.351 1.217v-1.217h-5.775v1.217h2.04v3.632h1.689V66.28zm6.3-1.217v4.849h-1.652v-1.76h-2.477v1.76h-1.652v-4.85h1.652v1.767h2.477v-1.766zm6.075 4.849v-1.205h-3.47v-.63h3.328v-1.18H93.78v-.623h3.427v-1.211h-5.054v4.849zm10.218-4.849h1.595l-1.768 4.849h-1.811s-.969-2.897-.975-2.978c-.005.08-.98 2.978-.98 2.978h-1.805l-1.812-4.85h1.792s1.049 3.052 1.049 3.127c0-.075.967-3.126.967-3.126h1.733s.973 3.051.973 3.126c0-.075 1.042-3.126 1.042-3.126"/><path fill="#394149" fill-rule="evenodd" d="M112.227 64.952c-2.132 0-3.254 1.013-3.254 2.502 0 1.68 1.177 2.532 3.254 2.532 2.287 0 3.248-.988 3.248-2.532 0-1.57-1.085-2.502-3.248-2.502m0 3.793c-1.213 0-1.565-.5-1.565-1.273 0-.76.382-1.26 1.559-1.26 1.289 0 1.578.562 1.578 1.26 0 .741-.352 1.273-1.572 1.273m9.351-3.188c.221.229.326.544.326.982 0 .377-.092.698-.247.915a1.18 1.18 0 0 1-.764.481l1.46 1.977h-1.835l-1.203-1.711h-1.497v1.711h-1.645v-4.85h3.851c.764 0 1.264.186 1.554.495m-1.331 1.39a.54.54 0 0 0 .055-.253.5.5 0 0 0-.055-.254c-.087-.16-.26-.203-.519-.203h-1.903v.883h1.934c.265 0 .425-.05.488-.173" clip-rule="evenodd"/><path fill="#394149" d="M127.499 69.912v-1.291h-2.946v-3.558h-1.669v4.849z"/><path fill="#394149" fill-rule="evenodd" d="M134.035 67.398c0 .754-.075 1.161-.295 1.544-.334.612-.993.97-2.158.97h-3.427v-4.85h3.39c1.158 0 1.843.328 2.182.89.24.377.308.779.308 1.446m-2.768 1.322c.524 0 .821-.124 1-.395.111-.167.141-.556.141-.896-.006-.31-.043-.636-.141-.785-.192-.29-.481-.395-.987-.395h-1.473v2.47z" clip-rule="evenodd"/><path fill="#394149" d="M67.923 93.496h-2.554s-1.666 4.883-1.666 5.001c0-.118-1.558-5-1.558-5h-2.771s-1.548 4.882-1.548 5c0-.118-1.677-5-1.677-5h-2.87l2.9 7.758h2.889s1.558-4.636 1.568-4.764c.01.128 1.558 4.764 1.558 4.764h2.899zm3.495 7.759v-7.759h-2.712v7.759zm10.547-7.759v7.759h-2.643l-3.835-4.32v4.32h-2.544v-7.759h2.78l3.718 4.22v-4.22zm10.564 7.759v-7.759h-2.525v4.22l-3.717-4.22h-2.78v7.759h2.543v-4.32l3.836 4.32zm9.696-1.928v1.928H94.07v-7.759h8.086v1.937h-5.483v.999h5.325v1.887h-5.325v1.008z"/><path fill="#394149" fill-rule="evenodd" d="M112.648 95.858c0-.702-.168-1.205-.522-1.571-.465-.494-1.262-.79-2.486-.79h-6.162v7.758h2.633v-2.738h2.397l1.922 2.738h2.938l-2.337-3.163c.523-.08.946-.395 1.224-.771.245-.346.393-.86.393-1.463m-2.564.247c0 .129-.02.287-.089.406-.098.197-.355.276-.778.276h-3.096v-1.413h3.046c.414 0 .691.07.828.326.069.099.089.257.089.405" clip-rule="evenodd"/><path fill="#394149" d="m60.05 79.808-1.07-3.299-1.07 3.299h-3.46l2.8 2.039-1.07 3.299 2.8-2.04 2.8 2.04-1.07-3.3 2.8-2.038zm11.276-3.301 1.091 3.299h3.531l-2.856 2.039 1.09 3.299-2.856-2.039-2.857 2.039 1.091-3.299-2.857-2.039h3.532zm13.339 3.299-1.091-3.299-1.091 3.299H78.95l2.857 2.039-1.091 3.299 2.857-2.039 2.857 2.039-1.092-3.299 2.857-2.039zm11.157-3.299 1.091 3.299h3.532l-2.857 2.039 1.091 3.299-2.857-2.039-2.857 2.039 1.091-3.299-2.856-2.039h3.53zm13.416 3.299-1.07-3.299-1.071 3.299h-3.46l2.8 2.039-1.069 3.299 2.8-2.039 2.799 2.039-1.069-3.299 2.8-2.039zm44.897-38.677c1.023-2.609.579-5.608-.364-8.13-.993-2.654-2.721-5.301-5.303-6.697-.129 2.797.724 5.56 1.656 8.052.838 2.24 1.864 4.628 3.561 6.482q.391 2.107.601 4.198a10.64 10.64 0 0 0-2.61-3.893c-1.465-1.39-3.646-2.462-5.691-1.828.599 2.266 1.964 4.44 3.583 5.964 1.273 1.2 2.954 2.737 4.933 2.797a49 49 0 0 1-.134 6.09c-.279-1.467-.877-2.85-1.742-3.878-1.188-1.414-2.949-3.142-5.198-2.852.123 2.294 1.037 4.644 2.308 6.41 1.009 1.404 2.343 3.193 4.237 3.655a48 48 0 0 1-1.262 5.803c-.005-1.451-.324-2.876-.959-4.019-.894-1.611-2.288-3.622-4.54-3.779-.33 2.251.118 4.711 1.02 6.668.721 1.564 1.683 3.56 3.435 4.384a48 48 0 0 1-2.606 5.938c.351-1.65.337-3.388-.077-4.953-.573-2.156-1.991-4.421-4.27-5.078-.806 2.38-.694 5.037-.225 7.456.385 1.992 1.141 4.332 2.836 5.626a48 48 0 0 1-3.674 5.155c.72-1.607 1.076-3.364.884-4.973-.278-2.343-.934-4.85-3.321-6.098-1.356 2.343-1.67 4.97-1.784 7.566-.094 2.098.208 4.686 1.663 6.393a49 49 0 0 1-5.167 4.664c1.189-1.53 2.023-3.325 2.198-5.1.25-2.51.129-5.27-2.093-7.112-1.899 1.989-3.033 4.918-3.588 7.461-.491 2.249-1.004 4.91.165 7.124a50 50 0 0 1-7.498 4.033c1.863-1.331 3.388-3.157 4.115-5.042.952-2.47 1.54-5.415-.313-7.89-2.485 1.596-4.311 4.317-5.75 6.8-1.235 2.13-2.513 5.07-1.878 7.606q-2.2.749-4.509 1.31l.092.379a53 53 0 0 0 4.525-1.314c1.032 3.054 4.41 4.063 7.141 4.508 3.892.635 8.528-.595 11.851-3.072-1.755-2.484-5.333-2.736-8.031-2.927l-.036-.002a28.8 28.8 0 0 0-9.125.844 50.4 50.4 0 0 0 9.611-4.895l.04.065c1.623 2.643 4.885 2.746 7.444 2.58 3.473-.227 7.481-2.343 9.8-5.268-2.182-1.919-5.403-1.382-7.901-.966l-.013.002c-2.787.465-5.831 1.477-8.387 3.037q.364-.288.712-.608a49 49 0 0 0 6.858-5.93l.087.086c2.024 2.024 4.962 1.49 7.257.828 3.078-.889 6.269-3.57 7.799-6.646-2.371-1.331-5.204-.235-7.408.633-2.422.953-4.983 2.478-6.952 4.423q.305-.386.582-.803a49 49 0 0 0 4.923-6.627l.063.039.016.01c2.287 1.475 4.879.404 6.932-.65 2.786-1.429 5.027-4.57 5.994-7.66-2.473-.794-4.914.764-6.813 1.998-2.079 1.35-4.184 3.275-5.628 5.484q.161-.327.298-.668a48.5 48.5 0 0 0 3.52-7.617l.05.017.008.003c2.081.79 4.397-.443 5.907-1.794 2.098-1.879 3.58-4.768 3.926-7.59-2.169-.282-4.214 1.401-5.612 2.836-1.608 1.653-3.054 3.606-3.942 5.776q.1-.355.169-.72a49 49 0 0 0 1.823-7.66l.061.008c2.192.356 4.22-1.316 5.432-2.939 1.705-2.283 2.583-5.443 2.362-8.308-2.19.154-3.86 2.244-4.941 3.935-1.254 1.958-2.293 4.174-2.748 6.492a9 9 0 0 0 .026-.559 49.5 49.5 0 0 0 .343-8.135c2.239-.079 3.897-2.162 4.751-4.01 1.22-2.642 1.417-5.982.603-8.797-2.132.6-3.321 3.051-4.023 4.938-.809 2.176-1.373 4.549-1.378 6.908a51 51 0 0 0-.707-5.977"/></svg>