<svg xmlns="http://www.w3.org/2000/svg" width="166" height="128" fill="none" viewBox="0 0 166 128"><path fill="#394149" d="M150.509 29.648c1.555 2.326 3.047 5.195 2.314 8.27-2.533-1.452-4.57-3.82-6.185-6.159-1.627-2.354-3.316-4.857-3.895-7.759 3.195.818 6.055 3.088 7.766 5.648M13.203 37.912c-.732-3.075.764-5.943 2.321-8.267 1.715-2.559 4.575-4.827 7.77-5.642-.58 2.9-2.272 5.403-3.9 7.756-1.617 2.337-3.657 4.704-6.19 6.153"/><path fill="#394149" d="M10.974 43.811c.571-2.435.559-5.101.015-7.385-.479-2.008-1.175-4.845-3.466-5.803-1.665 2.674-2.334 6.314-1.364 9.042.702 1.973 1.964 4.582 4.581 4.986 2.402.554 4.83-.728 6.748-1.787 2.133-1.177 4.221-3.05 5.49-5.275-2.328-1.176-4.979-.222-6.974.693-2.15.986-4.125 3.102-5.03 5.53M57.58 46.15V33.925h-4.17v4.455h-6.256v-4.455h-4.17v12.227h4.17v-4.44h6.256v4.44zm13.83-12.226h4.606l-6.536 8.193v4.034h-4.186v-4.019l-6.458-8.208h4.746l3.86 4.89z"/><path fill="#394149" fill-rule="evenodd" d="M90.54 34.968c.826.654 1.292 1.76 1.292 3.364 0 1.308-.326 2.29-.949 2.975-.84.965-2.225 1.401-4.03 1.417-.56.016-5.353 0-5.353 0v3.427h-4.186V33.924h9.477c1.68 0 2.956.343 3.75 1.044m-3.096 4.314c.125-.218.187-.498.187-.888 0-.405-.078-.747-.218-.934-.264-.39-.763-.577-1.572-.577H81.47v2.99h4.341c.872 0 1.385-.202 1.634-.591" clip-rule="evenodd"/><path fill="#394149" d="M106.368 43.113v3.038h-12.87V33.924h12.762v3.053h-8.653v1.573h8.403v2.975h-8.403v1.588z"/><path fill="#394149" fill-rule="evenodd" d="M121.993 35.17c.561.576.824 1.37.824 2.477 0 .95-.232 1.76-.622 2.305-.435.592-1.105 1.09-1.929 1.215l3.688 4.983h-4.638l-3.034-4.314h-3.781v4.315h-4.155V33.924h9.726c1.929 0 3.19.467 3.921 1.246m-3.362 3.505c.11-.187.14-.437.14-.64 0-.233-.03-.482-.14-.638-.217-.405-.652-.514-1.307-.514h-4.807v2.228h4.885c.67 0 1.074-.125 1.229-.436" clip-rule="evenodd"/><path fill="#394149" d="M104.139 61.485c0-2.794-1.774-4.263-5.911-4.712a138 138 0 0 0-3.893-.388c-3.2-.346-4.158-.53-4.158-1.346 0-.734.754-1.081 3.628-1.081 2.038 0 3.18.387 3.628.979.224.285.306.51.326.734h5.87c-.061-.49-.265-1.183-.591-1.795-1.06-2.04-3.608-3.672-9.09-3.672-6.177 0-9.56 2.183-9.56 5.039 0 2.754 1.916 4.365 7.093 4.835.586.05 1.843.169 2.872.266l.064.006.011.001h.005l.554.053c2.71.286 3.445.47 3.445 1.326 0 .796-.714 1.224-3.71 1.224-2.324 0-3.69-.347-4.178-.938a2 2 0 0 1-.388-.857h-5.87c.061.408.163 1.06.387 1.591 1 2.244 3.608 3.958 9.662 3.958 6.502 0 9.804-1.836 9.804-5.223"/><path fill="#394149" fill-rule="evenodd" d="M62.525 64.831c.611-.714.917-1.795.917-2.897 0-.938-.245-1.836-.754-2.427-.612-.796-1.692-1.367-2.834-1.51.775-.102 1.509-.51 1.937-1.04.53-.633.774-1.49.774-2.53s-.305-1.958-.998-2.652c-.775-.796-2.181-1.326-4.383-1.326H43.365v16.014h14.207c2.262 0 4.015-.49 4.953-1.632m-5.626-9.445c0 .387-.122.714-.326.938-.285.265-.816.367-1.508.367h-6.36v-2.61h6.217c.774 0 1.304.101 1.59.366.265.225.387.551.387.939m.611 7.017c-.326.306-.896.429-1.854.429h-6.95V60.16h7.01c.898 0 1.428.122 1.733.387.245.245.347.55.347.959 0 .388-.082.694-.285.898" clip-rule="evenodd"/><path fill="#394149" d="M82.634 62.485v3.978H65.777V50.45h16.714v3.999H71.158v2.06h11.007v3.896H71.158v2.081zm41.339-8.017v-4.019h-19.098v4.019h6.747v11.995h5.583V54.468zm-.484 26.166h-.899l-.064-.866c-.274.438-.855.964-2.081.964-2.071 0-3.033-1.25-3.033-4.44 0-2.465.612-4.45 3.141-4.45 2.192 0 2.86 1.437 2.892 2.982h-1.095c-.032-1.008-.482-1.94-1.774-1.94-1.555 0-2.005.932-2.005 3.442 0 2.62.56 3.442 2.028 3.442 1.029 0 1.63-.57 1.829-1.25v-1.633h-2.213v-.998h3.262v2.522c0 .753.008 1.557.01 1.961l.002.192z"/><path fill="#394149" fill-rule="evenodd" d="M43.572 78.452h3.066l.635 2.181h1.161l-2.54-8.68H44.48l-2.717 8.68h1.15zm2.792-.975h-2.497s1.084-3.508 1.106-3.585c.011-.055.187-.833.187-.833l.12.576.055.257c.01.055 1.03 3.585 1.03 3.585" clip-rule="evenodd"/><path fill="#394149" d="M56.747 71.952h1.051l-2.048 8.681h-1.303s-1.457-6.752-1.457-7.037c-.01.285-1.5 7.037-1.5 7.037h-1.303l-2.048-8.68h1.182s1.588 6.872 1.588 7.146c0-.274 1.457-7.147 1.457-7.147h1.303s1.457 6.884 1.457 7.147c0-.263 1.62-7.147 1.62-7.147"/><path fill="#394149" fill-rule="evenodd" d="M62.296 78.452h-3.067l-.657 2.181h-1.15l2.716-8.68h1.413l2.541 8.68h-1.16zm-2.771-.975h2.497s-1.018-3.53-1.03-3.585l-.082-.395-.093-.438s-.175.778-.186.833c-.022.077-1.106 3.585-1.106 3.585m8.788-5.525c1.336 0 2.059.625 2.059 2.444 0 1.546-.58 2.061-1.183 2.236l1.665 4.001h-1.205l-1.544-3.781h-2.103v3.781h-1.096v-8.68zm-.165 3.913c.865 0 1.074-.45 1.074-1.436 0-1.118-.329-1.457-1.128-1.457h-2.081v2.893zm9.515.285c0 2.05-.153 2.883-.591 3.508-.438.603-1.128.975-2.245.975h-2.98v-8.68h2.903c1.095 0 1.95.328 2.344.92.438.636.57 1.425.57 3.277m-3.066 3.453c.668 0 1.227-.175 1.511-.559.307-.416.394-1.26.394-2.894 0-1.37-.076-2.104-.394-2.576-.296-.405-.865-.58-1.533-.58h-1.621v6.61z" clip-rule="evenodd"/><path fill="#394149" d="M89.218 71.952h1.051l-2.048 8.681h-1.303s-1.457-6.752-1.457-7.037c-.01.285-1.5 7.037-1.5 7.037h-1.303l-2.048-8.68h1.182s1.588 6.872 1.588 7.146c0-.274 1.457-7.147 1.457-7.147h1.303s1.457 6.884 1.457 7.147c0-.263 1.62-7.147 1.62-7.147m2.989 0v8.681h-1.14v-8.68zm7.13 0v8.681h-1.26l-3.23-6.73v6.73h-1.063v-8.68h1.325l3.154 6.63v-6.63zm7.101 0v8.681h-1.259l-3.231-6.73v6.73h-1.062v-8.68h1.325l3.155 6.63v-6.63zm2.688 0v8.681h-1.138v-8.68zm7.131 0v8.681h-1.26l-3.23-6.73v6.73h-1.063v-8.68h1.326l3.154 6.63v-6.63zM55.901 97.744l-1.255-3.866-1.255 3.866h-4.06l3.285 2.389-1.255 3.866 3.286-2.389 3.285 2.389-1.255-3.866 3.286-2.39zm14.514.001-1.28-3.866-1.281 3.866H63.71l3.353 2.389L65.782 104l3.353-2.389L72.488 104l-1.281-3.866 3.353-2.39zm14.375 0-1.28-3.866-1.281 3.866h-4.144l3.352 2.389-1.28 3.866 3.352-2.389L86.862 104l-1.28-3.866 3.352-2.39zm14.374 0-1.28-3.866-1.281 3.866h-4.144l3.352 2.389-1.28 3.866 3.352-2.389 3.353 2.389-1.28-3.866 3.352-2.39zm14.463 0-1.254-3.866-1.256 3.866h-4.061l3.285 2.389-1.254 3.866 3.286-2.389 3.285 2.389-1.256-3.866 3.287-2.39zM3.579 50.383c1.181 1.803 3.009 4.062 5.673 3.997 2.423.121 4.517-1.534 6.165-2.915 1.776-1.488 3.378-3.663 4.055-6.015-2.479-.722-4.851.615-6.62 1.876-1.848 1.317-3.27 3.727-3.575 6.202-.023-2.48-.693-5.04-1.774-7.103-.988-1.886-2.365-4.435-4.822-4.945-.968 2.935-.66 6.525.898 8.903"/><path fill="#394149" d="M10.04 64.092c-2.472.415-4.885-1.101-6.451-2.885C1.572 58.91.37 55.829.616 52.745c2.54.064 4.465 2.262 5.887 3.925 1.532 1.79 2.787 4.145 3.389 6.574-.265-2.421.547-5.035 2.055-6.651 1.455-1.56 3.494-3.259 6.03-2.986-.055 2.455-1.284 4.794-2.552 6.546-1.183 1.632-3.004 3.652-5.384 3.94"/><path fill="#394149" d="M5.472 72.25c2.278 1.484 5.04 2.953 7.943 1.842 2.382-.844 3.896-3.243 4.828-5.445.986-2.334 1.645-5.025 1.189-7.579-2.617.233-4.787 2.107-5.94 4.394-1.205 2.392-1.436 5.239-.51 7.746-1.368-2.58-3.368-4.666-5.487-6.595-1.926-1.753-4.7-3.6-7.495-3.253.532 3.458 2.64 7.045 5.472 8.89"/><path fill="#394149" d="M19.282 83.439c2.241-1.341 3.143-4.163 3.512-6.58.397-2.608.38-5.484-.702-7.958-2.6.727-4.385 3.07-4.974 5.635a10.3 10.3 0 0 0 1.417 7.907c-2.013-2.311-4.69-4.22-7.256-5.559-2.479-1.293-5.52-2.852-8.496-1.91 1.436 3.505 4.506 6.77 7.909 8.12 2.635 1.044 5.84 2.078 8.59.345"/><path fill="#394149" d="M29.908 84.347c.329 2.517.32 5.709-1.633 7.646-2.44 2.5-6.216 2.017-9.128 1.468-3.91-.74-8.312-3.408-10.67-6.962 2.88-1.588 6.404-.572 9.256.25l.163.047c3.184.917 6.577 2.393 9.414 4.41-2.264-2.047-3.914-5.053-3.995-8.082-.073-2.71 1.102-5.61 3.631-6.9 1.766 2.318 2.593 5.296 2.962 8.123"/><path fill="#394149" d="M41.24 99.12c1.437-2.74.012-5.954-1.123-8.33-1.342-2.81-3.176-5.673-5.8-7.73-2.52 2.174-2.28 5.284-1.531 7.987.89 3.214 3.98 5.954 7.177 7.515-3.704-1.382-7.749-2.212-11.597-2.457l-.39-.025c-3.092-.202-7.117-.464-9.581 1.8 3.725 3.17 9.016 4.998 13.68 4.903 3.125-.063 7.413-.433 9.164-3.663m113.808-55.3c-.902-2.43-2.877-4.548-5.026-5.536-1.995-.916-4.645-1.872-6.973-.698 1.267 2.227 3.353 4.1 5.485 5.28 1.916 1.06 4.342 2.343 6.745 1.791 2.617-.401 3.883-3.01 4.586-4.983.974-2.726.308-6.367-1.354-9.042-2.292.956-2.992 3.793-3.471 5.8-.546 2.285-.562 4.951.008 7.388"/><path fill="#394149" d="M153.165 47.33c1.846 1.318 3.263 3.727 3.567 6.2.027-2.478.7-5.036 1.782-7.097.989-1.885 2.37-4.433 4.827-4.941.964 2.935.652 6.525-.908 8.902-1.18 1.8-3.007 4.054-5.667 3.993-2.426.124-4.522-1.535-6.171-2.919-1.775-1.49-3.375-3.666-4.048-6.019 2.478-.72 4.849.62 6.618 1.881"/><path fill="#394149" d="M156.108 63.26c.27-2.423-.539-5.043-2.048-6.662-1.453-1.56-3.49-3.261-6.027-2.99.052 2.455 1.279 4.795 2.546 6.548 1.181 1.632 2.998 3.651 5.378 3.943 2.474.419 4.889-1.097 6.459-2.88 2.018-2.296 3.221-5.376 2.981-8.46-2.542.063-4.468 2.259-5.892 3.92-1.536 1.791-2.794 4.149-3.397 6.581"/><path fill="#394149" d="M152.507 65.467c1.203 2.393 1.431 5.24.503 7.747 1.369-2.58 3.372-4.665 5.492-6.593 1.928-1.751 4.704-3.596 7.498-3.246-.533 3.457-2.646 7.043-5.479 8.886-2.278 1.48-5.037 2.946-7.937 1.839-2.385-.842-3.9-3.246-4.831-5.453-.985-2.334-1.641-5.025-1.182-7.579 2.616.235 4.786 2.11 5.936 4.399"/><path fill="#394149" d="M147.451 82.44a10.3 10.3 0 0 0 1.422-7.902c-.586-2.566-2.37-4.91-4.97-5.639-1.084 2.473-1.103 5.349-.71 7.957.367 2.413 1.264 5.23 3.492 6.575 2.752 1.747 5.965.714 8.604-.331 3.404-1.348 6.478-4.61 7.915-8.114-2.975-.944-6.016.613-8.496 1.904-2.565 1.336-5.243 3.241-7.257 5.55"/><path fill="#394149" d="M136.072 84.339c-.331 2.517-.325 5.709 1.627 7.648 2.436 2.501 6.213 2.022 9.126 1.474 3.911-.736 8.315-3.403 10.677-6.954-2.879-1.59-6.404-.577-9.257.243l-.164.047c-3.183.914-6.577 2.387-9.416 4.402 2.266-2.046 3.917-5.05 4.001-8.078.075-2.71-1.097-5.61-3.624-6.903-1.769 2.317-2.597 5.294-2.97 8.121"/><path fill="#394149" d="M133.888 102.774c-3.125-.066-7.413-.439-9.16-3.67l-.025-.044c-1.396-2.731.023-5.923 1.154-8.286 1.345-2.808 3.181-5.67 5.806-7.724 2.52 2.176 2.276 5.285 1.525 7.988-.895 3.213-3.985 5.95-7.186 7.51 3.706-1.38 7.751-2.207 11.6-2.45l.392-.025c3.092-.199 7.117-.458 9.578 1.808-3.728 3.167-9.02 4.992-13.684 4.893"/></svg>