<svg xmlns="http://www.w3.org/2000/svg" width="160" height="129" fill="none" viewBox="0 0 160 129"><path fill="#394149" d="M53.072 44.335V39.24h-2.849v4.842c0 .866-.807 1.448-2.168 1.448-1.425 0-2.2-.56-2.2-1.46v-4.83h-2.881v4.83c0 2.517 2.073 3.584 4.964 3.584 3.093 0 5.134-1.078 5.134-3.319m9.595 3.203v-2.21h-5.081V39.24h-2.881v8.298zm8.561-6.215V39.24h-9.96v2.083h3.518v6.215H67.7v-6.215zm3.83 6.215V39.24h-2.923v8.298zm13.412 0V39.24h-3.604l-2.275 4.979-2.168-4.979h-3.72v8.298h2.71v-4.482l1.956 4.482h2.424l1.977-4.482v4.482zm4.514-1.533h4.508l.733 1.533h3.072l-4.21-8.298h-3.433L89.2 47.538h3.008zm3.604-1.86H93.92l1.052-1.998.32-.76.297.75zm13.745-2.822V39.24h-9.96v2.083h3.519v6.215h2.912v-6.215zm9.687 6.215v-2.061h-5.983v-1.078h5.738v-2.02h-5.738v-1.067h5.909V39.24h-8.716v8.298zm-55.321 4.411h-2.753s-1.797 5.222-1.797 5.349c0-.127-1.68-5.349-1.68-5.349h-2.986s-1.67 5.222-1.67 5.349c0-.127-1.806-5.349-1.806-5.349h-3.094l3.126 8.298h3.114s1.68-4.958 1.69-5.095c.01.137 1.68 5.095 1.68 5.095h3.125zm3.767 8.298v-8.298h-2.923v8.298zm11.371 0v-8.298h-2.722v4.514l-4.007-4.514H70.11v8.298h2.743v-4.62l4.135 4.62zm11.388 0v-8.298h-2.722v4.514l-4.007-4.514h-2.998v8.298h2.742v-4.62l4.136 4.62zm10.452 0v-2.062h-5.984v-1.078h5.74v-2.019h-5.74v-1.067h5.91v-2.072h-8.717v8.298zm11.238-5.772c0-.75-.182-1.29-.565-1.68-.499-.529-1.36-.846-2.679-.846h-6.643v8.298h2.839v-2.928h2.583l2.073 2.928h3.168l-2.519-3.383c.562-.084 1.02-.423 1.317-.824.266-.37.426-.92.426-1.565m-2.764.264a.9.9 0 0 1-.097.434c-.106.211-.383.296-.839.296h-3.338v-1.512h3.284c.448 0 .746.074.893.35.076.105.097.274.097.432M54.27 68.41v-4.054h-.994v3.99c0 .942-.891 1.477-2.176 1.477-1.517 0-2.263-.575-2.263-1.485v-3.982h-1.004v3.95c0 1.66 1.3 2.395 3.227 2.395 1.99 0 3.21-.782 3.21-2.29m7.142 2.21v-.918H57.07v-5.347h-1.004v6.265zm5.701-5.356v-.91H60.42v.91h2.842v5.356h1.01v-5.356zm7.134.862c0-.447-.096-.774-.264-1.037-.298-.44-.868-.734-1.815-.734h-4.077v6.265h.987v-2.642h2.874l1.757 2.642h1.156l-1.902-2.81a1.39 1.39 0 0 0 1.06-.678c.144-.24.224-.59.224-1.006m-.995.08c0 .176-.04.391-.112.535-.129.231-.426.351-.907.359h-3.147v-1.852h2.962c.602 0 .923.144 1.092.415.072.128.112.343.112.543m3.852 2.866h3.925l.803 1.548h1.076l-3.195-6.265h-1.18l-3.3 6.265h1.052zm3.508-.886h-3.074l1.276-2.403.28-.583.282.583zm12.476 1.835c.248-.287.36-.694.36-1.133 0-.415-.12-.83-.368-1.086a1.87 1.87 0 0 0-1.092-.478c.257-.04.457-.2.594-.368.217-.247.345-.646.345-1.045 0-.423-.128-.806-.401-1.07-.297-.295-.803-.486-1.51-.486h-4.238v6.265h4.552c.85 0 1.444-.215 1.758-.599m-1.197-3.91c0 .279-.088.526-.24.67-.153.167-.41.24-.683.24h-3.21v-1.805h3.026c.369 0 .65.072.842.248a.88.88 0 0 1 .265.646m.322 3.304c-.201.223-.546.335-1.052.335h-3.403v-1.86h3.427c.466 0 .787.096.98.28.176.167.248.383.248.63 0 .256-.056.471-.2.615m8.523 1.206v-.918H95.84v-1.788h4.703v-.91H95.84v-1.74h4.84v-.91h-5.82v6.266zm7.841-1.851c0-1.022-.681-1.55-2.359-1.74-.281-.04-.892-.104-1.221-.144-1.557-.184-2.03-.391-2.03-.926 0-.519.521-.814 2.094-.814 1.22 0 1.847.24 2.16.67.089.12.137.264.16.375h1.075a2.2 2.2 0 0 0-.216-.646c-.433-.742-1.323-1.277-3.179-1.277-2.215-.008-3.13.79-3.13 1.78s.714 1.492 2.569 1.708c.321.04.891.103 1.172.135 1.437.176 1.887.392 1.887.99 0 .55-.515.95-2.16.95-1.349 0-2.071-.24-2.36-.702a1 1 0 0 1-.153-.463h-1.059c.024.287.104.598.249.846.417.758 1.396 1.197 3.291 1.197 2.263 0 3.21-.726 3.21-1.94m7.198-3.504v-.91h-6.694v.91h2.841v5.356h1.012v-5.356zM44.992 76.067c0-.638-.128-1.07-.345-1.397-.305-.47-.9-.718-1.935-.718h-3.981v6.265h.995v-2.043h2.946c.971-.008 1.638-.231 1.99-.742.226-.311.33-.758.33-1.365m-1.011 0c0 .32-.033.559-.137.718-.185.296-.562.48-1.34.48h-2.778v-2.42h2.81c.73 0 1.107.168 1.308.496.096.143.136.407.136.726m8.278 4.15V79.3H47.36v-1.788h4.704v-.91H47.36v-1.74h4.84v-.91h-5.82v6.265zm7.656-4.493c0-.447-.096-.775-.264-1.038-.298-.439-.867-.734-1.815-.734h-4.077v6.265h.987v-2.641h2.874l1.758 2.641h1.155l-1.902-2.81a1.39 1.39 0 0 0 1.06-.677c.144-.24.224-.591.224-1.006m-.995.08c0 .175-.04.39-.112.534-.129.232-.426.352-.907.36h-3.147v-1.852h2.962c.602 0 .923.144 1.092.415.072.127.112.343.112.543m8.437-.942v-.91h-5.603v6.265h.996v-2.665h4.399v-.934h-4.4v-1.756zm4.569-1.022c-1.341 0-2.264.327-2.922 1.014-.554.534-.795 1.277-.795 2.21 0 1.022.313 1.789.891 2.307.618.615 1.565.934 2.825.934 1.3 0 2.312-.319 2.914-.966.522-.526.795-1.276.795-2.282 0-.974-.233-1.716-.787-2.243-.634-.655-1.581-.974-2.922-.974m0 5.571c-.883 0-1.51-.191-1.983-.574-.482-.391-.714-.99-.714-1.756 0-.719.2-1.317.585-1.677.442-.414 1.116-.662 2.103-.662 1.02 0 1.654.24 2.127.654.402.352.578.974.578 1.677 0 .71-.184 1.317-.593 1.684-.474.439-1.14.654-2.104.654m11.241-3.687c0-.447-.096-.775-.264-1.038-.298-.439-.868-.734-1.815-.734h-4.077v6.265h.987v-2.641h2.874l1.758 2.641h1.155l-1.902-2.81a1.39 1.39 0 0 0 1.06-.677c.144-.24.224-.591.224-1.006m-.995.08c0 .175-.04.39-.112.534-.129.232-.426.352-.907.36h-3.147v-1.852h2.962c.602 0 .923.144 1.092.415.072.127.112.343.112.543m10.596 4.413v-6.265h-1.3l-2.593 5.156-2.545-5.156h-1.324v6.265h.955v-4.82l2.376 4.82h1.043l2.433-4.82v4.82zm2.819-1.548h3.925l.802 1.548h1.076l-3.195-6.265h-1.18l-3.299 6.265h1.052zm3.507-.886h-3.074l1.276-2.402.281-.583.281.583zm9.527 2.434v-6.265h-.955v4.869l-4.173-4.87h-1.132v6.266h.971v-4.9l4.206 4.9zm8.66-2.338h-1.045a1.4 1.4 0 0 1-.346.79c-.432.503-1.122.718-2.181.718-.891 0-1.847-.247-2.305-.894-.24-.303-.394-.75-.394-1.42 0-.599.106-1.046.338-1.35.385-.614 1.195-.933 2.337-.933 1.107 0 1.805.303 2.175.726.208.224.329.487.368.798h1.044a2.4 2.4 0 0 0-.385-1.117c-.514-.758-1.462-1.357-3.196-1.357-1.651 0-2.64.527-3.187 1.317-.352.455-.529 1.094-.529 1.908 0 .91.218 1.58.594 2.051.547.742 1.598 1.19 3.187 1.19 1.631 0 2.601-.488 3.084-1.262.272-.375.408-.822.441-1.165m7.183 2.338V79.3h-4.898v-1.788h4.705v-.91h-4.705v-1.74h4.842v-.91h-5.821v6.265zm-73.408 6.225 1.2 3.674h3.885l-3.143 2.27 1.2 3.674-3.142-2.27-3.143 2.27 1.2-3.674-3.143-2.27h3.885zm13.858 0 1.225 3.674H70.1l-3.207 2.27 1.225 3.674-3.207-2.27-3.207 2.27 1.225-3.674-3.207-2.27h3.964zm13.749 0 1.225 3.674h3.964l-3.207 2.27 1.225 3.674-3.207-2.27-3.207 2.27 1.225-3.674-3.207-2.27h3.964zm13.75 0 1.225 3.674h3.964l-3.207 2.27 1.225 3.674-3.207-2.27-3.207 2.27 1.225-3.674-3.207-2.27h3.964zm13.858 0 1.2 3.674h3.885l-3.143 2.27 1.2 3.674-3.142-2.27-3.143 2.27 1.201-3.674-3.143-2.27h3.884zM57.786 24.459l.908 2.778h2.937l-2.376 1.716.908 2.778-2.377-1.717-2.376 1.717.908-2.778-2.377-1.716h2.938zm10.478-.004.927 2.778h2.996l-2.424 1.717.926 2.777-2.425-1.716-2.425 1.716.927-2.777-2.425-1.717h2.997zm10.396 0 .926 2.778h2.997l-2.425 1.717.926 2.777-2.424-1.716-2.425 1.716.926-2.777-2.425-1.717h2.998zm10.396 0 .926 2.778h2.998l-2.425 1.717.926 2.777-2.425-1.716-2.425 1.716.927-2.777-2.425-1.717h2.997zm10.477 0 .908 2.778h2.937l-2.376 1.717.908 2.777-2.377-1.716-2.376 1.716.908-2.777-2.376-1.717h2.937z"/><path fill="#394149" fill-rule="evenodd" d="M15.949 74.455c-4.006-24.92 7.685-49.576 31.088-60.164l.216.472C24.085 25.245 12.492 49.66 16.464 74.373c4.395 27.343 26.578 43.741 53.742 44.531l-.016.519c-27.375-.797-49.8-17.343-54.241-44.968" clip-rule="evenodd"/><path fill="#394149" d="M41.963 20.651c-4.325.098-9.387 2.523-12.374 6.046 2.396 2.212 6.25 1.394 9.023.942 3.958-.646 8.167-1.896 11.902-3.666-1.535-3.251-5.672-3.387-8.551-3.322"/><path fill="#394149" d="M38.562 15.346C36 19.314 32.947 23.258 29.625 26.73c-2.78-2.595-1.102-6.913.032-9.598 2.055-4.865 6.983-9.061 12.134-11.208 1.414 3.199-1.657 6.985-3.23 9.42m-9.114 16.434c-4.05 1.432-7.53 5.461-9.277 9.507 2.912 1.346 6.223-.598 8.645-1.892 3.325-1.778 6.718-4.23 9.387-7.07-2.412-2.53-6.074-1.492-8.755-.545"/><path fill="#394149" d="M24.539 27.814a61.5 61.5 0 0 1-4.325 13.492c-3.407-1.598-3.278-6.175-3.132-9.087.25-4.971 3.046-10.64 6.94-14.242 2.384 2.54 1.081 6.953.517 9.837m-2.884 18.33c-3.374 2.647-5.42 7.553-5.893 11.934 3.192.364 5.744-2.525 7.642-4.507 2.585-2.698 5.032-6.082 6.586-9.623-3.043-1.651-6.137.472-8.335 2.196"/><path fill="#394149" d="M15.808 43.91c.602 4.57.603 9.514.002 14.174-3.713-.454-4.944-4.886-5.672-7.667-1.255-4.8-.413-11 2.033-15.665 3.057 1.683 3.253 6.236 3.637 9.158m3.199 17.916c-2.67 3.89-3.61 9.985-2.409 14.884 3.529-.83 5.278-4.803 6.683-7.609 1.866-3.729 3.444-8.079 4.009-12.347-3.828-.792-6.524 2.51-8.283 5.072"/><path fill="#394149" d="M11.997 61.432a70.8 70.8 0 0 1 4.654 15.266c-4.046.864-6.96-3.361-8.651-6.163-3.013-4.988-3.89-11.902-2.787-17.868 3.704.738 5.517 5.847 6.784 8.765m8.878 17.316c-1.434 4.719-.438 11.133 2.465 15.57 3.19-2.066 3.632-6.612 4.084-9.87.596-4.302.877-9.066.136-13.526-4.08.518-5.728 4.674-6.685 7.826"/><path fill="#394149" d="M13.784 80.768c3.58 4.085 6.882 8.741 9.605 13.519-3.693 2.292-8.027-.84-10.656-3.057-4.663-3.932-7.69-10.615-8.409-16.916 3.88-.518 7.3 3.99 9.46 6.454m14.614 14.04c.308 5.492 3.904 11.255 8.692 14.535 2.312-3.147.863-7.97.074-11.337-1.062-4.533-2.532-9.253-4.716-13.441-3.808 2-4.252 6.626-4.05 10.243"/><path fill="#394149" d="M21.958 99.447c5.188 2.866 10.36 6.249 15.169 9.847-2.88 3.772-8.637 2.268-12.205 1.056-6.288-2.136-11.895-7.767-14.823-14.023 3.713-1.902 8.795 1.427 11.86 3.12m21.213 8.778c3.113 5.65 10.208 9.336 16.889 10.223.719-4.107-3.75-8.174-6.186-10.834-3.468-3.788-7.08-7.719-11.132-10.993-3.035 3.504-1.43 8.231.428 11.604"/><path fill="#394149" d="M38.725 115.386c7.077.731 14.274 1.785 21.347 2.999-.675 5.183-8.946 6.019-12.7 6.325-7.699.627-16.262-2.45-22.225-7.63 2.961-3.465 9.809-2.084 13.578-1.694M52.357 9.942c-4.752 1.348-10.313 3.905-13.06 8.625 4.986-.54 9.888-2.305 14.681-3.65 5.37-1.506 11.023-2.632 16.22-4.711-5.692-2.265-12.403-1.807-17.841-.264"/><path fill="#394149" fill-rule="evenodd" d="M144.277 74.373c3.971-24.714-7.622-49.128-30.79-59.61l.217-.472c23.403 10.588 35.094 35.244 31.087 60.164-4.439 27.625-26.865 44.171-54.24 44.968l-.016-.519c27.164-.79 49.346-17.188 53.742-44.53" clip-rule="evenodd"/><path fill="#394149" d="M118.778 20.651c4.325.098 9.386 2.523 12.374 6.046-2.395 2.212-6.25 1.394-9.022.942-3.959-.646-8.169-1.896-11.903-3.666 1.535-3.251 5.671-3.387 8.551-3.322"/><path fill="#394149" d="M122.18 15.346c2.562 3.968 5.615 7.912 8.936 11.385 2.78-2.595 1.103-6.913-.033-9.598-2.054-4.865-6.981-9.061-12.134-11.208-1.414 3.199 1.659 6.985 3.231 9.42m9.115 16.433c4.05 1.432 7.529 5.461 9.276 9.507-2.913 1.346-6.223-.598-8.645-1.892-3.325-1.778-6.717-4.23-9.385-7.07 2.41-2.53 6.073-1.492 8.754-.545"/><path fill="#394149" d="M136.203 27.814a61.6 61.6 0 0 0 4.324 13.492c3.408-1.598 3.278-6.175 3.131-9.087-.248-4.971-3.044-10.64-6.938-14.242-2.385 2.54-1.081 6.953-.517 9.837m2.882 18.33c3.376 2.647 5.421 7.553 5.894 11.934-3.191.364-5.742-2.525-7.641-4.507-2.586-2.698-5.033-6.082-6.586-9.623 3.043-1.651 6.137.472 8.333 2.196"/><path fill="#394149" d="M144.934 43.91c-.603 4.57-.603 9.514-.002 14.174 3.712-.454 4.945-4.886 5.671-7.667 1.257-4.8.413-11-2.032-15.665-3.057 1.683-3.254 6.236-3.637 9.158m-3.2 17.916c2.67 3.89 3.609 9.985 2.409 14.884-3.529-.83-5.278-4.803-6.684-7.609-1.866-3.729-3.444-8.079-4.008-12.347 3.827-.792 6.525 2.51 8.283 5.072"/><path fill="#394149" d="M148.744 61.432c-2.08 4.79-3.704 10.061-4.653 15.266 4.045.864 6.958-3.361 8.651-6.163 3.012-4.988 3.889-11.902 2.787-17.868-3.704.738-5.518 5.847-6.785 8.765m-8.878 17.316c1.433 4.719.439 11.133-2.465 15.57-3.189-2.066-3.632-6.612-4.084-9.87-.595-4.302-.876-9.066-.137-13.526 4.08.518 5.728 4.674 6.686 7.826"/><path fill="#394149" d="M146.956 80.768c-3.578 4.085-6.88 8.741-9.604 13.519 3.693 2.292 8.028-.84 10.657-3.057 4.661-3.932 7.691-10.615 8.409-16.916-3.882-.518-7.302 3.99-9.462 6.454m-14.615 14.04c-.307 5.492-3.902 11.255-8.689 14.535-2.314-3.147-.863-7.97-.076-11.337 1.062-4.533 2.532-9.253 4.716-13.441 3.809 2 4.253 6.626 4.049 10.243"/><path fill="#394149" d="M138.783 99.447c-5.187 2.866-10.359 6.249-15.168 9.847 2.88 3.772 8.636 2.268 12.203 1.056 6.29-2.136 11.897-7.767 14.824-14.023-3.712-1.902-8.795 1.427-11.859 3.12m-21.213 8.778c-3.114 5.65-10.208 9.336-16.89 10.223-.719-4.107 3.75-8.174 6.187-10.834 3.466-3.788 7.079-7.719 11.131-10.993 3.036 3.504 1.429 8.231-.428 11.604"/><path fill="#394149" d="M122.015 115.386c-7.077.731-14.272 1.785-21.347 2.999.676 5.183 8.947 6.019 12.701 6.325 7.699.627 16.263-2.45 22.224-7.63-2.96-3.465-9.807-2.084-13.578-1.694M108.385 9.942c4.75 1.348 10.313 3.905 13.059 8.625-4.986-.54-9.887-2.305-14.681-3.65-5.369-1.506-11.022-2.632-16.22-4.711 5.693-2.265 12.403-1.807 17.842-.264M83.46 7.499l-2.438-5.35L78.63 7.4l-5.563-3.43 3.575 7.47h8.89l3.446-7.47zm2.015 5.101H76.57v1.307h8.904zM81.66 113.674l1.434 4.391h4.643l-3.756 2.714 1.435 4.39-3.757-2.713-3.756 2.713 1.435-4.39-3.756-2.714h4.643z"/></svg>