<svg xmlns="http://www.w3.org/2000/svg" width="159" height="129" fill="none" viewBox="0 0 159 129"><path fill="#394149" d="M52.74 44.335V39.24h-2.83v4.842c0 .866-.803 1.448-2.155 1.448-1.416 0-2.187-.56-2.187-1.46v-4.83h-2.863v4.83c0 2.517 2.06 3.584 4.933 3.584 3.075 0 5.103-1.078 5.103-3.319m9.534 3.203v-2.21h-5.05V39.24h-2.862v8.298zm8.508-6.215V39.24h-9.898v2.083h3.496v6.215h2.895v-6.215zm3.806 6.215V39.24h-2.905v8.298zm13.328 0V39.24h-3.582l-2.26 4.979-2.155-4.979h-3.697v8.298h2.693v-4.482l1.944 4.482h2.409l1.964-4.482v4.482zm4.486-1.533h4.48l.729 1.533h3.052l-4.183-8.298H93.07l-4.426 8.298h2.99zm3.581-1.86h-2.65l1.045-1.998.317-.76.296.75zm13.659-2.822V39.24h-9.897v2.083h3.496v6.215h2.895v-6.215zm9.626 6.215v-2.061h-5.945v-1.078h5.703v-2.02h-5.703v-1.067h5.872V39.24h-8.661v8.298zm-54.974 4.411h-2.737s-1.785 5.222-1.785 5.349c0-.127-1.669-5.349-1.669-5.349h-2.968s-1.659 5.222-1.659 5.349c0-.127-1.796-5.349-1.796-5.349h-3.074l3.106 8.298h3.095s1.67-4.958 1.68-5.095c.01.137 1.669 5.095 1.669 5.095h3.106zm3.743 8.298v-8.298h-2.905v8.298zm11.3 0v-8.298h-2.704v4.514l-3.983-4.514h-2.98v8.298h2.726v-4.62l4.11 4.62zm11.317 0v-8.298H87.95v4.514l-3.982-4.514h-2.98v8.298h2.726v-4.62l4.11 4.62zm10.387 0v-2.062h-5.948v-1.078h5.705v-2.019h-5.705v-1.067h5.874v-2.072h-8.663v8.298zm11.167-5.772c0-.75-.181-1.29-.561-1.68-.496-.529-1.352-.846-2.662-.846h-6.602v8.298h2.821v-2.928h2.567l2.06 2.928h3.148l-2.503-3.383c.559-.084 1.014-.423 1.308-.824.265-.37.424-.92.424-1.565m-2.746.264a.9.9 0 0 1-.097.434c-.105.211-.38.296-.834.296h-3.317v-1.512h3.264c.444 0 .741.074.887.35.075.105.097.274.097.432M53.932 68.41v-4.054h-.99v3.99c0 .942-.885 1.477-2.161 1.477-1.508 0-2.25-.575-2.25-1.485v-3.982h-.997v3.95c0 1.66 1.293 2.395 3.207 2.395 1.978 0 3.19-.782 3.19-2.29m7.097 2.21v-.918h-4.315v-5.347h-.997v6.265zm5.666-5.356v-.91H60.04v.91h2.824v5.356h1.005v-5.356zm7.09.862c0-.447-.096-.774-.264-1.037-.295-.44-.861-.734-1.802-.734h-4.053v6.265h.982v-2.642h2.855l1.747 2.642h1.149l-1.89-2.81a1.38 1.38 0 0 0 1.052-.678c.144-.24.224-.59.224-1.006m-.99.08c0 .176-.04.391-.111.535-.128.231-.423.351-.902.359h-3.126v-1.852h2.943c.598 0 .917.144 1.085.415.072.128.111.343.111.543m3.828 2.866h3.9l.798 1.548h1.07l-3.176-6.265h-1.172l-3.279 6.265h1.045zm3.486-.886h-3.055l1.268-2.403.28-.583.278.583zm12.398 1.835c.247-.287.359-.694.359-1.133 0-.415-.12-.83-.367-1.086a1.85 1.85 0 0 0-1.085-.478c.255-.04.455-.2.59-.368.216-.247.343-.646.343-1.045 0-.423-.127-.806-.399-1.07-.295-.295-.797-.486-1.5-.486h-4.21v6.265h4.522c.846 0 1.436-.215 1.747-.599m-1.189-3.91c0 .279-.087.526-.239.67-.152.167-.407.24-.678.24h-3.19v-1.805h3.007c.366 0 .646.072.837.248.168.16.263.391.263.646m.32 3.304c-.2.223-.543.335-1.046.335H87.21v-1.86h3.406c.463 0 .782.096.974.28.175.167.247.383.247.63 0 .256-.056.471-.2.615m8.469 1.206v-.918h-4.865v-1.788h4.674v-.91H95.24v-1.74h4.809v-.91h-5.783v6.266zm7.793-1.851c0-1.022-.677-1.55-2.344-1.74-.28-.04-.887-.104-1.214-.144-1.547-.184-2.018-.391-2.018-.926 0-.519.519-.814 2.082-.814 1.212 0 1.835.24 2.147.67a1 1 0 0 1 .159.375h1.067a2.2 2.2 0 0 0-.214-.646c-.43-.742-1.315-1.277-3.159-1.277-2.201-.008-3.111.79-3.111 1.78s.71 1.492 2.553 1.708c.319.04.885.103 1.164.135 1.429.176 1.876.392 1.876.99 0 .55-.512.95-2.147.95-1.34 0-2.058-.24-2.345-.702a1 1 0 0 1-.152-.463h-1.053c.024.287.104.598.248.846.415.758 1.388 1.197 3.27 1.197 2.25 0 3.191-.726 3.191-1.94m7.153-3.504v-.91h-6.653v.91h2.824v5.356h1.005v-5.356zM44.71 76.067c0-.638-.127-1.07-.342-1.397-.303-.47-.894-.718-1.923-.718H38.49v6.265h.989v-2.043h2.928c.965-.008 1.627-.231 1.978-.742.223-.311.327-.758.327-1.365m-1.004 0c0 .32-.032.559-.136.718-.183.296-.558.48-1.332.48h-2.76v-2.42h2.792c.726 0 1.1.168 1.3.496.096.143.136.407.136.726m8.222 4.15V79.3h-4.865v-1.788h4.674v-.91h-4.674v-1.74h4.81v-.91h-5.783v6.265zm7.61-4.493c0-.447-.096-.775-.263-1.038-.296-.439-.862-.734-1.803-.734h-4.052v6.265h.98v-2.641h2.857l1.747 2.641h1.148l-1.89-2.81a1.38 1.38 0 0 0 1.053-.677c.143-.24.223-.591.223-1.006m-.99.08c0 .175-.04.39-.11.534-.128.232-.424.352-.902.36H54.41v-1.852h2.943c.599 0 .918.144 1.085.415.072.127.112.343.112.543m8.385-.942v-.91h-5.568v6.265h.99v-2.665h4.37v-.934h-4.37v-1.756zm4.54-1.022c-1.332 0-2.25.327-2.904 1.014-.55.534-.79 1.277-.79 2.21 0 1.022.312 1.789.886 2.307.614.615 1.556.934 2.808.934 1.292 0 2.297-.319 2.896-.966.518-.526.79-1.276.79-2.282 0-.974-.232-1.716-.782-2.243-.63-.655-1.572-.974-2.904-.974m0 5.571c-.877 0-1.5-.191-1.97-.574-.479-.391-.71-.99-.71-1.756 0-.719.2-1.317.582-1.677.439-.414 1.109-.662 2.09-.662 1.013 0 1.643.24 2.114.654.399.352.574.974.574 1.677 0 .71-.183 1.317-.59 1.684-.47.439-1.133.654-2.09.654m11.169-3.687c0-.447-.095-.775-.263-1.038-.295-.439-.861-.734-1.802-.734h-4.053v6.265h.981v-2.641h2.856l1.747 2.641h1.148l-1.89-2.81a1.38 1.38 0 0 0 1.053-.677c.144-.24.223-.591.223-1.006m-.989.08c0 .175-.04.39-.111.534-.128.232-.423.352-.902.36h-3.127v-1.852h2.944c.598 0 .917.144 1.085.415.071.127.111.343.111.543m10.53 4.413v-6.265h-1.292l-2.576 5.156-2.53-5.156h-1.315v6.265h.949v-4.82l2.36 4.82h1.038l2.417-4.82v4.82zm2.801-1.548h3.9l.799 1.548h1.068l-3.174-6.265h-1.173l-3.278 6.265h1.045zm3.486-.886h-3.055l1.268-2.402.28-.583.279.583zm9.467 2.434v-6.265h-.949v4.869l-4.147-4.87h-1.125v6.266h.965v-4.9l4.18 4.9zm8.606-2.338h-1.038a1.4 1.4 0 0 1-.344.79c-.429.503-1.115.718-2.168.718-.885 0-1.835-.247-2.29-.894-.239-.303-.391-.75-.391-1.42 0-.599.105-1.046.335-1.35.383-.614 1.188-.933 2.323-.933 1.1 0 1.794.303 2.161.726.207.224.327.487.366.798h1.037a2.4 2.4 0 0 0-.382-1.117c-.511-.758-1.453-1.357-3.176-1.357-1.641 0-2.623.527-3.167 1.317-.35.455-.526 1.094-.526 1.908 0 .91.217 1.58.591 2.051.543.742 1.587 1.19 3.167 1.19 1.62 0 2.584-.488 3.064-1.262a2.5 2.5 0 0 0 .438-1.165m7.138 2.338V79.3h-4.867v-1.788h4.675v-.91h-4.675v-1.74h4.811v-.91h-5.784v6.265zm-72.949 6.225 1.192 3.674h3.861l-3.123 2.27 1.193 3.674-3.123-2.27-3.124 2.27 1.194-3.674-3.124-2.27h3.86zm13.771 0 1.218 3.674h3.939l-3.187 2.27 1.217 3.674-3.187-2.27-3.186 2.27 1.217-3.674-3.187-2.27h3.94zm13.664 0 1.217 3.674h3.939l-3.187 2.27 1.218 3.674-3.187-2.27-3.187 2.27 1.217-3.674-3.187-2.27h3.94zm13.663 0 1.217 3.674h3.94l-3.187 2.27 1.217 3.674-3.187-2.27-3.187 2.27 1.217-3.674-3.187-2.27h3.94zm13.772 0 1.192 3.674h3.862l-3.125 2.27 1.193 3.674-3.122-2.27-3.124 2.27 1.194-3.674-3.124-2.27h3.861zM57.425 24.459l.902 2.778h2.919l-2.362 1.716.902 2.778-2.361-1.717-2.362 1.717.902-2.778-2.361-1.716h2.919zm10.413-.004.92 2.778h2.979l-2.41 1.717.92 2.777-2.41-1.716-2.409 1.716.92-2.777-2.409-1.717h2.978zm10.33 0 .92 2.778h2.979l-2.41 1.717.92 2.777-2.409-1.716-2.41 1.716.92-2.777-2.409-1.717h2.978zm10.332 0 .92 2.778h2.978L89.99 28.95l.92 2.777-2.41-1.716-2.409 1.716.92-2.777-2.41-1.717h2.98zm10.411 0 .902 2.778h2.919l-2.361 1.717.902 2.777-2.362-1.716-2.361 1.716.902-2.777-2.362-1.717h2.92z"/><path fill="#394149" fill-rule="evenodd" d="M15.85 74.455c-3.981-24.92 7.636-49.576 30.893-60.164l.215.472C23.935 25.245 12.413 49.66 16.36 74.373c4.368 27.343 26.411 43.741 53.406 44.531l-.015.519c-27.205-.797-49.49-17.343-53.903-44.968" clip-rule="evenodd"/><path fill="#394149" d="M41.7 20.651c-4.297.098-9.328 2.523-12.296 6.046 2.38 2.212 6.21 1.394 8.966.942 3.934-.646 8.117-1.896 11.829-3.666-1.526-3.251-5.638-3.387-8.498-3.322"/><path fill="#394149" d="M38.32 15.346c-2.545 3.968-5.58 7.912-8.88 11.385-2.763-2.595-1.096-6.913.032-9.598 2.042-4.865 6.939-9.061 12.058-11.208 1.405 3.199-1.647 6.985-3.21 9.42m-9.057 16.433c-4.024 1.432-7.482 5.461-9.219 9.507 2.894 1.346 6.184-.598 8.59-1.892 3.305-1.778 6.677-4.23 9.33-7.07-2.397-2.53-6.037-1.492-8.7-.545"/><path fill="#394149" d="M24.385 27.814a61.8 61.8 0 0 1-4.298 13.492c-3.386-1.598-3.257-6.175-3.112-9.087.248-4.971 3.027-10.64 6.897-14.242 2.369 2.54 1.074 6.953.513 9.837m-2.865 18.33c-3.354 2.647-5.386 7.553-5.857 11.934 3.172.364 5.708-2.525 7.595-4.507 2.568-2.698 5-6.082 6.544-9.623-3.024-1.651-6.098.472-8.282 2.196"/><path fill="#394149" d="M15.71 43.91c.598 4.57.599 9.514 0 14.174-3.688-.454-4.912-4.886-5.635-7.667-1.248-4.8-.411-11 2.02-15.665 3.038 1.683 3.233 6.236 3.615 9.158m3.178 17.916c-2.653 3.89-3.587 9.985-2.393 14.884 3.506-.83 5.245-4.803 6.64-7.609 1.855-3.729 3.423-8.079 3.984-12.347-3.803-.792-6.483 2.51-8.23 5.072"/><path fill="#394149" d="M11.922 61.432a71.2 71.2 0 0 1 4.625 15.266c-4.021.864-6.916-3.361-8.597-6.163-2.994-4.988-3.866-11.902-2.77-17.868 3.681.738 5.483 5.847 6.742 8.765m8.822 17.316c-1.424 4.719-.434 11.133 2.45 15.57 3.17-2.066 3.61-6.612 4.059-9.87.592-4.302.871-9.066.135-13.526-4.055.518-5.692 4.674-6.644 7.826"/><path fill="#394149" d="M13.698 80.768c3.557 4.085 6.839 8.741 9.545 13.519-3.67 2.292-7.977-.84-10.59-3.057-4.633-3.932-7.642-10.615-8.356-16.916 3.857-.518 7.255 3.99 9.401 6.454m14.522 14.04c.306 5.492 3.88 11.255 8.638 14.535 2.297-3.147.857-7.97.073-11.337-1.055-4.533-2.515-9.253-4.686-13.441-3.784 2-4.226 6.626-4.024 10.243"/><path fill="#394149" d="M21.821 99.447c5.155 2.866 10.295 6.249 15.074 9.847-2.862 3.772-8.583 2.268-12.129 1.056-6.249-2.136-11.82-7.767-14.73-14.023 3.69-1.902 8.74 1.427 11.785 3.12m21.081 8.778c3.094 5.65 10.144 9.336 16.783 10.223.715-4.107-3.726-8.174-6.147-10.834-3.445-3.788-7.036-7.719-11.062-10.993-3.016 3.504-1.421 8.231.426 11.604"/><path fill="#394149" d="M38.483 115.386c7.033.731 14.185 1.785 21.214 2.999-.671 5.183-8.89 6.019-12.621 6.325-7.65.627-16.16-2.45-22.086-7.63 2.943-3.465 9.747-2.084 13.493-1.694M52.03 9.942c-4.722 1.348-10.25 3.905-12.98 8.625 4.956-.54 9.827-2.305 14.59-3.65 5.336-1.506 10.954-2.632 16.12-4.711-5.657-2.265-12.327-1.807-17.73-.264"/><path fill="#394149" fill-rule="evenodd" d="M143.375 74.373c3.947-24.714-7.574-49.128-30.597-59.61l.215-.472c23.257 10.588 34.875 35.244 30.893 60.164-4.411 27.625-26.697 44.171-53.901 44.968l-.016-.519c26.995-.79 49.038-17.188 53.406-44.53" clip-rule="evenodd"/><path fill="#394149" d="M118.036 20.651c4.297.098 9.327 2.523 12.297 6.046-2.381 2.212-6.212 1.394-8.967.942-3.934-.646-8.117-1.896-11.828-3.666 1.526-3.251 5.636-3.387 8.498-3.322"/><path fill="#394149" d="M121.416 15.346c2.546 3.968 5.58 7.912 8.88 11.385 2.763-2.595 1.096-6.913-.032-9.598-2.041-4.865-6.938-9.061-12.058-11.208-1.405 3.199 1.648 6.985 3.21 9.42m9.059 16.433c4.024 1.432 7.481 5.461 9.217 9.507-2.894 1.346-6.184-.598-8.59-1.892-3.305-1.778-6.676-4.23-9.327-7.07 2.395-2.53 6.035-1.492 8.7-.545"/><path fill="#394149" d="M135.352 27.814a61.8 61.8 0 0 0 4.297 13.492c3.386-1.598 3.258-6.175 3.111-9.087-.247-4.971-3.025-10.64-6.895-14.242-2.37 2.54-1.074 6.953-.513 9.837m2.864 18.33c3.354 2.647 5.387 7.553 5.857 11.934-3.171.364-5.706-2.525-7.593-4.507-2.57-2.698-5.002-6.082-6.545-9.623 3.023-1.651 6.098.472 8.281 2.196"/><path fill="#394149" d="M144.028 43.91c-.599 4.57-.599 9.514-.002 14.174 3.689-.454 4.914-4.886 5.636-7.667 1.248-4.8.41-11-2.02-15.665-3.038 1.683-3.233 6.236-3.614 9.158m-3.18 17.916c2.654 3.89 3.586 9.985 2.394 14.884-3.507-.83-5.245-4.803-6.642-7.609-1.854-3.729-3.423-8.079-3.983-12.347 3.803-.792 6.484 2.51 8.231 5.072"/><path fill="#394149" d="M147.814 61.432a71 71 0 0 0-4.624 15.266c4.02.864 6.915-3.361 8.597-6.163 2.993-4.988 3.865-11.902 2.77-17.868-3.681.738-5.484 5.847-6.743 8.765m-8.822 17.316c1.424 4.719.436 11.133-2.45 15.57-3.169-2.066-3.61-6.612-4.059-9.87-.59-4.302-.87-9.066-.135-13.526 4.055.518 5.692 4.674 6.644 7.826"/><path fill="#394149" d="M146.037 80.768c-3.556 4.085-6.837 8.741-9.544 13.519 3.67 2.292 7.978-.84 10.591-3.057 4.632-3.932 7.642-10.615 8.356-16.916-3.857-.518-7.256 3.99-9.403 6.454m-14.523 14.04c-.305 5.492-3.878 11.255-8.635 14.535-2.299-3.147-.857-7.97-.075-11.337 1.055-4.533 2.516-9.253 4.686-13.441 3.786 2 4.226 6.626 4.024 10.243"/><path fill="#394149" d="M137.915 99.447c-5.154 2.866-10.294 6.249-15.072 9.847 2.862 3.772 8.581 2.268 12.127 1.056 6.25-2.136 11.821-7.767 14.731-14.023-3.69-1.902-8.741 1.427-11.786 3.12m-21.08 8.778c-3.094 5.65-10.144 9.336-16.784 10.223-.715-4.107 3.727-8.174 6.148-10.834 3.444-3.788 7.035-7.719 11.061-10.993 3.017 3.504 1.421 8.231-.425 11.604"/><path fill="#394149" d="M121.252 115.386c-7.032.731-14.183 1.785-21.213 2.999.672 5.183 8.891 6.019 12.621 6.325 7.651.627 16.162-2.45 22.086-7.63-2.941-3.465-9.746-2.084-13.494-1.694M107.707 9.942c4.721 1.348 10.249 3.905 12.978 8.625-4.955-.54-9.826-2.305-14.589-3.65-5.336-1.506-10.954-2.632-16.12-4.711 5.658-2.265 12.327-1.807 17.731-.264M82.939 7.499l-2.423-5.35L78.14 7.4l-5.528-3.43 3.552 7.47h8.835l3.424-7.47zM84.94 12.6h-8.847v1.307h8.848zm-3.791 101.074 1.426 4.391h4.613l-3.732 2.714 1.425 4.39-3.732-2.713-3.733 2.713 1.426-4.39-3.733-2.714h4.614z"/></svg>