<svg width="24" height="24" viewBox="0 0 24 24" fill="none" xmlns="http://www.w3.org/2000/svg">
<g clip-path="url(#clip0_4109_2042)">
<path d="M10.5 15.0001C10.842 15.4555 11.3866 15.75 12 15.75M12 15.75C13.0355 15.75 13.875 14.9105 13.875 13.875C13.875 12.8395 13.0355 12 12 12C10.9645 12 10.125 11.1605 10.125 10.125C10.125 9.08948 10.9645 8.25 12 8.25M12 15.75V17.625M12 8.25C12.6134 8.25 13.158 8.54452 13.5 8.99991M12 8.25V6.375" stroke="#15100A" stroke-width="1.875" stroke-miterlimit="10" stroke-linecap="round" stroke-linejoin="round"/>
<path d="M12 23.0625C11.1454 23.0625 10.3799 22.5944 9.95212 21.8101C9.62761 21.2222 9.12352 20.7662 8.49398 20.4907L8.45803 20.475H8.43605C8.09135 20.3396 7.72424 20.2702 7.35389 20.2705C7.07269 20.2705 6.78933 20.3101 6.51164 20.3883C6.28242 20.4587 6.05016 20.4938 5.81705 20.4938C5.19919 20.4938 4.61878 20.2536 4.18256 19.8174C3.58556 19.2205 3.36661 18.3286 3.6112 17.4899C3.79434 16.839 3.7643 16.1745 3.525 15.564V15.542L3.5093 15.506C3.23372 14.8763 2.77772 14.3722 2.19047 14.0483C1.40559 13.6201 0.9375 12.8546 0.9375 12C0.9375 11.1454 1.40559 10.3799 2.18977 9.95212C2.77777 9.62766 3.23377 9.12356 3.5093 8.49384L3.525 8.45789V8.45203C3.53051 8.43909 3.53488 8.4257 3.53808 8.412C3.76664 7.80952 3.79275 7.13494 3.61125 6.51014C3.3562 5.68055 3.57539 4.78973 4.18256 4.18261C4.61522 3.74991 5.19619 3.51159 5.8185 3.51159C6.05058 3.51159 6.28322 3.54511 6.50991 3.61125C6.78942 3.68986 7.07283 3.72942 7.35398 3.72942C7.72608 3.72942 8.08992 3.66066 8.43605 3.525H8.45803L8.49398 3.5093C9.12361 3.23377 9.62766 2.77777 9.9517 2.19056C10.3799 1.40564 11.1454 0.9375 12 0.9375C12.8546 0.9375 13.6201 1.40564 14.0479 2.18972C14.3724 2.77772 14.8764 3.23372 15.506 3.50925L15.542 3.52495H15.564C15.9086 3.66035 16.2757 3.7297 16.646 3.72937C16.9272 3.72937 17.2106 3.68977 17.4884 3.61167C17.7176 3.54127 17.9498 3.5062 18.183 3.5062C18.8008 3.5062 19.3812 3.74644 19.8174 4.18256C20.4144 4.77947 20.6334 5.67127 20.3888 6.50991C20.2056 7.16091 20.2357 7.82541 20.475 8.43591V8.45789L20.4907 8.49384C20.7662 9.12356 21.2222 9.62766 21.8095 9.9517C22.5944 10.3799 23.0625 11.1454 23.0625 12C23.0625 12.8546 22.5944 13.6201 21.8102 14.0479C21.2223 14.3722 20.7663 14.8763 20.4907 15.506L20.475 15.542V15.564C20.2357 16.1745 20.2057 16.839 20.3883 17.4882C20.4596 17.7206 20.4938 17.9479 20.4938 18.1875C20.4938 18.7935 20.2472 19.3875 19.8174 19.8173C19.3847 20.25 18.8037 20.4883 18.1813 20.4883C17.9473 20.488 17.7146 20.4545 17.49 20.3887C17.2106 20.3101 16.9273 20.2705 16.6461 20.2705C16.274 20.2705 15.9101 20.3393 15.5639 20.475H15.5419L15.506 20.4907C14.8764 20.7662 14.3723 21.2221 14.0483 21.8093C13.6201 22.5944 12.8546 23.0625 12 23.0625Z" stroke="#15100A" stroke-width="1.875" stroke-miterlimit="10" stroke-linecap="round" stroke-linejoin="round"/>
</g>
<defs>
<clipPath id="clip0_4109_2042">
<rect width="24" height="24" fill="white"/>
</clipPath>
</defs>
</svg>
