<svg width="58" height="58" viewBox="0 0 58 58" fill="none" xmlns="http://www.w3.org/2000/svg">
<path d="M0 6.44444C0 2.88528 2.88528 0 6.44445 0H51.5556C55.1147 0 58 2.88528 58 6.44445V51.5556C58 55.1147 55.1147 58 51.5556 58H6.44444C2.88528 58 0 55.1147 0 51.5556V6.44444Z" fill="#F47721"/>
<path d="M27.6821 35.8663H21.2285C20.7107 35.8663 20.291 36.286 20.291 36.8038V42.4738C20.291 42.9915 20.7107 43.4113 21.2285 43.4113H28.6197V36.8038C28.6196 36.286 28.1999 35.8663 27.6821 35.8663ZM36.9483 30.6163H31.4321C30.9144 30.6163 30.4946 31.036 30.4946 31.5538V43.4113H37.8858V31.5538C37.8858 31.036 37.466 30.6163 36.9483 30.6163ZM35.9096 19.4603C36.1397 19.9242 36.702 20.1137 37.166 19.8837C37.6299 19.6536 37.8194 19.0911 37.5894 18.6273C35.8897 15.1999 36.0617 15.5454 36.037 15.4989C35.9497 15.3337 35.815 15.1984 35.6502 15.1104C35.4854 15.0224 35.2981 14.9857 35.1122 15.005C35.1096 15.0053 35.1069 15.0058 35.1042 15.0061C35.0275 15.0148 35.2324 14.9746 31.6815 15.7218C31.1748 15.8284 30.8505 16.3256 30.9571 16.8323C31.05 17.2739 31.4396 17.5769 31.8735 17.5769C32.004 17.5769 31.92 17.5878 33.5688 17.2408C32.3394 19.6539 30.7394 21.853 28.7963 23.7962C26.4149 26.1777 23.648 28.0448 20.5725 29.3455C20.0957 29.5473 19.8726 30.0973 20.0743 30.5741C20.2761 31.0514 20.8264 31.2739 21.3029 31.0724C24.6019 29.6771 27.569 27.6751 30.122 25.122C32.2029 23.0412 33.9174 20.6859 35.2354 18.1009L35.9096 19.4603Z" fill="white"/>
</svg>
