<svg width="24" height="24" viewBox="0 0 24 24" fill="none" xmlns="http://www.w3.org/2000/svg">
<g clip-path="url(#clip0_4109_2048)">
<path d="M5.625 23.0625C3.03619 23.0625 0.9375 20.9638 0.9375 18.375V10.6875C0.9375 8.09869 3.03619 6 5.625 6H18.375C20.9638 6 23.0625 8.09869 23.0625 10.6875V18.375C23.0625 20.9638 20.9638 23.0625 18.375 23.0625H5.625Z" stroke="#15100A" stroke-width="1.875" stroke-miterlimit="10" stroke-linecap="round" stroke-linejoin="round"/>
<path d="M14.2031 14.7188L18.2344 18.75M18.2344 14.7188L14.2031 18.75M4.78125 2.8125C4.78125 1.77698 5.62073 0.9375 6.65625 0.9375C7.69177 0.9375 8.53125 1.77698 8.53125 2.8125M15.5625 2.8125C15.5625 1.77698 16.402 0.9375 17.4375 0.9375C18.473 0.9375 19.3125 1.77698 19.3125 2.8125" stroke="#15100A" stroke-width="1.875" stroke-miterlimit="10" stroke-linecap="round" stroke-linejoin="round"/>
</g>
<defs>
<clipPath id="clip0_4109_2048">
<rect width="24" height="24" fill="white"/>
</clipPath>
</defs>
</svg>
