<svg width="58" height="58" viewBox="0 0 58 58" fill="none" xmlns="http://www.w3.org/2000/svg">
<path d="M0 6.44444C0 2.88528 2.88528 0 6.44445 0H51.5556C55.1147 0 58 2.88528 58 6.44445V51.5556C58 55.1147 55.1147 58 51.5556 58H6.44444C2.88528 58 0 55.1147 0 51.5556V6.44444Z" fill="white"/>
<g clip-path="url(#clip0_4372_11392)">
<path d="M20.682 37.4551H14.2284C13.7106 37.4551 13.2909 37.8749 13.2909 38.3926V44.0626C13.2909 44.5804 13.7106 45.0001 14.2284 45.0001H21.6195V38.3926C21.6195 37.8749 21.1998 37.4551 20.682 37.4551ZM29.9482 32.2051H24.432C23.9142 32.2051 23.4945 32.6249 23.4945 33.1426V45.0001H30.8857V33.1426C30.8857 32.6249 30.4659 32.2051 29.9482 32.2051ZM28.9095 21.0492C29.1395 21.5131 29.7019 21.7026 30.1659 21.4726C30.6297 21.2425 30.8193 20.68 30.5892 20.2161C28.8896 16.7888 29.0615 17.1343 29.0369 17.0877C28.9496 16.9226 28.8148 16.7873 28.6501 16.6993C28.4853 16.6113 28.2979 16.5746 28.1121 16.5939C28.1095 16.5941 28.1068 16.5947 28.1041 16.595C28.0274 16.6036 28.2322 16.5634 24.6814 17.3107C24.1747 17.4173 23.8504 17.9145 23.957 18.4212C24.0499 18.8627 24.4395 19.1658 24.8734 19.1658C25.0039 19.1658 24.9199 19.1766 26.5687 18.8296C25.3393 21.2427 23.7392 23.4419 21.7962 25.3851C19.4147 27.7666 16.6479 29.6336 13.5724 30.9344C13.0955 31.1361 12.8725 31.6861 13.0742 32.163C13.276 32.6403 13.8263 32.8628 14.3028 32.6613C17.6017 31.266 20.5689 29.264 23.1219 26.7109C25.2027 24.6301 26.9172 22.2747 28.2352 19.6897L28.9095 21.0492Z" fill="#F47721"/>
<path d="M36.1437 24.8751H33.698C33.1803 24.8751 32.7605 25.2949 32.7605 25.8126V45.0001H40.3111C40.8292 45.0001 41.2486 44.5801 41.2486 44.0626V25.8126C41.2486 25.2951 40.8292 24.8751 40.3111 24.8751H36.1437Z" fill="#F47721"/>
</g>
<defs>
<clipPath id="clip0_4372_11392">
<rect width="32" height="32" fill="white" transform="translate(13 13)"/>
</clipPath>
</defs>
</svg>
