<svg width="24" height="24" viewBox="0 0 24 24" fill="none" xmlns="http://www.w3.org/2000/svg">
<g clip-path="url(#clip0_4109_2035)">
<path d="M12.9375 19.3125V15.5625C12.9375 15.0447 12.5178 14.625 12 14.625C11.4822 14.625 11.0625 15.0447 11.0625 15.5625V19.3125C11.0625 19.8303 11.4822 20.25 12 20.25C12.5178 20.25 12.9375 19.8303 12.9375 19.3125Z" fill="#15100A"/>
<path d="M2.625 14.625C2.10722 14.625 1.6875 15.0447 1.6875 15.5625V19.3125C1.6875 21.8972 3.79027 24 6.375 24H17.625C20.2097 24 22.3125 21.8972 22.3125 19.3125V15.5625C22.3125 15.0447 21.8928 14.625 21.375 14.625C20.8572 14.625 20.4375 15.0447 20.4375 15.5625V19.3125C20.4375 20.8633 19.1758 22.125 17.625 22.125H6.375C4.82419 22.125 3.5625 20.8633 3.5625 19.3125V15.5625C3.5625 15.0447 3.14278 14.625 2.625 14.625ZM21.1875 5.625H19.933C20.2639 5.05558 20.438 4.40861 20.4375 3.75C20.4375 1.68225 18.7552 0 16.6875 0C15.3078 0 14.3994 1.19236 13.598 2.24437C13.3914 2.51555 13.1644 2.81344 12.9375 3.07223V2.8125C12.9375 2.29472 12.5178 1.875 12 1.875C11.4822 1.875 11.0625 2.29472 11.0625 2.8125V3.07223C10.8356 2.81344 10.6086 2.51555 10.402 2.24437C9.60056 1.19236 8.69217 0 7.3125 0C5.24475 0 3.5625 1.68225 3.5625 3.75C3.56198 4.40861 3.73606 5.05558 4.06702 5.625H2.8125C1.26169 5.625 0 6.88669 0 8.4375V10.3125C0 11.8633 1.26169 13.125 2.8125 13.125H21.1875C22.7383 13.125 24 11.8633 24 10.3125V8.4375C24 6.88669 22.7383 5.625 21.1875 5.625ZM15.0895 3.38063C15.6006 2.70984 16.2366 1.875 16.6875 1.875C17.7214 1.875 18.5625 2.71613 18.5625 3.75C18.5625 4.78387 17.7214 5.625 16.6875 5.625H12.9375V5.42827C13.8198 5.04684 14.4851 4.17398 15.0895 3.38063ZM5.4375 3.75C5.4375 2.71613 6.27863 1.875 7.3125 1.875C7.76344 1.875 8.39944 2.70984 8.91052 3.38063C9.51492 4.17394 10.1802 5.04684 11.0625 5.42822V5.625H7.3125C6.27863 5.625 5.4375 4.78387 5.4375 3.75ZM22.125 10.3125C22.125 10.8294 21.7044 11.25 21.1875 11.25H2.8125C2.29556 11.25 1.875 10.8294 1.875 10.3125V8.4375C1.875 7.92056 2.29556 7.5 2.8125 7.5H21.1875C21.7044 7.5 22.125 7.92056 22.125 8.4375V10.3125Z" fill="#15100A"/>
</g>
<defs>
<clipPath id="clip0_4109_2035">
<rect width="24" height="24" fill="white"/>
</clipPath>
</defs>
</svg>
