<svg width="58" height="58" viewBox="0 0 58 58" fill="none" xmlns="http://www.w3.org/2000/svg">
<path d="M0 6.44444C0 2.88528 2.88528 0 6.44445 0H51.5556C55.1147 0 58 2.88528 58 6.44445V51.5556C58 55.1147 55.1147 58 51.5556 58H6.44444C2.88528 58 0 55.1147 0 51.5556V6.44444Z" fill="#F47721"/>
<g clip-path="url(#clip0_4372_11423)">
<path d="M20.682 37.455H14.2284C13.7106 37.455 13.2909 37.8748 13.2909 38.3925V44.0625C13.2909 44.5802 13.7106 45 14.2284 45H21.6195V38.3925C21.6195 37.8748 21.1998 37.455 20.682 37.455ZM29.9482 32.205H24.432C23.9142 32.205 23.4945 32.6248 23.4945 33.1425V45H30.8857V33.1425C30.8857 32.6248 30.4659 32.205 29.9482 32.205ZM42.8624 18.0631L44.7517 16.0125C45.0042 15.7387 45.0705 15.3419 44.9211 15.0013C44.8481 14.8343 44.7279 14.6923 44.5754 14.5926C44.4229 14.493 44.2446 14.4399 44.0624 14.44H38.0187V13.9375C38.0187 13.42 37.5993 13 37.0812 13C36.5637 13 36.1437 13.42 36.1437 13.9375V24.875H33.698C33.1803 24.875 32.7605 25.2948 32.7605 25.8125V45H40.3111C40.8292 45 41.2486 44.58 41.2486 44.0625V25.8125C41.2486 25.295 40.8292 24.875 40.3111 24.875H38.0187V21.5206H44.0624C44.4417 21.5206 44.7836 21.2919 44.9286 20.9412C45.0736 20.5906 44.993 20.1869 44.7242 19.9194L42.8624 18.0631ZM28.9095 21.0491C29.1395 21.5129 29.7019 21.7024 30.1659 21.4724C30.6297 21.2424 30.8193 20.6799 30.5892 20.216C28.8896 16.7887 29.0615 17.1342 29.0369 17.0876C28.9496 16.9225 28.8148 16.7872 28.6501 16.6992C28.4853 16.6112 28.2979 16.5745 28.1121 16.5938C28.1095 16.594 28.1068 16.5946 28.1041 16.5949C28.0274 16.6035 28.2322 16.5633 24.6814 17.3106C24.1747 17.4172 23.8504 17.9144 23.957 18.4211C24.0499 18.8626 24.4395 19.1657 24.8734 19.1657C25.0039 19.1657 24.9199 19.1765 26.5687 18.8295C25.3393 21.2426 23.7392 23.4417 21.7962 25.3849C19.4147 27.7664 16.6479 29.6335 13.5724 30.9342C13.0955 31.136 12.8725 31.686 13.0742 32.1629C13.276 32.6402 13.8263 32.8627 14.3028 32.6612C17.6017 31.2659 20.5689 29.2639 23.1219 26.7107C25.2027 24.6299 26.9172 22.2746 28.2352 19.6896L28.9095 21.0491Z" fill="white"/>
</g>
<defs>
<clipPath id="clip0_4372_11423">
<rect width="32" height="32" fill="white" transform="translate(13 13)"/>
</clipPath>
</defs>
</svg>
