<svg width="58" height="58" viewBox="0 0 58 58" fill="none" xmlns="http://www.w3.org/2000/svg">
<path d="M0 6.44444C0 2.88528 2.88528 0 6.44445 0H51.5556C55.1147 0 58 2.88528 58 6.44445V51.5556C58 55.1147 55.1147 58 51.5556 58H6.44444C2.88528 58 0 55.1147 0 51.5556V6.44444Z" fill="#F47721"/>
<g clip-path="url(#clip0_4372_11160)">
<path d="M20.6821 37.4549H14.2285C13.7107 37.4549 13.291 37.8746 13.291 38.3924V44.0624C13.291 44.5801 13.7107 44.9999 14.2285 44.9999H21.6197V38.3924C21.6196 37.8746 21.1999 37.4549 20.6821 37.4549ZM29.9483 32.2049H24.4321C23.9144 32.2049 23.4946 32.6246 23.4946 33.1424V44.9999H30.8858V33.1424C30.8858 32.6246 30.466 32.2049 29.9483 32.2049ZM28.9096 21.0489C29.1397 21.5128 29.702 21.7023 30.166 21.4723C30.6299 21.2423 30.8194 20.6798 30.5894 20.2159C28.8897 16.7886 29.0617 17.1341 29.037 17.0875C28.9497 16.9223 28.815 16.7871 28.6502 16.6991C28.4854 16.6111 28.2981 16.5743 28.1122 16.5936C28.1096 16.5939 28.1069 16.5944 28.1042 16.5948C28.0275 16.6034 28.2324 16.5632 24.6815 17.3104C24.1748 17.4171 23.8505 17.9143 23.9571 18.4209C24.05 18.8625 24.4396 19.1656 24.8735 19.1656C25.004 19.1656 24.92 19.1764 26.5688 18.8294C25.3394 21.2425 23.7394 23.4416 21.7963 25.3848C19.4149 27.7663 16.648 29.6334 13.5725 30.9341C13.0957 31.1359 12.8726 31.6859 13.0743 32.1628C13.2761 32.6401 13.8264 32.8626 14.3029 32.6611C17.6019 31.2658 20.569 29.2638 23.122 26.7106C25.2029 24.6298 26.9174 22.2745 28.2354 19.6895L28.9096 21.0489Z" fill="white"/>
<path d="M36.1438 24.8749H33.6982C33.1804 24.8749 32.7607 25.2946 32.7607 25.8124V44.9999H40.3112C40.8294 44.9999 41.2487 44.5799 41.2487 44.0624V25.8124C41.2487 25.2949 40.8294 24.8749 40.3112 24.8749H36.1438Z" fill="white"/>
</g>
<defs>
<clipPath id="clip0_4372_11160">
<rect width="32" height="32" fill="white" transform="translate(13 13)"/>
</clipPath>
</defs>
</svg>
