<svg width="61" height="48" viewBox="0 0 61 48" fill="none" xmlns="http://www.w3.org/2000/svg">
<path opacity="0.1" d="M24.9226 44.3135C28.0322 46.4475 31.7779 47.5145 36.1597 47.5145C39.552 47.5145 42.6617 46.8032 45.4886 45.3805C48.3156 43.8155 50.5064 41.6815 52.0613 38.9784C53.7574 36.2753 54.6055 33.0031 54.6055 29.1619C54.6055 25.6052 53.8281 22.6887 52.2733 20.4124C50.7185 17.9939 48.8103 16.2155 46.5487 15.0774C44.2872 13.7969 42.0256 13.1567 39.764 13.1567C37.9265 13.1567 36.5131 13.299 35.5236 13.5835C34.5342 13.8681 33.6861 14.2949 32.9794 14.864L31.9193 14.2237C33.05 11.2361 34.6755 8.31962 36.7957 5.47425C39.0573 2.62889 41.8136 0.0680637 45.0646 -2.20823C48.3156 -4.62679 51.8492 -6.5474 55.6656 -7.97008L42.9444 -18C37.7145 -15.5814 33.05 -12.2381 28.951 -7.97008C24.9932 -3.70204 21.8129 1.13507 19.41 6.54126C17.0071 11.8052 15.8057 17.4248 15.8057 23.4C15.8057 27.6681 16.5831 31.6516 18.1379 35.3506C19.6927 39.0495 21.9543 42.0372 24.9226 44.3135Z" fill="white"/>
<path opacity="0.1" d="M9.35402 47.5145C4.97225 47.5145 1.22655 46.4475 -1.8831 44.3135C-4.85139 42.0372 -7.11295 39.0495 -8.66777 35.3506C-10.2226 31.6516 -11 27.6681 -11 23.4C-11 17.4248 -9.79855 11.8052 -7.39564 6.54126C-4.99274 1.13507 -1.81242 -3.70204 2.14531 -7.97008C6.24438 -12.2381 10.9088 -15.5814 16.1387 -18L28.6479 -7.97008C24.8316 -6.5474 21.2979 -4.62679 18.0469 -2.20823C14.9372 0.0680637 12.2516 2.62889 9.99008 5.47425C7.86987 8.31962 6.24438 11.2361 5.1136 14.2237L6.1737 14.864C6.88044 14.2949 7.72853 13.8681 8.71796 13.5835C9.70739 13.299 11.1209 13.1567 12.9584 13.1567C15.2199 13.1567 17.4815 13.7969 19.743 15.0774C22.0046 16.2155 23.9128 17.9939 25.4676 20.4124C27.0224 22.6887 27.7998 25.6052 27.7998 29.1619C27.7998 33.0031 26.9518 36.2753 25.2556 38.9784C23.5594 41.6815 21.2979 43.8155 18.4709 45.3805C15.7853 46.8032 12.7464 47.5145 9.35402 47.5145Z" fill="white"/>
</svg>
