<svg xmlns="http://www.w3.org/2000/svg" width="178" height="178" fill="none" viewBox="0 0 178 178"><circle cx="89" cy="89" r="89" fill="#15100a"/><circle cx="89" cy="89" r="54" fill="#f47721"/><path fill="#f47721" d="M109.923 15.563q.23.035.298.191.07.138-.013.326l-5.548 11.843q-.158.321-.532.264l-1.637-.25q-.409-.064-.449-.397l-1.141-8.952q-.015-.148-.068-.157-.032-.023-.113.147l-3.782 8.162q-.158.321-.55.261l-1.672-.256q-.39-.06-.45-.397l-1.711-12.954q-.021-.222.087-.333.111-.129.342-.093l1.85.283q.196.03.275.115.08.067.094.215l1.148 9.263q.024.203.077.212.054.008.132-.144l3.874-8.53a.4.4 0 0 1 .155-.176q.1-.058.313-.025l1.601.245q.196.03.274.115.08.067.095.215l1.17 9.357q.014.148.064.174.072.01.129-.126l3.868-8.604q.057-.137.154-.176a.55.55 0 0 1 .313-.025zm-2.099 13.397q-.117-.046-.137-.19t.121-.3l8.896-9.988a.6.6 0 0 1 .244-.174q.11-.032.277.034l2.089.838a.49.49 0 0 1 .333.522l-.503 13.336a.4.4 0 0 1-.108.268q-.103.113-.237.06l-2.021-.812q-.234-.093-.214-.338l.117-3.095q.018-.09-.019-.143-.013-.065-.114-.104l-4.36-1.75q-.15-.06-.261.07l-2.102 2.337a.22.22 0 0 1-.16.11.36.36 0 0 1-.221-.03zm8.88-2.215q.217.087.241-.214l.187-5.104q-.004-.137-.07-.164-.068-.027-.171.087l-3.404 3.793q-.207.228.027.321zm8.545-4.519a.27.27 0 0 1 .167-.129q.108-.038.246.049l8.56 5.39q.137.086.15.2a.27.27 0 0 1-.044.207l-.749 1.188q-.134.213-.377.06l-2.925-1.842q-.168-.105-.263.047l-5.822 9.246q-.163.258-.392.115l-1.812-1.142q-.214-.134-.06-.378l5.812-9.23q.115-.183-.052-.288l-3.062-1.928q-.259-.163-.125-.377zm16.191 11.492q.722.678 1.154 1.505a5.3 5.3 0 0 1 .587 1.689 4.7 4.7 0 0 1 0 1.68 4.1 4.1 0 0 1-.603 1.509q-.133.22-.222.236-.076.028-.193-.058l-1.593-1.3q-.106-.1-.094-.163.023-.078.083-.194.532-.882.48-1.797-.042-.93-.841-1.681-1.114-1.048-2.545-.763t-3.181 2.148q-1.727 1.836-1.951 3.256-.21 1.433.983 2.555.812.764 1.759.914.96.135 2.215-.463.138-.068.297.157l.893 1.284a.23.23 0 0 1 .03.152q.003.102-.184.247a4.2 4.2 0 0 1-.904.41 5.7 5.7 0 0 1-1.202.253q-.66.072-1.402-.059a5.4 5.4 0 0 1-1.479-.477q-.75-.359-1.471-1.037-1.338-1.258-1.729-2.812-.378-1.542.158-3.163.549-1.634 1.979-3.155 1.443-1.534 3.003-2.142t3.098-.298 2.875 1.567m2.426 14.17q-.123-.178-.286-.064l-4.369 3.048q-.295.207-.532-.133l-1.092-1.565q-.113-.162-.095-.263a.4.4 0 0 1 .165-.203l10.437-7.282q.25-.174.405.047l1.226 1.756q.144.207-.092.372l-3.971 2.77q-.237.165-.092.372l2.719 3.897q.144.207.366.052l3.985-2.78q.237-.165.381.041l1.225 1.757q.155.222-.096.396l-10.437 7.282a.4.4 0 0 1-.248.085q-.1-.018-.213-.18l-1.092-1.565q-.237-.34.058-.545l4.37-3.049q.162-.113.039-.29zm2.392 15.028q-.042-.12.054-.228.096-.11.306-.106l13.374.18a.6.6 0 0 1 .291.07q.097.063.156.233l.734 2.126q.124.358-.175.594l-10.407 8.355a.4.4 0 0 1-.272.094q-.154-.004-.201-.14l-.711-2.059q-.082-.237.116-.382l2.415-1.939q.08-.045.096-.11.039-.051.004-.153l-1.534-4.44q-.053-.154-.224-.152l-3.143-.057a.22.22 0 0 1-.188-.05q-.075-.05-.121-.186zm7.491 5.259q.076.22.319.042l3.978-3.203q.102-.091.078-.16-.023-.068-.177-.072l-5.096-.087q-.307-.009-.225.23zm11.461 21.673q.01.162-.093.24-.103.08-.25.034l-12.904-3.615q-.348-.087-.373-.482l-.117-1.886q-.027-.431.291-.541l12.359-5.134q.157-.064.27.001.113.066.123.227l.133 2.138q.016.27-.248.358l-9.501 3.82q-.316.146.032.232l9.881 2.577q.274.055.292.343zm-.29 6.663q-.021.25-.308.227l-12.627-1.07q-.215-.018-.296-.133-.082-.097-.062-.33l.158-1.866q.018-.215.096-.28a.4.4 0 0 1 .257-.051l12.681 1.074q.304.026.282.294zm-.864 5.346-.17.718-.245 1.033-.24 1.016q-.117.49-.192.732-.617 2.369-1.762 3.689-1.132 1.34-2.721 1.723-1.571.386-3.55-.083-2.067-.49-3.356-1.609-1.293-1.102-1.711-2.847-.406-1.725.15-4.071l.801-3.38q.084-.351.451-.264l12.313 2.918q.175.04.229.128.05.103.003.297m-2.429 1.977q.042-.176-.204-.233l-8.827-2.092q-.21-.05-.264.178l-.104.438q-.382 1.61-.175 2.77.205 1.159 1.119 1.911.913.753 2.612 1.156 1.682.398 2.796.144a3.06 3.06 0 0 0 1.828-1.157q.696-.909 1.066-2.467zm-1.942 12.874q.279.126.166.372l-3.622 7.943q-.097.213-.343.101l-1.244-.567q-.312-.143-.177-.437l2.464-5.405q.127-.278-.102-.383l-2.866-1.307q-.245-.111-.35.118l-1.703 3.734q-.112.245-.358.133l-1.326-.605a.26.26 0 0 1-.125-.116q-.027-.071.033-.203l1.718-3.766q.096-.213-.1-.303l-3.046-1.389q-.196-.09-.279.09l-2.614 5.732q-.119.263-.349.158l-1.326-.605a.3.3 0 0 1-.15-.148q-.036-.095.031-.242l3.652-8.009q.143-.31.437-.177zm-20.041 8.806q1.083-1.505 2.529-2.127 1.446-.623 3.119-.327 1.662.31 3.386 1.55 1.753 1.263 2.578 2.766.826 1.503.709 3.083-.117 1.579-1.19 3.069t-2.523 2.087q-1.46.612-3.148.307-1.673-.296-3.426-1.557-1.724-1.242-2.534-2.734-.82-1.479-.704-3.058.131-1.569 1.204-3.059m1.538 1.13q-.947 1.314-.464 2.616.487 1.326 2.561 2.819 2.118 1.525 3.56 1.587 1.456.072 2.402-1.242.957-1.33.437-2.702-.516-1.347-2.634-2.872-2.06-1.484-3.472-1.524-1.422-.026-2.39 1.318m-7.088 12.696q.428-.384.983-.494a2.2 2.2 0 0 1 1.093.06q.539.17.923.599.396.442.494.983.111.553-.06 1.093a2.04 2.04 0 0 1-.598.923 2.08 2.08 0 0 1-2.076.434 2 2 0 0 1-.924-.598 2.05 2.05 0 0 1-.494-.983 2.08 2.08 0 0 1 .659-2.017m-18.173 21.132q-.207.11-.354.024-.14-.07-.184-.269l-2.611-12.815q-.064-.352.27-.529l1.463-.775q.366-.194.597.05l6.256 6.505q.099.11.147.085.04-.001.004-.186l-1.833-8.806q-.064-.352.285-.538l1.495-.792q.351-.185.597.051l9.101 9.376q.15.166.129.32-.012.168-.219.278l-1.654.877q-.175.092-.289.071-.105-.006-.204-.116l-6.446-6.75q-.141-.15-.189-.124-.047.025-.019.193l1.978 9.158a.4.4 0 0 1-.019.234q-.046.105-.237.206l-1.431.759q-.175.092-.289.071-.104-.006-.204-.116l-6.52-6.813q-.099-.11-.156-.101-.063.034-.028.178l2.028 9.213q.036.144-.019.234a.54.54 0 0 1-.237.206zm-6.307-12.009q.122-.032.223.073.102.103.082.313l-1.223 13.319a.6.6 0 0 1-.094.284q-.069.093-.243.138l-2.177.566q-.366.096-.579-.221l-7.517-11.027a.4.4 0 0 1-.073-.279q.016-.153.156-.189l2.108-.548q.243-.063.372.145l1.744 2.559q.04.083.102.104.048.043.153.016l4.546-1.183q.157-.04.169-.211l.302-3.128a.22.22 0 0 1 .064-.184q.056-.07.195-.107zm-5.827 7.058q-.226.06-.067.315l2.882 4.217q.084.108.154.09t.085-.171l.485-5.073q.032-.306-.212-.243zm-4.192 8.712a.27.27 0 0 1-.057.203q-.065.095-.227.107l-10.088.749q-.161.012-.24-.072a.27.27 0 0 1-.086-.192l-.104-1.4q-.019-.252.268-.273l3.447-.256q.197-.015.184-.194l-.81-10.896q-.023-.306.247-.325l2.136-.159q.251-.019.273.268l.808 10.878q.016.216.213.201l3.608-.268q.306-.023.324.229zm-19.805.404a5.6 5.6 0 0 1-1.824-.519 5.3 5.3 0 0 1-1.479-1.004q-.637-.6-1.003-1.348a4.1 4.1 0 0 1-.417-1.571q-.025-.257.038-.321.043-.067.189-.069l2.055.093q.142.016.172.074.028.076.049.205.099 1.026.688 1.728.586.72 1.678.847 1.52.175 2.497-.908.975-1.083 1.27-3.622.29-2.503-.379-3.776-.685-1.275-2.313-1.464-1.108-.128-1.957.318-.851.463-1.5 1.693-.07.136-.333.052l-1.483-.498a.22.22 0 0 1-.114-.104q-.064-.08-.001-.308.155-.399.481-.868.325-.47.813-.921a5 5 0 0 1 1.16-.79 5.4 5.4 0 0 1 1.472-.5 5.8 5.8 0 0 1 1.799-.046q1.824.212 3.066 1.224 1.224 1.012 1.76 2.632.537 1.638.296 3.713-.241 2.091-1.13 3.511-.89 1.419-2.308 2.089t-3.242.458m-10.417-9.938q.205.069.268-.119l1.702-5.049q.115-.34.508-.209l1.808.61q.187.064.232.154a.4.4 0 0 1-.012.262l-4.065 12.059q-.098.291-.354.204l-2.03-.684q-.239-.081-.146-.354l1.546-4.588q.093-.273-.146-.353l-4.503-1.518q-.24-.081-.325.175l-1.553 4.605q-.091.273-.33.193l-2.03-.685q-.256-.085-.159-.376l4.066-12.059a.4.4 0 0 1 .149-.216q.09-.045.278.018l1.808.61q.392.132.278.473l-1.702 5.049q-.064.188.141.257zm-10.855-10.663q.105.07.092.216-.012.144-.183.267l-10.856 7.811a.6.6 0 0 1-.277.116q-.114.009-.263-.093l-1.856-1.272q-.31-.215-.212-.582l3.395-12.907a.4.4 0 0 1 .162-.238q.126-.088.245-.006l1.796 1.231q.209.143.135.377l-.788 2.995q-.036.084-.012.145 0 .065.088.126l3.875 2.656q.134.093.27-.011l2.56-1.824a.22.22 0 0 1 .18-.072q.09-.004.21.077zm-9.15.229q-.192-.132-.281.157l-1.293 4.94q-.027.135.033.176t.185-.048l4.148-2.961q.252-.177.044-.319zM27.26 133.703q-.104-.123-.068-.248t.18-.176l12.513-4.799q.33-.138.586.165l1.22 1.443q.279.33.09.608l-6.855 11.494q-.09.146-.218.161-.128.014-.233-.109l-1.383-1.636q-.173-.207-.014-.436l5.345-8.734q.166-.306-.165-.167l-9.467 3.828q-.253.119-.438-.101zm-3.752-5.553q-.132-.214.113-.366l10.788-6.649q.183-.113.317-.069.123.03.246.229l.983 1.594q.112.183.09.283a.4.4 0 0 1-.177.193l-10.834 6.677q-.261.16-.402-.069zm-2.483-4.807-.29-.678-.419-.977-.41-.959a12 12 0 0 1-.282-.702q-.915-2.272-.779-4.014.112-1.751 1.162-3.003 1.032-1.246 2.903-2.046 1.952-.837 3.654-.704 1.695.117 3.07 1.27 1.351 1.145 2.3 3.362l1.368 3.193q.142.332-.205.48l-11.633 4.982q-.165.07-.26.033-.1-.056-.18-.237m.776-3.034q.07.165.302.066l8.34-3.571q.198-.085.106-.301l-.177-.413q-.652-1.523-1.507-2.331a3.1 3.1 0 0 0-2.037-.87q-1.182-.062-2.787.625-1.589.68-2.333 1.548a3.06 3.06 0 0 0-.78 2.018q-.02 1.144.61 2.616zm-6.1-11.517q-.3.063-.356-.201l-1.806-8.541q-.048-.23.216-.285l1.338-.283q.335-.07.402.246l1.229 5.811q.063.3.31.248l3.081-.652q.264-.056.212-.302l-.849-4.016q-.056-.263.209-.32l1.426-.301a.26.26 0 0 1 .17.019q.064.042.094.183l.856 4.05q.048.23.26.184l3.275-.692q.212-.044.17-.239l-1.303-6.163q-.06-.282.187-.334l1.427-.302a.3.3 0 0 1 .208.03q.085.055.12.214l1.82 8.611q.07.334-.246.402zm10.874-18.993q.025 1.854-.765 3.215-.79 1.362-2.31 2.121-1.52.741-3.644.771-2.16.03-3.718-.686t-2.405-2.054-.873-3.174.784-3.18q.809-1.36 2.346-2.12 1.52-.76 3.68-.79 2.123-.03 3.663.686 1.54.699 2.387 2.037.83 1.338.855 3.174m-1.908.01q-.022-1.62-1.186-2.378-1.18-.776-3.737-.74-2.61.036-3.804.846-1.213.809-1.19 2.428.023 1.638 1.258 2.431 1.217.776 3.827.738 2.538-.035 3.697-.844 1.158-.826 1.135-2.482m-1.881-14.423a2.05 2.05 0 0 1-.495.983q-.38.419-.914.603a2.05 2.05 0 0 1-1.098.069 2 2 0 0 1-.983-.495 2.2 2.2 0 0 1-.603-.914 2.05 2.05 0 0 1-.069-1.098 2.08 2.08 0 0 1 1.409-1.586q.516-.187 1.098-.069.564.115.983.495.422.362.606.896.185.534.066 1.116m-1.137-22.07q.064-.15.193-.172.127-.021.238.085l9.807 9.132q.27.236.11.599l-.76 1.73q-.174.396-.507.347L17.392 63.93q-.17-.015-.24-.125t-.005-.258l.863-1.96q.108-.247.385-.205l10.194.964q.348.015.078-.221l-7.598-6.823q-.219-.174-.103-.438zm3.306-5.781q.135-.214.378-.06l10.734 6.734q.183.116.202.254.03.124-.096.323l-.995 1.585q-.115.183-.214.206a.4.4 0 0 1-.252-.073l-10.78-6.763q-.258-.164-.115-.392zm3.238-4.375.482-.56.692-.805.682-.791q.329-.383.506-.561 1.639-1.82 3.262-2.465 1.621-.67 3.208-.28 1.573.38 3.115 1.708 1.61 1.385 2.239 2.972.64 1.573.21 3.315-.433 1.718-2.006 3.546l-2.267 2.633q-.234.273-.52.026l-9.592-8.254q-.136-.117-.144-.22.004-.114.133-.264m3.067-.639q-.117.137.073.301l6.877 5.918q.163.141.316-.036l.293-.342q1.08-1.255 1.43-2.379a3.1 3.1 0 0 0-.114-2.212q-.465-1.088-1.788-2.227-1.31-1.128-2.416-1.415a3.07 3.07 0 0 0-2.156.187q-1.035.486-2.08 1.7zm7.606-10.512q-.19-.24.022-.408l6.85-5.412q.184-.144.351.067l.848 1.074q.212.268-.042.469l-4.661 3.682q-.24.19-.084.388l1.953 2.471q.167.212.365.056l3.22-2.544q.212-.168.38.044l.903 1.144q.057.07.058.16-.009.076-.121.166l-3.249 2.566q-.184.145-.05.315l2.076 2.627q.134.17.289.047l4.943-3.906q.226-.178.383.02l.903 1.144a.3.3 0 0 1 .067.2q-.011.1-.14.201l-6.906 5.457q-.268.211-.47-.043zm21.854 1.324q-1.651.843-3.222.734t-2.923-1.136q-1.338-1.036-2.302-2.928-.98-1.924-1.027-3.639-.045-1.714.781-3.065t2.462-2.185 3.199-.701q1.578.124 2.94 1.168 1.351 1.028 2.333 2.952.964 1.893 1.002 3.59.054 1.69-.773 3.041-.835 1.335-2.47 2.17m-.85-1.708q1.442-.735 1.609-2.113.174-1.402-.987-3.68-1.185-2.325-2.44-3.04-1.26-.73-2.704.006-1.459.744-1.625 2.202-.158 1.435 1.028 3.76 1.153 2.26 2.39 2.943 1.253.675 2.728-.078m12.122-8.054a2.05 2.05 0 0 1-1.1-.013 2.2 2.2 0 0 1-.944-.556 2.05 2.05 0 0 1-.544-.957 2 2 0 0 1 .014-1.1q.157-.543.556-.943.398-.4.956-.544a2.08 2.08 0 0 1 2.043.57q.396.38.544.956.144.557-.013 1.1a2.08 2.08 0 0 1-1.512 1.487"/><path fill="#fff" d="M79.333 105.917V72.084L105.917 89z"/></svg>