<svg xmlns="http://www.w3.org/2000/svg" width="178" height="178" fill="none" viewBox="0 0 178 178"><circle cx="89" cy="89" r="89" fill="#15100a"/><circle cx="89" cy="89" r="54" fill="#f47721"/><path fill="#f47721" d="M96.609 27.004q-1.77-.216-2.991-1.198-1.203-.998-1.733-2.604-.53-1.605-.28-3.66.257-2.127 1.196-3.572.936-1.445 2.377-2.105 1.442-.676 3.23-.46 1.375.168 2.418.838 1.043.672 1.637 1.596.612.927.656 1.911.026.24-.019.306-.044.067-.209.083l-2.021.063q-.142-.018-.19-.078a.7.7 0 0 1-.047-.205 2.7 2.7 0 0 0-.344-1.202 2.56 2.56 0 0 0-.847-.937q-.55-.394-1.319-.487-1-.122-1.778.31-.76.433-1.266 1.46-.487 1.028-.691 2.708-.216 1.77.027 2.904.243 1.136.912 1.743.672.59 1.673.711.679.083 1.205-.07.544-.152.943-.448.4-.315.65-.719.268-.42.394-.859l.105-.712q.1-.224-.133-.252l-2.43-.296a.32.32 0 0 1-.19-.077q-.046-.06-.027-.221l.139-1.144q.026-.214.276-.183l4.644.582q.214.026.308.146a.31.31 0 0 1 .077.264l-.743 6.11a.27.27 0 0 1-.095.189q-.06.046-.168.034l-.518-.063a.6.6 0 0 1-.244-.084.56.56 0 0 1-.152-.237l-.222-1.459q-.027-.075-.08-.082-.037-.005-.1.078-.394.405-.947.774-.535.37-1.3.549-.747.18-1.783.055m12.046-11.326q.096-.291.352-.206l8.291 2.734q.222.073.138.33l-.429 1.298q-.106.325-.415.224l-5.641-1.86q-.291-.096-.369.143l-.987 2.992q-.084.255.155.335l3.898 1.285q.256.085.171.341l-.456 1.385a.27.27 0 0 1-.102.137q-.069.035-.205-.01l-3.932-1.297q-.222-.074-.29.131l-1.048 3.18q-.067.206.12.267l5.983 1.973q.274.09.195.33l-.457 1.384a.3.3 0 0 1-.13.166q-.091.046-.245-.005l-8.359-2.757q-.325-.107-.224-.414zm12.488 4.474a.27.27 0 0 1 .159-.138q.106-.044.249.035l8.838 4.922q.142.078.16.192a.27.27 0 0 1-.033.208l-.683 1.227q-.123.22-.374.08l-3.02-1.682q-.173-.096-.26.061l-5.316 9.546q-.148.267-.385.136l-1.871-1.042q-.22-.122-.08-.374l5.307-9.53q.105-.189-.068-.285l-3.161-1.76q-.267-.15-.145-.37zm20.929 14.18a5.7 5.7 0 0 1 1.138 1.519q.436.819.568 1.694.144.864-.018 1.681a4.1 4.1 0 0 1-.619 1.502q-.136.22-.225.233-.075.027-.192-.06l-1.579-1.318q-.104-.099-.092-.163a1 1 0 0 1 .085-.193q.543-.876.499-1.792-.031-.929-.823-1.69-1.103-1.06-2.536-.79t-3.204 2.114q-1.747 1.816-1.986 3.234-.227 1.43.955 2.566.804.773 1.75.932.957.147 2.219-.438.138-.066.296.16l.878 1.293a.22.22 0 0 1 .029.152q.001.102-.186.246a4.3 4.3 0 0 1-.909.4 5.7 5.7 0 0 1-1.205.24q-.66.064-1.401-.074a5.4 5.4 0 0 1-1.474-.493 5.9 5.9 0 0 1-1.46-1.053q-1.323-1.273-1.698-2.83-.362-1.547.192-3.162.565-1.628 2.013-3.133 1.46-1.518 3.026-2.11 1.568-.59 3.101-.265 1.535.326 2.858 1.599m-1.274 19.814q-1.038-1.536-1.122-3.108t.77-3.04q.864-1.455 2.625-2.642 1.79-1.209 3.485-1.465 1.696-.255 3.138.4 1.441.656 2.47 2.177 1.027 1.521 1.087 3.089.07 1.582-.8 3.06-.855 1.468-2.645 2.677-1.76 1.189-3.441 1.434-1.67.26-3.112-.395-1.428-.666-2.455-2.187m1.591-1.053q.907 1.342 2.295 1.339 1.413 0 3.531-1.43 2.162-1.46 2.718-2.792.572-1.341-.336-2.684-.917-1.358-2.384-1.343-1.443.019-3.606 1.48-2.103 1.42-2.629 2.732-.516 1.326.411 2.698m19.229 12.935q.078.201-.156.293l-11.944 4.696a.24.24 0 0 1-.217-.011q-.093-.041-.146-.175l-.547-1.39a1 1 0 0 1-.062-.208q0-.097.088-.267l5.889-8.93q.075-.105.031-.167-.036-.043-.12-.01l-8.041 3.16q-.261.123-.38-.179l-.579-1.474q-.118-.3.149-.407l11.877-4.669q.285-.113.39.156l.659 1.675q.066.168.049.271a.53.53 0 0 1-.096.25l-5.652 8.45q-.095.154-.051.214.066.07.2.018l7.673-3.016q.267-.106.373.162zm-.039 13.43q.388-.504.637-1.186.248-.683.062-1.764-.204-1.19-.772-1.73-.569-.543-1.331-.411a1.5 1.5 0 0 0-.514.198q-.263.172-.488.558-.205.4-.306 1.094l-.346 2.872q-.2 1.715-1.035 2.589-.815.888-2.075 1.105-1.206.207-2.2-.261-.993-.47-1.667-1.522-.657-1.056-.928-2.635a8.6 8.6 0 0 1-.106-2.21 6.1 6.1 0 0 1 .476-1.908 4.6 4.6 0 0 1 1.011-1.452q.126-.112.236-.114a.46.46 0 0 1 .261.138l.972.984q.161.191.162.3a.34.34 0 0 1-.088.235 7 7 0 0 0-.791 1.03 3.1 3.1 0 0 0-.358 1.103q-.08.599.06 1.414.213 1.242.75 1.917.554.672 1.44.52.355-.06.612-.27.276-.194.464-.59.19-.381.291-1.074l.356-2.818q.143-1.085.558-1.85a3.8 3.8 0 0 1 1.089-1.21 3.45 3.45 0 0 1 1.415-.59q1.135-.195 2.108.259.99.45 1.676 1.465t.939 2.487q.165.959.077 1.832a5.6 5.6 0 0 1-.358 1.632 4 4 0 0 1-.781 1.303.6.6 0 0 1-.177.14q-.083.05-.231-.07l-1.157-1.098q-.086-.076-.083-.168.023-.078.14-.243m-5.31 16.476q-1.781-.046-2.863-.686a3.54 3.54 0 0 1-1.538-1.822q-.456-1.164-.414-2.802.048-1.87.671-2.99a3.6 3.6 0 0 1 1.806-1.61q1.2-.49 2.928-.447l7.935.204q.324.008.318.26l-.056 2.16q-.006.251-.294.244l-8.367-.215q-1.53-.039-2.249.627-.72.683-.754 2.015-.021.846.25 1.483.29.637.947.997.657.359 1.719.386l8.295.213q.306.007.299.26l-.043 1.709q-.006.234-.294.226zm7.698 5.142q.3.062.246.326l-.431 2.098q-.05.248-.333.189l-10.65-2.184q-.212-.043-.251.15l-1.187 5.784q-.058.282-.304.231l-1.429-.293a.3.3 0 0 1-.179-.11q-.055-.085-.024-.244l1.69-8.234q.04-.195.124-.25a.4.4 0 0 1 .262-.02zm-2.388 10.434a.26.26 0 0 1 .16.137q.06.099.002.251l-3.552 9.471q-.056.152-.167.188a.27.27 0 0 1-.21-.002l-1.315-.493q-.236-.089-.135-.359l1.214-3.235q.069-.186-.099-.249l-10.23-3.837q-.286-.107-.192-.36l.752-2.006q.089-.236.359-.135l10.213 3.831q.202.076.272-.11l1.27-3.387q.108-.286.344-.198zm-16.055 5.146q.065-.11.21-.106.144.002.279.165l8.518 10.311a.6.6 0 0 1 .134.267q.016.114-.075.269l-1.146 1.937q-.192.325-.566.25l-13.105-2.525a.4.4 0 0 1-.248-.147q-.096-.12-.023-.243l1.109-1.875q.129-.216.367-.16l3.041.587q.087.03.145.002.065-.003.12-.096l2.392-4.044q.082-.14-.029-.268l-1.991-2.433a.22.22 0 0 1-.084-.175q-.01-.09.063-.214zm.84 9.114q-.119.201.175.27l5.016.961q.136.017.173-.045t-.06-.181l-3.232-3.941q-.192-.24-.321-.023zm3.109 9.193a.27.27 0 0 1 .101.185q.021.113-.087.235l-6.677 7.599q-.106.121-.222.117a.27.27 0 0 1-.196-.077l-1.055-.927q-.19-.166.001-.382l2.281-2.597q.13-.148-.004-.267l-8.208-7.212q-.23-.202-.052-.405l1.414-1.609q.167-.19.383.001l8.194 7.2q.162.142.293-.006l2.388-2.718q.202-.23.391-.064zm-11.509 12.538q-.192.165-.379-.053l-8.272-9.6q-.141-.164-.118-.302.009-.127.186-.28l1.418-1.222q.165-.14.266-.133a.4.4 0 0 1 .219.144l8.307 9.64q.2.233-.005.408zM122 142.006q1.571-.984 3.145-1.014t3.012.875q1.422.914 2.549 2.714 1.147 1.831 1.343 3.535.196 1.703-.509 3.122-.704 1.418-2.26 2.392-1.556.975-3.125.98-1.583.015-3.03-.905-1.438-.905-2.584-2.736-1.128-1.8-1.314-3.488-.202-1.68.502-3.097.714-1.404 2.271-2.378m.997 1.627q-1.373.86-1.417 2.247-.05 1.412 1.306 3.578 1.385 2.211 2.697 2.814 1.32.617 2.694-.243 1.387-.87 1.425-2.337.03-1.443-1.355-3.655-1.347-2.15-2.639-2.722-1.308-.561-2.711.318m-13.627 18.756q-.204.072-.288-.166l-4.255-12.108a.24.24 0 0 1 .02-.217q.044-.092.18-.14l1.409-.495q.118-.042.21-.055a.65.65 0 0 1 .263.099l8.708 6.212q.105.078.166.037.045-.035.015-.12l-2.864-8.151q-.113-.266.193-.373l1.494-.525q.306-.108.401.164l4.232 12.04q.101.289-.171.384l-1.698.597a.53.53 0 0 1-.272.039.5.5 0 0 1-.247-.105l-8.237-5.958q-.15-.1-.212-.059-.073.064-.025.2l2.733 7.778q.096.271-.176.367zm-11.97-6.333q.57-.07 1.089.155.518.227.863.674t.416 1.019q.072.59-.156 1.089-.225.518-.673.863-.447.345-1.019.416a2.08 2.08 0 0 1-1.952-.829 2 2 0 0 1-.416-1.019 2.04 2.04 0 0 1 .155-1.089q.21-.516.656-.861.447-.346 1.037-.418m-14.036-4.857q1.774.156 3.03 1.097 1.235.958 1.818 2.545.584 1.588.402 3.649-.187 2.134-1.076 3.61-.888 1.476-2.305 2.183-1.42.725-3.212.567-1.38-.121-2.445-.757t-1.69-1.54q-.644-.906-.72-1.888-.034-.238.009-.306.042-.069.207-.091l2.017-.13q.143.013.192.071.032.057.055.204.052.637.383 1.19.313.552.878.908.564.375 1.334.443 1.005.089 1.767-.369.745-.459 1.216-1.501.453-1.046.602-2.73.156-1.776-.125-2.902-.28-1.127-.97-1.712-.69-.566-1.695-.654-.681-.06-1.203.111-.538.17-.927.478-.39.328-.625.741-.255.429-.366.871l-.08.716q-.093.226.14.247l2.439.214a.32.32 0 0 1 .192.071q.05.058.035.22l-.1 1.148q-.02.214-.27.193l-4.661-.428q-.215-.018-.313-.136a.3.3 0 0 1-.086-.26l.539-6.132a.27.27 0 0 1 .089-.191q.058-.05.166-.04l.52.046a.54.54 0 0 1 .246.076.6.6 0 0 1 .16.23l.27 1.452q.03.075.084.079.036.003.097-.082a5.8 5.8 0 0 1 .92-.804q.522-.388 1.281-.592.741-.207 1.781-.115m-11.698 11.706q-.087.294-.346.217l-8.37-2.482q-.224-.067-.147-.325l.389-1.312q.096-.327.407-.236l5.695 1.689q.294.087.365-.155l.896-3.02q.076-.258-.165-.33l-3.935-1.167q-.258-.077-.182-.335l.415-1.398a.26.26 0 0 1 .098-.14q.067-.037.205.004l3.969 1.177q.225.067.286-.14l.952-3.21q.06-.207-.129-.264l-6.04-1.791q-.276-.081-.204-.323l.414-1.398a.3.3 0 0 1 .125-.169q.09-.05.245-.003l8.439 2.502q.327.098.236.408zm-12.6-4.084a.27.27 0 0 1-.155.143q-.105.048-.249-.027l-8.99-4.638q-.143-.074-.167-.187a.27.27 0 0 1 .027-.209l.644-1.248q.115-.224.371-.092l3.072 1.585q.176.09.258-.07l5.01-9.709q.14-.273.38-.149l1.903.982q.224.115.092.372l-5 9.694q-.1.192.076.283l3.215 1.658q.273.14.157.365zm-21.372-13.482a5.7 5.7 0 0 1-1.187-1.481 5.2 5.2 0 0 1-.623-1.675 4.6 4.6 0 0 1-.037-1.68q.135-.824.57-1.521.13-.224.218-.241.074-.03.194.053l1.62 1.267q.108.096.099.16-.022.078-.08.196-.514.893-.44 1.807.06.927.877 1.662 1.137 1.023 2.56.707 1.424-.317 3.135-2.216 1.685-1.872 1.88-3.297.178-1.437-1.038-2.533-.83-.747-1.78-.876-.96-.116-2.203.511-.137.07-.301-.15l-.92-1.265a.23.23 0 0 1-.034-.151q-.005-.102.178-.252.358-.236.895-.429a5.7 5.7 0 0 1 1.197-.279 5 5 0 0 1 1.403.028q.732.103 1.49.445a5.9 5.9 0 0 1 1.492 1.005q1.364 1.229 1.79 2.774.411 1.534-.09 3.166-.513 1.646-1.91 3.197-1.41 1.565-2.956 2.207-1.548.64-3.091.365-1.545-.276-2.908-1.504m.641-19.854q1.084 1.504 1.216 3.073.132 1.57-.677 3.062-.82 1.479-2.544 2.721-1.751 1.263-3.44 1.569-1.686.306-3.148-.305-1.461-.61-2.534-2.1-1.075-1.49-1.18-3.054-.12-1.58.706-3.084.81-1.493 2.562-2.756 1.723-1.242 3.396-1.537 1.663-.31 3.123.3 1.446.622 2.52 2.111m-1.558 1.101q-.948-1.314-2.335-1.268-1.412.04-3.486 1.536-2.117 1.526-2.632 2.873-.53 1.359.417 2.673.959 1.329 2.424 1.27 1.442-.062 3.56-1.589 2.058-1.484 2.544-2.81.475-1.341-.492-2.685m-19.63-12.297q-.085-.199.146-.299l11.781-5.09a.24.24 0 0 1 .218.005q.094.037.151.169l.593 1.372q.05.115.07.205a.65.65 0 0 1-.08.27l-5.59 9.12q-.07.11-.025.168.038.043.12.007l7.932-3.427q.257-.13.386.167l.628 1.454q.129.298-.136.412l-11.716 5.061q-.28.122-.395-.143l-.713-1.652a.54.54 0 0 1-.058-.269.53.53 0 0 1 .087-.254l5.368-8.633q.09-.156.044-.215-.068-.068-.2-.011l-7.568 3.269q-.265.115-.38-.15zm-.4-13.441a4.4 4.4 0 0 0-.597 1.207q-.226.689-.006 1.765.242 1.182.827 1.705t1.343.368q.247-.051.507-.215.257-.18.47-.574.194-.406.27-1.102l.256-2.882q.143-1.72.951-2.62.787-.915 2.038-1.171 1.2-.245 2.208.19 1.008.437 1.715 1.468.69 1.035 1.011 2.604.236 1.146.177 2.206a6.1 6.1 0 0 1-.415 1.922 4.6 4.6 0 0 1-.964 1.484q-.123.117-.232.121a.46.46 0 0 1-.266-.13l-1.003-.952q-.167-.186-.17-.295a.34.34 0 0 1 .08-.237q.473-.556.757-1.056a3.1 3.1 0 0 0 .323-1.113q.06-.6-.106-1.412-.252-1.234-.81-1.892-.575-.654-1.456-.473a1.3 1.3 0 0 0-.603.289q-.27.203-.445.606-.179.385-.256 1.081l-.266 2.829q-.108 1.087-.5 1.866-.412.764-1.05 1.244-.636.48-1.394.635-1.13.23-2.116-.191-1.004-.42-1.722-1.411t-1.018-2.456a6.8 6.8 0 0 1-.135-1.828 5.6 5.6 0 0 1 .306-1.643 4 4 0 0 1 .739-1.327.6.6 0 0 1 .172-.146q.081-.053.233.063l1.192 1.06q.088.073.089.166a1 1 0 0 1-.133.247m4.788-16.64q1.782-.012 2.883.595a3.54 3.54 0 0 1 1.594 1.772q.493 1.15.503 2.788.01 1.871-.577 3.009a3.6 3.6 0 0 1-1.755 1.666q-1.184.529-2.912.539l-7.938.046q-.324.002-.326-.25l-.012-2.16q-.002-.252.286-.254l8.37-.048q1.53-.009 2.228-.697.697-.706.69-2.038-.005-.846-.296-1.475a2.12 2.12 0 0 0-.978-.966q-.668-.338-1.73-.332l-8.298.048q-.306.002-.307-.25l-.01-1.71q0-.233.287-.236zm-7.857-4.896q-.302-.051-.256-.318l.363-2.11q.043-.25.327-.2l10.714 1.844q.213.037.247-.158l1.001-5.819q.05-.284.297-.24l1.437.247a.3.3 0 0 1 .183.104q.06.084.032.243l-1.427 8.284q-.032.195-.116.254a.4.4 0 0 1-.26.028zm2.06-10.52a.27.27 0 0 1-.165-.131q-.06-.097-.01-.25l3.26-9.577q.052-.154.16-.193a.27.27 0 0 1 .211-.004l1.33.452q.238.081.145.354l-1.113 3.272q-.064.187.106.245l10.344 3.52q.29.099.202.355l-.69 2.028q-.081.238-.354.145l-10.326-3.514q-.204-.07-.268.118l-1.166 3.425q-.099.29-.337.208zm15.887-5.638q-.061.11-.206.113-.146.003-.284-.156l-8.858-10.02a.6.6 0 0 1-.143-.264q-.021-.113.066-.271l1.08-1.974q.183-.33.558-.269L37.02 52.4q.152.021.253.138.1.117.03.243l-1.045 1.91q-.12.222-.361.172l-3.06-.484q-.087-.028-.144.002-.065.006-.117.1l-2.256 4.121q-.078.142.038.268l2.071 2.365a.22.22 0 0 1 .09.172.36.36 0 0 1-.056.216zm-1.144-9.08q.113-.207-.184-.265l-5.045-.793q-.136-.013-.17.05-.036.063.065.18l3.361 3.83q.2.234.322.013zm-3.397-9.104a.27.27 0 0 1-.107-.182q-.024-.112.08-.238l6.434-7.806q.103-.125.218-.123a.27.27 0 0 1 .199.07l1.083.893q.195.16.011.383l-2.198 2.667q-.126.152.013.267l8.431 6.95q.237.194.065.402l-1.363 1.653q-.16.195-.382.011L31.15 42.98q-.168-.138-.293.015l-2.301 2.792q-.195.235-.39.076zm11.13-12.907q.185-.171.38.042l8.556 9.347q.146.16.127.299-.006.128-.178.285L45.72 43.3q-.16.145-.262.141a.4.4 0 0 1-.223-.137l-8.593-9.387q-.207-.225-.008-.408zm16.122 5.012q-1.542 1.03-3.114 1.109-1.572.077-3.037-.784-1.45-.87-2.63-2.637-1.2-1.794-1.449-3.492-.247-1.696.414-3.136.661-1.439 2.188-2.46 1.526-1.02 3.093-1.073 1.582-.062 3.057.814 1.465.861 2.665 2.656 1.181 1.766 1.42 3.447.251 1.672-.41 3.111-.672 1.424-2.197 2.445m-1.047-1.596q1.347-.9 1.35-2.288.007-1.413-1.414-3.538-1.452-2.169-2.78-2.73-1.34-.577-2.686.323-1.362.911-1.354 2.379.012 1.443 1.464 3.612 1.411 2.11 2.72 2.641 1.325.522 2.7-.399M66.285 16.3q.202-.078.293.157l4.66 11.958a.24.24 0 0 1-.012.217q-.04.093-.175.145l-1.392.543a1 1 0 0 1-.208.062.65.65 0 0 1-.266-.09l-8.913-5.916q-.106-.075-.166-.031-.044.036-.012.12l3.137 8.05q.121.263-.18.38l-1.476.575q-.302.117-.406-.15l-4.634-11.892q-.111-.285.157-.39l1.677-.653a.54.54 0 0 1 .271-.048q.097 0 .25.096l8.433 5.678q.153.094.214.052.07-.066.018-.2l-2.993-7.682q-.105-.268.164-.373zm12.19 5.929q-.568.088-1.093-.123a2.2 2.2 0 0 1-.883-.646 2.04 2.04 0 0 1-.447-1.006q-.09-.587.122-1.093.21-.525.647-.883.436-.36 1.005-.447a2.08 2.08 0 0 1 1.977.769q.356.419.447 1.005.088.57-.122 1.094a2.08 2.08 0 0 1-1.652 1.33"/><path fill="#fff" d="m75.467 103.5-3.384-3.383 23.2-23.2H74.5v-4.834h29v29h-4.833V80.3z"/></svg>