<svg xmlns="http://www.w3.org/2000/svg" width="178" height="178" fill="none" viewBox="0 0 178 178"><circle cx="89" cy="89" r="89" fill="#f47721"/><circle cx="89" cy="89" r="54" fill="#15100a"/><path fill="#15100a" d="M98.277 13.358q.984.114 1.824.521a5.2 5.2 0 0 1 1.477 1.006q.638.6 1.002 1.35.366.75.415 1.57.024.258-.038.322-.043.068-.189.069l-2.055-.095q-.143-.017-.173-.075a1 1 0 0 1-.048-.205q-.098-1.026-.686-1.73-.586-.72-1.677-.848-1.52-.178-2.498.905-.978 1.081-1.275 3.62-.293 2.503.375 3.777.684 1.276 2.31 1.466 1.11.13 1.959-.315.85-.462 1.502-1.69.07-.138.332-.052l1.482.499a.22.22 0 0 1 .115.104q.063.08 0 .308a4.2 4.2 0 0 1-.482.868q-.326.47-.814.92t-1.161.788a5.4 5.4 0 0 1-1.472.499 5.9 5.9 0 0 1-1.8.043q-1.823-.213-3.063-1.228-1.224-1.013-1.759-2.634-.533-1.638-.29-3.713.243-2.091 1.135-3.51.89-1.417 2.31-2.085 1.418-.668 3.242-.455m10.96 16.57q-1.754-.6-2.769-1.805-1.015-1.204-1.216-2.89-.186-1.68.503-3.69.7-2.044 1.9-3.269t2.746-1.57 3.282.249 2.729 1.81q1.008 1.221 1.205 2.925.201 1.686-.499 3.73-.688 2.01-1.882 3.217-1.177 1.215-2.723 1.56-1.539.328-3.276-.267m.635-1.799q1.533.526 2.638-.314 1.13-.85 1.957-3.268.847-2.47.488-3.866-.352-1.415-1.885-1.94-1.55-.531-2.712.364-1.14.885-1.987 3.353-.822 2.401-.452 3.765.387 1.37 1.953 1.906m23.131-1.29q.184.113.054.327l-6.685 10.956a.24.24 0 0 1-.18.122q-.099.024-.222-.051l-1.275-.778a1 1 0 0 1-.175-.128.65.65 0 0 1-.091-.266l-.699-10.674q-.004-.13-.076-.152-.055-.013-.102.064l-4.5 7.375q-.135.256-.411.087l-1.353-.825q-.276-.169-.126-.415l6.647-10.894q.159-.261.405-.111l1.537.937q.154.094.202.187a.5.5 0 0 1 .075.257l.598 10.148q.017.18.088.202.096.015.171-.107l4.294-7.038q.15-.245.395-.095zm3.689 3.008a.27.27 0 0 1 .186-.098q.114-.018.234.09l7.482 6.809q.12.108.113.224a.27.27 0 0 1-.08.194l-.945 1.039q-.17.186-.383-.007l-2.556-2.326q-.146-.135-.267 0l-7.354 8.081q-.205.226-.405.045l-1.584-1.442q-.187-.169.007-.383l7.341-8.068q.145-.16-.001-.293l-2.676-2.435q-.227-.206-.057-.392zm-1.17 16.822q-.076-.1-.02-.234.057-.135.258-.197l12.752-4.032a.6.6 0 0 1 .299-.024q.111.027.221.17l1.366 1.789q.23.3.019.619l-7.253 11.202a.4.4 0 0 1-.229.175q-.147.045-.235-.07l-1.322-1.731q-.153-.2-.01-.4l1.683-2.6q.062-.068.057-.133.021-.06-.045-.147l-2.851-3.734q-.099-.129-.26-.073l-3.002.933a.22.22 0 0 1-.194.013q-.087-.024-.174-.139zm8.765 2.637q.141.186.316-.06l2.77-4.29q.067-.12.024-.177t-.191-.013l-4.865 1.519q-.294.09-.141.289zm13.603 7.052q.432.891.542 1.818a5.3 5.3 0 0 1-.055 1.787 4.6 4.6 0 0 1-.599 1.57q-.435.712-1.101 1.194-.204.159-.292.142-.081 0-.159-.123l-1.025-1.784q-.063-.13-.03-.185a1 1 0 0 1 .147-.151q.813-.635 1.089-1.508.292-.883-.186-1.87-.668-1.377-2.105-1.62-1.439-.244-3.738.871-2.268 1.1-2.984 2.346-.708 1.264.007 2.737.486 1.005 1.318 1.482.847.47 2.233.358.153-.015.223.252l.375 1.518q.016.073-.026.153-.034.096-.259.165a4.3 4.3 0 0 1-.991.06 5.7 5.7 0 0 1-1.214-.191 5 5 0 0 1-1.289-.556 5.4 5.4 0 0 1-1.211-.973 5.8 5.8 0 0 1-1.004-1.493q-.801-1.653-.612-3.244.196-1.575 1.275-2.899 1.096-1.33 2.974-2.241 1.896-.92 3.57-.93 1.674-.012 3.001.826 1.326.837 2.126 2.49m3.106 8.355a.27.27 0 0 1 .209.02q.105.047.146.204l2.539 9.792q.04.158-.028.249a.27.27 0 0 1-.174.12l-1.359.352q-.244.063-.316-.216l-.867-3.345q-.05-.192-.224-.147l-10.577 2.743q-.295.077-.364-.185l-.537-2.073q-.064-.244.215-.316l10.559-2.738q.21-.054.159-.246l-.908-3.502q-.076-.297.167-.36zm-4.57 29.66q-1.782-.005-2.878-.62a3.54 3.54 0 0 1-1.579-1.786q-.483-1.154-.478-2.791.005-1.872.603-3.005a3.6 3.6 0 0 1 1.768-1.65q1.19-.519 2.918-.514l7.938.022q.324 0 .323.253l-.006 2.16q-.001.252-.289.251l-8.37-.023q-1.53-.004-2.234.677-.704.7-.708 2.032-.001.846.284 1.477.304.63.97.975.665.344 1.727.347l8.298.023q.305 0 .305.253l-.005 1.71q0 .234-.289.233zm3.686 12.079a4.4 4.4 0 0 0 1.022-.877q.477-.546.695-1.622.24-1.182-.094-1.893-.334-.71-1.093-.863a1.5 1.5 0 0 0-.55-.002q-.307.067-.658.345-.335.3-.68.909l-1.361 2.553q-.804 1.527-1.9 2.04-1.082.534-2.334.28-1.2-.242-1.957-1.038t-1.005-2.022q-.23-1.221.087-2.792a8.6 8.6 0 0 1 .7-2.099 6.1 6.1 0 0 1 1.134-1.607 4.6 4.6 0 0 1 1.467-.989q.159-.06.261-.02a.46.46 0 0 1 .194.223l.551 1.268q.081.237.042.34a.34.34 0 0 1-.167.186 7 7 0 0 0-1.11.675 3.1 3.1 0 0 0-.732.899q-.291.528-.455 1.34-.25 1.236.006 2.058.274.826 1.156 1.005.352.072.667-.03.328-.08.647-.383.315-.285.658-.895l1.351-2.5q.525-.96 1.189-1.523a3.8 3.8 0 0 1 1.453-.734 3.44 3.44 0 0 1 1.532-.04q1.13.229 1.872 1.004.76.778 1.034 1.972.272 1.194-.024 2.658a6.8 6.8 0 0 1-.59 1.736q-.382.804-.924 1.392a4 4 0 0 1-1.199.933.6.6 0 0 1-.215.066q-.095.018-.191-.148l-.681-1.442q-.052-.102-.018-.187.05-.063.22-.176m-8.882 8.965q.225-.53.68-.865a2.2 2.2 0 0 1 1.015-.41 2.03 2.03 0 0 1 1.09.15q.547.231.865.68.336.454.41 1.015.075.56-.15 1.09a2.07 2.07 0 0 1-.687.881 2.04 2.04 0 0 1-1.008.394 2 2 0 0 1-1.09-.15 2.05 2.05 0 0 1-.865-.68 2.08 2.08 0 0 1-.26-2.105m-.071 17.651q-.57.81-1.327 1.356a5.2 5.2 0 0 1-1.588.821 4.7 4.7 0 0 1-1.664.239 4.1 4.1 0 0 1-1.578-.383q-.238-.102-.266-.187-.037-.07.03-.199l1.062-1.762q.082-.117.148-.116.08.012.203.055.949.403 1.847.22.913-.172 1.545-1.071.879-1.252.393-2.627t-2.577-2.845q-2.062-1.448-3.5-1.468-1.448-.006-2.389 1.335-.642.912-.655 1.871.001.969.772 2.127.087.126-.113.316l-1.144 1.066a.23.23 0 0 1-.146.052q-.1.016-.272-.147a4.3 4.3 0 0 1-.533-.837 5.7 5.7 0 0 1-.422-1.154 5 5 0 0 1-.14-1.396 5.4 5.4 0 0 1 .262-1.532 5.8 5.8 0 0 1 .818-1.603q1.055-1.503 2.538-2.111 1.473-.593 3.153-.292 1.696.31 3.404 1.511 1.724 1.21 2.547 2.669.824 1.458.735 3.024t-1.143 3.068m-19.773 1.768q1.36-1.261 2.9-1.585t3.122.295q1.569.632 3.013 2.189 1.47 1.583 1.981 3.22.512 1.636.086 3.162-.427 1.524-1.773 2.774-1.346 1.248-2.885 1.547-1.552.312-3.147-.321-1.581-.62-3.051-2.203-1.445-1.557-1.944-3.181-.513-1.61-.086-3.136.438-1.512 1.784-2.761m1.285 1.411q-1.188 1.102-.972 2.473.216 1.397 1.954 3.27 1.775 1.913 3.176 2.258 1.413.359 2.601-.743 1.2-1.115.962-2.562-.24-1.424-2.015-3.336-1.726-1.861-3.103-2.18-1.39-.306-2.603.82m-9.832 20.985q-.186.11-.314-.108l-6.473-11.082a.24.24 0 0 1-.022-.217q.025-.098.15-.171l1.29-.753a1 1 0 0 1 .196-.094.65.65 0 0 1 .277.047l9.728 4.448q.117.057.17.006.037-.043-.008-.121l-4.358-7.46q-.161-.24.119-.403l1.368-.799q.28-.164.425.085l6.437 11.02q.154.264-.095.409l-1.554.908a.55.55 0 0 1-.26.09.5.5 0 0 1-.262-.056l-9.218-4.288q-.165-.07-.219-.018-.059.077.014.2l4.158 7.119q.145.249-.104.394zm-4.373 1.813a.27.27 0 0 1-.002.211q-.038.109-.191.163l-9.535 3.376q-.153.054-.251-.007a.27.27 0 0 1-.134-.162l-.469-1.324q-.084-.237.188-.333l3.258-1.154q.186-.066.126-.236l-3.647-10.299q-.102-.29.153-.379l2.019-.715q.237-.084.334.188l3.64 10.282q.073.204.259.138l3.411-1.208q.288-.102.372.135zm-14.272-8.985q.124-.02.215.094.09.113.05.32l-2.529 13.133a.6.6 0 0 1-.121.275q-.078.084-.255.113l-2.223.349q-.374.058-.554-.278l-6.395-11.713a.4.4 0 0 1-.044-.285q.03-.15.173-.173l2.151-.338q.249-.04.357.181l1.484 2.719q.03.086.09.113.045.048.151.031l4.641-.729q.16-.025.188-.193l.609-3.084a.22.22 0 0 1 .082-.177.36.36 0 0 1 .205-.087zm-6.494 6.45q-.231.036-.098.307l2.453 4.479q.073.117.144.105.07-.01.102-.161l.982-5.001q.062-.302-.187-.263zm-12.671 8.609a5.7 5.7 0 0 1-1.857-.389 5.3 5.3 0 0 1-1.545-.897 4.7 4.7 0 0 1-1.097-1.274 4.1 4.1 0 0 1-.526-1.537q-.043-.253.014-.324.039-.07.184-.081l2.056-.053q.144.006.178.061.032.074.063.201.17 1.017.808 1.676.637.677 1.734.725 1.529.069 2.426-1.081.899-1.15 1.011-3.703.113-2.517-.645-3.74-.774-1.224-2.41-1.296-1.116-.05-1.93.455-.817.522-1.378 1.794-.06.142-.327.076l-1.514-.391a.23.23 0 0 1-.122-.096q-.07-.075-.023-.307a4.3 4.3 0 0 1 .418-.901 5.7 5.7 0 0 1 .746-.976 5 5 0 0 1 1.102-.87q.63-.386 1.432-.603a5.9 5.9 0 0 1 1.792-.173q1.833.082 3.144 1.005 1.293.922 1.943 2.5.651 1.597.558 3.683-.093 2.103-.88 3.582-.786 1.479-2.153 2.247-1.368.768-3.202.687m-8.792-1.232a.27.27 0 0 1-.117.176q-.092.07-.249.032l-9.828-2.397q-.158-.039-.206-.143a.27.27 0 0 1-.023-.209l.333-1.364q.06-.245.339-.177l3.358.819q.192.046.235-.128l2.588-10.615q.073-.297.335-.233l2.081.507q.244.06.177.34l-2.585 10.597q-.051.21.142.257l3.515.857q.297.072.237.317zM52.273 145.8q.85-1.566 1.913-2.238a3.54 3.54 0 0 1 2.322-.54q1.244.123 2.684.906 1.644.894 2.357 1.957.713 1.065.612 2.341-.109 1.293-.935 2.811l-3.792 6.974q-.154.284-.376.164l-1.898-1.032q-.22-.12-.083-.373l3.998-7.353q.731-1.344.466-2.288-.282-.952-1.452-1.588-.743-.404-1.434-.452a2.1 2.1 0 0 0-1.318.389q-.62.422-1.126 1.355l-3.965 7.29q-.146.268-.367.148l-1.502-.817q-.206-.111-.068-.365zm-12.377-2.497q.032.636.286 1.316.253.68 1.097 1.383.925.773 1.71.816.783.044 1.279-.551.16-.193.263-.484.087-.301.009-.742-.104-.438-.477-1.03l-1.6-2.411q-.96-1.434-.891-2.641.045-1.206.862-2.187.784-.94 1.844-1.228t2.256.076q1.185.378 2.416 1.404a8.6 8.6 0 0 1 1.514 1.613q.6.853.875 1.761.26.897.173 1.761-.024.168-.106.24a.46.46 0 0 1-.288.064l-1.379-.118q-.246-.041-.318-.124a.34.34 0 0 1-.085-.235 7 7 0 0 0-.067-1.298 3.1 3.1 0 0 0-.442-1.071q-.328-.507-.963-1.038-.968-.806-1.814-.972-.858-.153-1.433.539-.23.276-.29.601-.087.327.029.752.102.413.475 1.004l1.557 2.377q.595.916.775 1.77.154.855-.044 1.627-.2.772-.694 1.366-.738.886-1.773 1.171-1.046.3-2.226-.028-1.18-.327-2.328-1.284a6.8 6.8 0 0 1-1.246-1.344 5.6 5.6 0 0 1-.786-1.475 4 4 0 0 1-.251-1.498.6.6 0 0 1 .044-.221q.03-.092.221-.097l1.593.086q.114.002.172.073.033.075.051.277m-3.659-12.075q.36.45.44 1.009.078.56-.12 1.088-.2.529-.65.889-.463.371-1.008.439a2.2 2.2 0 0 1-1.088-.121 2.04 2.04 0 0 1-.89-.648 2.1 2.1 0 0 1-.45-1.023 2.04 2.04 0 0 1 .132-1.074q.186-.517.649-.889.45-.36 1.009-.439a2.08 2.08 0 0 1 1.977.769M20.72 122.83a5.7 5.7 0 0 1-.568-1.81 5.2 5.2 0 0 1 .028-1.787q.15-.861.575-1.579a4.1 4.1 0 0 1 1.084-1.21q.2-.162.29-.146.08 0 .16.121l1.052 1.768q.065.128.032.185-.048.064-.144.153-.804.646-1.067 1.524-.28.886.214 1.867.687 1.368 2.13 1.589 1.44.222 3.724-.927 2.25-1.133 2.948-2.39.69-1.274-.047-2.737-.501-.997-1.34-1.462-.855-.456-2.238-.324-.153.016-.227-.249l-.398-1.513a.23.23 0 0 1 .024-.153q.032-.097.257-.169.42-.09.99-.075.572.015 1.216.174.645.16 1.297.536.645.36 1.226.955.582.594 1.026 1.478.825 1.64.66 3.235-.173 1.578-1.232 2.917-1.075 1.347-2.94 2.285-1.882.947-3.556.983t-3.012-.781q-1.34-.817-2.164-2.458m7.813-18.266q.462 1.796.014 3.305t-1.746 2.605q-1.302 1.079-3.359 1.608-2.091.539-3.775.21t-2.821-1.43q-1.14-1.101-1.596-2.879t.012-3.275q.466-1.513 1.78-2.614 1.299-1.096 3.39-1.634 2.056-.53 3.723-.196 1.66.316 2.8 1.417 1.12 1.105 1.578 2.883m-1.852.458q-.404-1.569-1.713-2.031-1.33-.475-3.805.162-2.529.65-3.499 1.718-.987 1.072-.584 2.641.407 1.586 1.796 2.065 1.365.467 3.893-.184 2.458-.632 3.393-1.691.931-1.076.519-2.68M12.894 86.4q-.007-.217.245-.225l12.827-.429a.24.24 0 0 1 .2.084q.075.069.08.213l.05 1.493q.005.126-.01.217a.65.65 0 0 1-.174.222l-8.537 6.445q-.105.075-.085.147.02.053.11.05l8.635-.289q.286-.028.298.296l.053 1.583q.01.324-.277.334l-12.755.427q-.306.01-.315-.278l-.06-1.8a.53.53 0 0 1 .044-.27.5.5 0 0 1 .174-.205l8.153-6.072q.141-.112.12-.184-.039-.088-.183-.084l-8.24.276q-.287.01-.297-.278zm.48-4.694a.27.27 0 0 1-.184-.102q-.078-.084-.053-.245l1.549-9.996q.024-.16.125-.218a.27.27 0 0 1 .206-.04l1.388.215q.249.038.205.323l-.53 3.415q-.03.195.148.223l10.797 1.673q.303.047.261.314l-.328 2.117q-.038.249-.323.204l-10.78-1.67q-.213-.033-.243.163l-.554 3.575q-.047.303-.296.264zm14.678-8.305q-.042.12-.185.145-.142.027-.306-.107L17.19 64.995a.6.6 0 0 1-.184-.236q-.038-.109.021-.279l.745-2.123q.125-.357.506-.356l13.345-.09a.4.4 0 0 1 .272.096q.118.099.07.234l-.72 2.056q-.084.237-.328.228l-3.097.02q-.09-.012-.143.026-.063.016-.099.118l-1.554 4.434q-.054.153.081.257l2.429 1.996a.22.22 0 0 1 .117.156q.027.085-.02.222zm-2.608-8.773q.077-.22-.224-.231l-5.108.04q-.136.01-.16.077-.024.069.094.167l3.94 3.232q.237.197.32-.04zM23.878 49.38a5.7 5.7 0 0 1 1.224-1.45 5.3 5.3 0 0 1 1.523-.934 4.6 4.6 0 0 1 1.642-.36 4.1 4.1 0 0 1 1.603.266q.243.082.278.166.044.069-.015.2l-.93 1.836q-.075.123-.139.127a1 1 0 0 1-.207-.04q-.975-.333-1.858-.084-.898.24-1.462 1.181-.785 1.314-.2 2.649t2.779 2.648q2.162 1.293 3.598 1.208 1.445-.101 2.285-1.506.573-.958.516-1.915-.072-.966-.926-2.064-.096-.12.09-.324l1.063-1.147a.23.23 0 0 1 .142-.062q.1-.024.28.126.3.306.595.796.294.49.504 1.12t.243 1.383a5.4 5.4 0 0 1-.15 1.546 5.9 5.9 0 0 1-.698 1.659q-.942 1.575-2.376 2.29-1.426.7-3.124.524-1.713-.187-3.505-1.258-1.807-1.08-2.736-2.475-.928-1.395-.955-2.962-.026-1.569.916-3.144m5.262-7.157a.27.27 0 0 1-.099-.186q-.018-.114.09-.234l6.779-7.51q.108-.12.223-.112a.27.27 0 0 1 .195.079l1.043.94q.186.169-.006.383l-2.316 2.566q-.132.146 0 .267l8.111 7.321q.228.205.046.406l-1.435 1.59q-.168.187-.383-.006l-8.096-7.31q-.16-.144-.294.003l-2.424 2.685q-.205.227-.392.059zm27.29-12.499q.975 1.492 1.065 2.745a3.54 3.54 0 0 1-.624 2.301q-.698 1.038-2.068 1.935-1.567 1.025-2.841 1.148a3.6 3.6 0 0 1-2.352-.569q-1.086-.708-2.033-2.154l-4.347-6.643q-.177-.27.034-.409l1.807-1.182q.212-.138.369.103l4.583 7.004q.838 1.279 1.794 1.493.972.203 2.087-.527.707-.462 1.077-1.049.36-.6.281-1.345t-.66-1.634l-4.543-6.943q-.168-.255.043-.394l1.431-.936q.195-.129.354.113zm8.065-9.716a4.4 4.4 0 0 0-1.295-.373q-.719-.098-1.737.31-1.119.45-1.53 1.12a1.47 1.47 0 0 0-.12 1.387q.093.234.301.461.225.22.65.36.434.116 1.132.068l2.881-.265q1.717-.168 2.749.466 1.04.61 1.517 1.796.456 1.136.207 2.205-.248 1.07-1.136 1.951-.895.864-2.38 1.462-1.086.436-2.139.568a6.1 6.1 0 0 1-1.965-.063 4.6 4.6 0 0 1-1.633-.683q-.137-.1-.16-.207a.46.46 0 0 1 .08-.284l.756-1.158q.153-.198.26-.22a.34.34 0 0 1 .248.035q.632.367 1.174.557.552.165 1.153.118.602-.047 1.37-.357 1.17-.47 1.716-1.136.54-.682.205-1.518a1.3 1.3 0 0 0-.392-.54q-.247-.231-.676-.33-.411-.106-1.11-.058l-2.83.245q-1.09.09-1.926-.157a3.8 3.8 0 0 1-1.412-.81q-.586-.54-.874-1.258-.43-1.07-.191-2.116.231-1.064 1.08-1.947.846-.885 2.233-1.441a6.8 6.8 0 0 1 1.774-.461 5.6 5.6 0 0 1 1.671.007 4 4 0 0 1 1.438.489.6.6 0 0 1 .175.143q.066.07-.02.24l-.83 1.363q-.057.1-.147.117a1 1 0 0 1-.267-.087m12.376 2.505a2.05 2.05 0 0 1-1.096-.094 2.2 2.2 0 0 1-.9-.624 2.05 2.05 0 0 1-.472-.994q-.106-.585.094-1.096.197-.53.624-.9.427-.369.994-.472a2.08 2.08 0 0 1 1.996.718q.367.41.472.994.103.567-.094 1.096-.18.526-.606.897a2.1 2.1 0 0 1-1.012.475"/><path fill="#fff" d="m75.467 103.5-3.384-3.383 23.2-23.2H74.5v-4.834h29v29h-4.833V80.3z"/></svg>