<svg xmlns="http://www.w3.org/2000/svg" width="178" height="178" fill="none" viewBox="0 0 178 178"><circle cx="89" cy="89" r="84" fill="#f47721"/><circle cx="89" cy="89" r="51" fill="#15100a"/><path fill="#15100a" d="M95.403 24.861a26 26 0 0 0 1.482-1.122q.596-.478.948-.873.37-.395.536-.756.168-.38.216-.81.07-.625-.206-1.09a2 2 0 0 0-.732-.751 2.5 2.5 0 0 0-1.065-.353 2.8 2.8 0 0 0-.986.072 3 3 0 0 0-1.014.486q-.49.345-.959.98a.23.23 0 0 1-.193.106q-.11.006-.26-.101l-1.247-.844q-.151-.108-.154-.252a.4.4 0 0 1 .122-.277q1.026-1.263 2.312-1.755a5.8 5.8 0 0 1 2.773-.346q1.324.147 2.31.726a3.8 3.8 0 0 1 1.5 1.506q.511.944.373 2.196-.082.75-.424 1.384-.323.634-.989 1.249t-1.74 1.329l-3.735 2.503q-.115.06-.124.132.01.073.207.095l5.815.642q.305.033.276.284l-.181 1.646a.34.34 0 0 1-.095.206q-.08.065-.259.044l-8.963-.989q-.215-.023-.297-.105-.063-.08-.042-.276l.129-1.163a.5.5 0 0 1 .057-.193q.066-.102.227-.247.18-.16.532-.394zm19.225-3.33q.257.082.287.167t-.053.286l-.525 1.42q-.066.149-.156.195-.067.036-.274-.03l-5.56-1.76q-.257-.082-.328.141l-1.098 2.636q-.061.132-.014.222.069.078.171.054.751-.045 1.372-.038.626-.009 1.415.24 1.236.393 2.107 1.159.877.75 1.195 1.832.34 1.071-.089 2.426t-1.391 2.128q-.957.754-2.269.905-1.296.157-2.789-.317-1.544-.489-2.651-1.405-1.102-.934-1.546-2.095a.6.6 0 0 1-.038-.295q.02-.126.213-.197l1.456-.483q.254-.09.373.194.298.547.601 1.02.309.457.747.804.438.345 1.124.563.91.288 1.642.18.756-.12 1.256-.565.522-.457.745-1.161t.054-1.305a2 2 0 0 0-.63-1.049q-.48-.454-1.218-.687a3.5 3.5 0 0 0-1.363-.168q-.659.055-1.358.174a.6.6 0 0 1-.21.01 3 3 0 0 1-.179-.152l-1.076-1.133q-.14-.158-.129-.249.027-.085.115-.303l2.257-5.46q.082-.2.19-.242.125-.036.451.068zm9.109 12.392q-.173.316-.536.118l-6.762-3.691q-.158-.087-.187-.184-.029-.098.049-.24l.544-.995q.138-.254.343-.141l6.999 3.82q.205.112.085.334zm-5.932.987q-.3-.164-.102-.527l3.692-6.763q.086-.157.183-.186.099-.03.24.049l.996.543q.252.139.14.343l-3.82 7q-.112.205-.334.084zm24.746 5.65q.118.11.095.214-.023.102-.187.145l-7.914 2.168a.6.6 0 0 0-.276.135 5 5 0 0 0-.373.366l-3.308 3.486q-.272.288-.599-.022l-1.345-1.276q-.156-.15-.159-.25.01-.116.134-.246l3.37-3.552a.8.8 0 0 0 .196-.285q.048-.103.094-.283l1.799-8.12q.033-.191.147-.232.126-.03.283.12l1.606 1.524q.157.148.159.25a.7.7 0 0 1-.005.293l-1.379 5.664q-.058.192-.019.255.066.062.268.006l5.57-1.712q.189-.069.291-.046a.6.6 0 0 1 .247.159zm2.946 3.992q.25-.174.405.048l4.977 7.172q.133.193-.089.346l-1.124.78q-.28.195-.465-.071l-3.387-4.88q-.174-.252-.381-.108l-2.588 1.796q-.222.154-.078.36l2.339 3.372q.154.223-.068.376l-1.198.831a.26.26 0 0 1-.163.048q-.076-.014-.158-.132l-2.36-3.401q-.133-.192-.311-.07l-2.75 1.91q-.178.123-.065.285l3.592 5.176q.164.237-.043.38l-1.198.832a.3.3 0 0 1-.204.054q-.1-.018-.193-.152l-5.017-7.231q-.196-.282.071-.466zM140.91 61.17q-.048-.117.041-.231.089-.115.299-.124l13.361-.616a.6.6 0 0 1 .295.053q.1.055.169.222l.86 2.08q.144.348-.14.603l-9.891 8.96a.4.4 0 0 1-.266.11q-.154.004-.209-.129l-.832-2.012q-.096-.233.092-.389l2.296-2.08q.077-.05.089-.114.036-.054-.005-.153l-1.795-4.342q-.062-.15-.233-.138l-3.14.13a.22.22 0 0 1-.191-.038q-.078-.045-.133-.179zm7.791 4.803q.09.217.321.023l3.781-3.433q.096-.097.068-.165-.027-.066-.181-.06l-5.092.215q-.307.01-.211.243zm-.553 18.478a.34.34 0 0 1-.302.051q-.136-.05-.163-.21l-.366-2.165q-.042-.248.224-.403l4.837-2.917q.216-.128.149-.518l-.36-2.13q-.02-.124-.101-.166a.22.22 0 0 0-.13-.014l-5.129.868q-.373.063-.442-.346l-.318-1.88q-.033-.196.026-.28a.4.4 0 0 1 .236-.112l12.548-2.122q.302-.051.347.215l.903 5.342q.385 2.272-.325 3.688-.69 1.431-2.411 1.722-.94.158-1.71-.076a3.6 3.6 0 0 1-1.31-.728 4.4 4.4 0 0 1-.879-1.092q-.062-.155-.242-.032zm6.235-6.202q.204 1.206.788 1.747.588.558 1.546.395.977-.165 1.353-.849.395-.687.218-1.735l-.423-2.502q-.054-.32-.303-.278l-3.354.568q-.267.045-.228.276zm3.562 16.632q.486-.413.872-1.026.386-.615.432-1.712.05-1.205-.391-1.854a1.47 1.47 0 0 0-1.215-.681 1.5 1.5 0 0 0-.544.085q-.293.114-.595.444-.285.348-.528 1.004l-.943 2.735q-.555 1.634-1.556 2.313-.984.697-2.261.645-1.224-.052-2.096-.719t-1.31-1.838q-.42-1.17-.353-2.771.049-1.17.362-2.183a6.1 6.1 0 0 1 .866-1.765 4.6 4.6 0 0 1 1.294-1.207q.147-.084.254-.062.125.041.227.19l.744 1.166q.117.221.094.328a.33.33 0 0 1-.135.21 7 7 0 0 0-.99.842q-.378.435-.582 1.003t-.239 1.395q-.053 1.26.33 2.031.399.774 1.299.811.36.016.654-.134.312-.132.579-.48.266-.331.509-.988l.941-2.681q.367-1.03.936-1.69.584-.643 1.319-.954.733-.312 1.507-.28 1.15.05 2.006.697.874.65 1.331 1.785.457 1.136.394 2.629a6.8 6.8 0 0 1-.309 1.806q-.252.855-.695 1.52a4 4 0 0 1-1.037 1.11.6.6 0 0 1-.202.1q-.092.033-.212-.117l-.899-1.317q-.068-.092-.047-.182.039-.07.189-.208m-13.591 12.797q.591-1.758 1.79-2.778 1.198-1.022 2.884-1.232 1.68-.195 3.692.483 2.047.69 3.279 1.883t1.586 2.737q.353 1.543-.232 3.283-.586 1.74-1.796 2.739-1.215 1.014-2.918 1.22-1.685.212-3.732-.478-2.013-.677-3.228-1.865-1.22-1.17-1.574-2.714-.338-1.538.249-3.278m1.802.626q-.516 1.535.328 2.636.856 1.124 3.279 1.94 2.474.833 3.869.467 1.413-.36 1.93-1.896.522-1.552-.379-2.71-.89-1.135-3.364-1.968-2.406-.81-3.767-.433-1.367.394-1.896 1.964m6.653 13.852q.263.157.125.389l-4.4 7.373q-.12.2-.352.062l-1.165-.716q-.294-.175-.137-.438l2.97-4.977q.157-.263-.06-.392l-2.875-1.716q-.231-.138-.361.078l-2.158 3.617q-.129.216-.346.087l-1.236-.738q-.186-.111-.057-.327l2.168-3.632q.12-.201-.081-.321l-4.312-2.574q-.294-.175-.091-.515l.987-1.654q.101-.17.2-.195a.4.4 0 0 1 .253.067zm-11.255 16.489q-.17.186-.383-.008l-9.343-8.561q-.159-.146-.153-.286-.005-.128.153-.3l1.265-1.38q.145-.16.247-.164a.4.4 0 0 1 .235.117l9.383 8.597q.225.207.043.406zm-12.145 10.127q-.17.134-.325-.064l-7.939-10.084q-.078-.1-.052-.212.012-.1.125-.19l1.174-.924a1 1 0 0 1 .181-.119.64.64 0 0 1 .281.007l10.248 3.066q.124.04.169-.018.031-.048-.024-.119l-5.345-6.788q-.192-.216.062-.416l1.245-.98q.255-.2.433.026l7.894 10.028q.19.24-.037.418l-1.414 1.114a.54.54 0 0 1-.246.124.5.5 0 0 1-.267-.019l-9.72-2.977q-.174-.047-.219.012-.049.084.04.198l5.1 6.477q.177.227-.048.404zm-5.475 3.351-.669.313-.962.45-.945.442a11 11 0 0 1-.693.304q-2.24.989-3.985.911-1.754-.053-3.041-1.061-1.278-.991-2.14-2.834-.901-1.923-.824-3.629.06-1.697 1.168-3.11 1.098-1.388 3.283-2.411l3.147-1.472q.326-.153.486.19l5.363 11.461q.076.163.042.258-.051.104-.23.188m-3.059-.676q.164-.075.056-.304l-3.845-8.217q-.092-.195-.303-.096l-.408.19q-1.5.702-2.28 1.584a3.1 3.1 0 0 0-.802 2.065q-.022 1.183.717 2.764.733 1.566 1.624 2.281a3.06 3.06 0 0 0 2.043.713q1.145-.019 2.595-.697zm-23.383.613q-.38-1.74-.019-2.944a3.54 3.54 0 0 1 1.402-1.929q1.022-.721 2.622-1.071 1.828-.401 3.063-.063a3.6 3.6 0 0 1 1.995 1.368q.765 1.05 1.134 2.737l1.699 7.754q.069.317-.177.371l-2.11.462q-.246.054-.308-.227l-1.791-8.177q-.327-1.494-1.146-2.034-.835-.535-2.137-.25-.826.181-1.38.597a2.12 2.12 0 0 0-.742 1.157q-.19.724.036 1.762l1.776 8.105q.065.3-.181.353l-1.67.366q-.23.05-.29-.231zm-11.11 6.111q.435.465 1.068.821.632.354 1.73.347 1.206-.009 1.833-.481t.621-1.246a1.6 1.6 0 0 0-.112-.54q-.128-.287-.472-.572-.361-.268-1.03-.479l-2.777-.808q-1.66-.475-2.387-1.441-.744-.95-.754-2.227-.007-1.224.615-2.128.624-.904 1.772-1.399 1.15-.476 2.75-.488 1.17-.007 2.199.255a6.1 6.1 0 0 1 1.805.779q.778.516 1.27 1.233.09.143.073.251a.46.46 0 0 1-.178.235l-1.129.801q-.214.127-.323.11a.34.34 0 0 1-.217-.125 7 7 0 0 0-.889-.947 3.1 3.1 0 0 0-1.03-.533q-.576-.176-1.405-.17-1.26.009-2.013.429-.752.437-.746 1.337a1.3 1.3 0 0 0 .166.647q.147.305.508.554.345.25 1.012.461l2.724.808q1.046.317 1.734.852.67.553 1.017 1.271t.353 1.491q.008 1.152-.598 2.039-.606.904-1.718 1.416t-2.606.523a6.8 6.8 0 0 1-1.82-.221 5.6 5.6 0 0 1-1.552-.619q-.704-.41-1.16-.982a.6.6 0 0 1-.109-.197q-.037-.09.107-.217l1.271-.963q.09-.072.18-.055.072.035.217.178m-5.81 2.287a.27.27 0 0 1-.108.181q-.087.074-.246.044l-9.933-1.919q-.16-.031-.212-.133a.27.27 0 0 1-.034-.208l.267-1.379q.048-.248.33-.192l3.394.655q.194.038.228-.139l2.073-10.728q.057-.3.323-.249l2.103.406q.248.049.193.331l-2.07 10.71q-.04.212.154.25l3.552.686q.3.058.253.305zm-16.771-3.688q-.237-.084-.141-.355l4.245-11.94q.072-.204.204-.253.115-.054.335.024l1.764.627q.204.073.248.165a.4.4 0 0 1-.017.261l-4.263 11.991q-.102.288-.357.198zm-4.452-2.27q-.142.271-.382.145l-7.717-4.081q-.207-.11-.081-.348l.64-1.209q.16-.303.446-.151l5.25 2.776q.27.143.39-.079l1.471-2.785q.126-.239-.096-.357l-3.628-1.918q-.24-.126-.113-.365l.682-1.289a.27.27 0 0 1 .123-.118q.073-.022.2.045l3.66 1.935q.206.11.308-.081l1.565-2.96q.101-.191-.074-.284l-5.57-2.944q-.255-.135-.137-.358l.682-1.289a.3.3 0 0 1 .156-.141q.097-.03.24.046l7.782 4.114q.303.16.151.446zm-16.416-13.865q.038.636.298 1.313.26.678 1.11 1.372.933.764 1.717.8.785.037 1.274-.562.16-.196.258-.487.085-.303.003-.742-.108-.437-.487-1.026l-1.622-2.395q-.975-1.425-.916-2.633.032-1.206.841-2.195.775-.948 1.832-1.246 1.058-.297 2.257.055 1.188.367 2.428 1.381a8.6 8.6 0 0 1 1.53 1.599q.609.847.892 1.753a4.6 4.6 0 0 1 .19 1.759q-.022.168-.105.24a.46.46 0 0 1-.287.068l-1.38-.105q-.246-.04-.319-.121a.34.34 0 0 1-.087-.235 7 7 0 0 0-.079-1.297 3.1 3.1 0 0 0-.452-1.067q-.333-.504-.973-1.028-.975-.797-1.823-.956-.86-.144-1.429.553a1.3 1.3 0 0 0-.284.604q-.083.328.037.751.105.412.484 1.001l1.58 2.361q.603.911.79 1.763a3.8 3.8 0 0 1-.028 1.627 3.44 3.44 0 0 1-.68 1.373q-.73.893-1.762 1.187-1.044.31-2.227-.006-1.182-.317-2.34-1.262a6.8 6.8 0 0 1-1.258-1.332 5.6 5.6 0 0 1-.8-1.468 4 4 0 0 1-.265-1.495q0-.116.041-.222.03-.093.22-.099l1.594.071q.116 0 .174.072.033.073.053.276m-12.486-9.927q-.26.162-.402-.067l-4.63-7.401q-.124-.198.105-.341l1.16-.726q.29-.182.461.094l3.15 5.035q.163.26.376.126l2.67-1.67q.23-.144.096-.357l-2.177-3.48q-.142-.228.086-.372l1.236-.773a.26.26 0 0 1 .166-.04q.075.017.151.139l2.196 3.51q.124.198.307.084l2.838-1.776q.183-.114.078-.282l-3.34-5.341q-.154-.245.06-.378l1.236-.773a.3.3 0 0 1 .206-.044q.1.022.185.16l4.669 7.462q.181.29-.094.462zm.975-26.656q.24-.337.39-.296.144.024.23.261l.723 1.978q.118.32-.059.52l-3.198 4.198q-.143.186-.112.271.015.09.283.145l5.124 1.116a.4.4 0 0 1 .236.125.8.8 0 0 1 .156.268l.588 1.606q.086.237-.007.348-.1.094-.495.009l-6.904-1.634q-.189-.046-.284.008-.102.036-.217.194l-4.198 5.656a.36.36 0 0 1-.241.127q-.148.015-.21-.153l-.767-2.097q-.074-.203-.054-.306a.47.47 0 0 1 .13-.22l2.926-3.791q.087-.128.056-.213t-.197-.119l-4.664-1.016a.46.46 0 0 1-.242-.084.65.65 0 0 1-.15-.252l-.649-1.775q-.075-.203.038-.263t.268-.002l6.61 1.569q.156.057.258.021a.7.7 0 0 0 .2-.188zm-10.491-11.54q1.32-.177 2.296.33.954.49 1.543 1.5.589 1.012.779 2.44l.373 2.8q.023.18.202.156l4.692-.625q.357-.048.41.345l.256 1.927q.024.178-.038.259a.4.4 0 0 1-.24.105l-12.615 1.679q-.303.04-.34-.227l-.671-5.05q-.19-1.427.084-2.644.273-1.217 1.075-2.014t2.194-.982m.307 2.719q-.731.097-1.134.478-.425.364-.56.982-.138.6-.038 1.349l.297 2.23q.04.303.326.265l3.604-.479q.303-.04.272-.273l-.32-2.408q-.147-1.107-.77-1.696-.642-.586-1.677-.448m-4.115-7.033q-.305-.023-.286-.291l.62-8.708q.017-.234.287-.214l1.364.097q.342.024.318.348l-.422 5.924q-.021.306.23.324l3.142.224q.27.019.287-.233l.292-4.093q.02-.27.288-.25l1.455.103q.09.006.157.066.05.057.04.201l-.294 4.13q-.017.233.199.248l3.34.238q.215.016.229-.182l.448-6.284q.02-.287.271-.27l1.455.104a.3.3 0 0 1 .192.086q.066.078.055.239l-.625 8.78q-.026.34-.348.318zm16.57-20.677a.34.34 0 0 1 .294.084q.1.103.056.26l-.603 2.11q-.07.243-.376.268l-5.622.545q-.25.023-.36.403l-.593 2.077q-.034.121.02.193a.22.22 0 0 0 .111.07l5.002 1.429q.363.105.25.502l-.525 1.834q-.054.19-.143.24a.4.4 0 0 1-.262 0L18.706 74.04q-.294-.084-.22-.344l1.489-5.21q.633-2.214 1.884-3.186 1.24-.994 2.918-.514.917.262 1.51.806.577.54.868 1.222.274.677.321 1.364-.01.165.206.134zm-8.301 2.906q.336-1.176.042-1.916-.289-.757-1.224-1.024-.951-.272-1.587.183-.652.45-.945 1.471l-.697 2.44q-.09.312.153.381l3.271.935q.26.075.324-.15zM23.89 57.57q.107-.229.368-.107l11.489 5.346q.195.091.231.228.045.12-.055.331l-.79 1.697q-.09.197-.186.231a.4.4 0 0 1-.26-.04l-11.537-5.37q-.278-.13-.163-.374zm2.676-4.217q-.255-.168-.108-.393l4.785-7.302q.129-.196.354-.048l1.145.75q.286.188.108.458l-3.256 4.969q-.167.256.043.394l2.635 1.726q.226.148.364-.063l2.25-3.432q.148-.226.373-.078l1.22.8q.075.048.106.133.015.075-.064.195l-2.269 3.463q-.128.195.052.314l2.8 1.835q.182.119.29-.047l3.453-5.27q.157-.24.369-.102l1.22.8a.3.3 0 0 1 .125.168q.02.1-.068.235L37.67 60.22q-.187.286-.459.108zm15.677-19.285q.154-.152.331.028l9 9.15a.24.24 0 0 1 .075.204q-.001.101-.104.203L50.48 44.7q-.09.089-.167.139a.65.65 0 0 1-.28.023l-10.523-1.92q-.127-.026-.166.037-.026.05.037.115l6.06 6.16q.214.192-.017.42l-1.13 1.11q-.23.228-.432.022l-8.95-9.098q-.215-.219-.009-.42l1.284-1.262a.54.54 0 0 1 .23-.151.5.5 0 0 1 .267-.01l9.99 1.89q.177.026.216-.037.039-.09-.062-.192l-5.781-5.877q-.203-.206.003-.407zm9.224-6.722a5.7 5.7 0 0 1 1.753-.724 5.2 5.2 0 0 1 1.783-.128 4.6 4.6 0 0 1 1.623.435q.753.36 1.3.974.18.185.171.275.008.08-.106.171l-1.67 1.202q-.122.076-.18.049a1 1 0 0 1-.166-.131q-.714-.744-1.612-.93-.907-.2-1.84.377-1.303.805-1.397 2.26t1.25 3.63q1.324 2.143 2.638 2.727 1.329.575 2.722-.286.95-.587 1.34-1.463.379-.89.127-2.258-.03-.15.228-.247l1.472-.529a.23.23 0 0 1 .154.01q.1.023.191.242.126.408.162.98.035.57-.067 1.226a5 5 0 0 1-.42 1.34q-.304.672-.845 1.304-.54.63-1.383 1.151-1.562.966-3.164.94-1.588-.033-3.014-.972-1.436-.952-2.534-2.73-1.107-1.79-1.29-3.455t.515-3.07 2.259-2.37m9.202-4.433q-.104-.288.15-.38l8.219-2.945q.22-.079.311.175l.462 1.288q.114.323-.19.431l-5.592 2.004q-.288.105-.203.34l1.063 2.966q.09.254.328.17l3.864-1.385q.254-.092.345.163l.492 1.372q.03.085.004.171-.033.069-.169.118l-3.897 1.396q-.22.08-.147.283l1.13 3.151q.072.203.258.137l5.931-2.126q.271-.097.356.14l.492 1.373a.3.3 0 0 1 0 .21q-.044.093-.197.147l-8.286 2.97q-.321.116-.431-.19zM82 20.16q-.494-.401-1.169-.668t-1.762-.11q-1.194.172-1.75.725-.557.554-.446 1.32.036.25.184.518.165.268.545.504.395.216 1.085.334l2.862.424q1.708.244 2.56 1.104.866.839 1.048 2.104.175 1.211-.32 2.192t-1.566 1.626q-1.074.628-2.659.857a8.6 8.6 0 0 1-2.212.046 6.1 6.1 0 0 1-1.895-.527 4.6 4.6 0 0 1-1.424-1.05q-.11-.13-.107-.239a.46.46 0 0 1 .144-.257l1.01-.946q.195-.156.305-.153.127 0 .232.094.528.506 1.01.818.495.292 1.092.388.596.096 1.415-.022 1.247-.18 1.936-.697.687-.536.558-1.427a1.3 1.3 0 0 0-.252-.618q-.187-.282-.579-.48-.375-.2-1.064-.32l-2.809-.431q-1.08-.172-1.833-.609a3.8 3.8 0 0 1-1.18-1.12 3.44 3.44 0 0 1-.552-1.43q-.165-1.14.315-2.101.478-.979 1.51-1.636 1.033-.66 2.512-.872a6.8 6.8 0 0 1 1.832-.028q.887.09 1.622.403.754.309 1.282.816a.6.6 0 0 1 .135.18q.048.084-.076.23l-1.129 1.126q-.079.084-.17.079a1 1 0 0 1-.24-.147"/><path fill="#fff" d="m75.467 103.5-3.384-3.383 23.2-23.2H74.5v-4.834h29v29h-4.833V80.3z"/></svg>