<svg width="48" height="48" viewBox="0 0 48 48" fill="none" xmlns="http://www.w3.org/2000/svg">
<g clip-path="url(#clip0_4162_3709)">
<path d="M7.43128 16.5687H1.40625C0.629625 16.5687 0 17.1983 0 17.975V33.0375C0 33.8141 0.629625 34.4437 1.40625 34.4437H7.43128C8.20791 34.4437 8.83753 33.8141 8.83753 33.0375V17.975C8.83753 17.1983 8.20791 16.5687 7.43128 16.5687ZM33.7907 32.8375C34.5673 32.8375 35.1969 32.2079 35.1969 31.4313V28.3188H35.2969C36.0735 28.3188 36.7031 27.6892 36.7031 26.9125C36.7031 26.1359 36.0735 25.5063 35.2969 25.5063H35.1969V17.875C35.1969 17.5969 35.1145 17.3251 34.96 17.0938C34.8055 16.8626 34.5859 16.6823 34.3289 16.5759C34.072 16.4694 33.7893 16.4416 33.5165 16.4958C33.2437 16.55 32.9932 16.6839 32.7965 16.8805C32.7964 16.8805 28.4059 21.2696 26.3242 23.3498C25.3893 24.2898 24.8531 25.5884 24.8531 26.9125C24.8531 27.6892 25.4827 28.3188 26.2594 28.3188H32.3844V31.4313C32.3844 32.2079 33.014 32.8375 33.7907 32.8375ZM28.163 25.5063C28.2108 25.447 28.2616 25.3902 28.3153 25.3361C29.3686 24.2836 31.0159 22.6372 32.3843 21.2692V25.5063H28.163ZM22.3937 31.4313C22.3937 30.6547 21.7641 30.025 20.9874 30.025H15.3599C15.4077 29.9657 15.4585 29.9089 15.5122 29.8549C17.6688 27.6995 19.8253 25.544 21.9817 23.3883C22.1123 23.2577 22.2159 23.1027 22.2866 22.932C22.3574 22.7614 22.3938 22.5785 22.3938 22.3938V21.6407C22.3938 18.7889 20.0737 16.4688 17.222 16.4688C14.3431 16.4688 12.0501 18.8007 12.0501 21.6391V21.6406C12.0501 22.4172 12.6797 23.0461 13.4563 23.0461C14.2329 23.0461 14.8626 22.4157 14.8626 21.6391C14.8626 20.349 15.9013 19.2813 17.222 19.2813C18.5229 19.2813 19.5813 20.3397 19.5813 21.6407V21.8111C17.5613 23.8304 15.5413 25.8496 13.5211 27.8686C12.5861 28.8086 12.0501 30.1073 12.0501 31.4313C12.0501 32.2079 12.6797 32.8375 13.4563 32.8375H20.9875C21.7641 32.8375 22.3937 32.2079 22.3937 31.4313ZM24 2.8125C31.0581 2.8125 37.0052 7.66013 38.687 14.2008C39.271 13.9079 39.9155 13.7557 40.5688 13.7562H41.4738C39.5705 5.87362 32.4588 0 24 0C15.5412 0 8.42953 5.87362 6.52631 13.7562H7.43128C8.08464 13.7557 8.72907 13.908 9.31312 14.2008C10.9948 7.66013 16.9419 2.8125 24 2.8125ZM38.4123 36.6616C37.0066 39.9023 33.7764 42.175 30.025 42.175H28.1881C27.5993 40.4261 25.9449 39.1626 24.0001 39.1626C21.5636 39.1626 19.5813 41.1448 19.5813 43.5813C19.5813 46.0177 21.5635 48 24 48C25.9448 48 27.5992 46.7364 28.188 44.9875H30.0249C35.1297 44.9875 39.4964 41.7697 41.2052 37.2562H40.5687C39.7812 37.2562 39.0438 37.0387 38.4123 36.6616ZM46.5938 16.5687H40.5687C39.7921 16.5687 39.1625 17.1983 39.1625 17.975V33.0375C39.1625 33.8141 39.7921 34.4437 40.5687 34.4437H46.5938C47.3704 34.4437 48 33.8141 48 33.0375V17.975C48 17.1983 47.3704 16.5687 46.5938 16.5687Z" fill="#15100A"/>
</g>
<defs>
<clipPath id="clip0_4162_3709">
<rect width="48" height="48" fill="white"/>
</clipPath>
</defs>
</svg>
