<svg width="38" height="38" viewBox="0 0 38 38" fill="none" xmlns="http://www.w3.org/2000/svg">
<path d="M10.1384 2.83225C10.7298 4.42661 10.4684 6.21327 9.30074 7.4505C8.13306 8.68765 6.36451 9.05191 4.73868 8.55368C4.14738 6.95939 4.40878 5.17266 5.57638 3.93551C6.74414 2.69828 8.51269 2.33409 10.1384 2.83225Z" stroke="#F47721" stroke-width="2.22656" stroke-miterlimit="22.926" stroke-linecap="round" stroke-linejoin="round"/>
<path d="M3.04723 9.43137C4.67491 9.92344 5.94064 11.2111 6.22118 12.8891C6.50158 14.5669 5.72333 16.1963 4.34405 17.1909C2.71629 16.6989 1.45049 15.4111 1.17009 13.7332C0.889695 12.0553 1.66795 10.4259 3.04723 9.43137Z" stroke="#F47721" stroke-width="2.22656" stroke-miterlimit="22.926" stroke-linecap="round" stroke-linejoin="round"/>
<path d="M2.17793 18.2421C3.8336 17.8543 5.57366 18.3366 6.65546 19.6495C7.73727 20.9624 7.87799 22.7626 7.18078 24.3136C5.52519 24.7013 3.78499 24.219 2.70325 22.9061C1.62144 21.5932 1.48073 19.7929 2.17793 18.2421Z" stroke="#F47721" stroke-width="2.22656" stroke-miterlimit="22.926" stroke-linecap="round" stroke-linejoin="round"/>
<path d="M19 8.85106L21.6788 12.8897L26.3476 14.1894L23.3343 17.9851L23.5411 22.8271L19 21.1343L14.4588 22.8271L14.6656 17.9851L11.6523 14.1894L16.3211 12.8898L19 8.85106Z" stroke="#F47721" stroke-width="2.22656" stroke-miterlimit="22.926" stroke-linecap="round" stroke-linejoin="round"/>
<path d="M3.67871 26.8118C4.71718 25.4652 6.37077 24.7398 8.03875 25.0742C9.70681 25.4085 10.9532 26.7151 11.3925 28.3578C10.3539 29.7044 8.70041 30.4297 7.03242 30.0953C5.36436 29.7611 4.11808 28.4544 3.67871 26.8118Z" stroke="#F47721" stroke-width="2.22656" stroke-miterlimit="22.926" stroke-linecap="round" stroke-linejoin="round"/>
<path d="M27.8615 2.83225C27.2701 4.42661 27.5316 6.21327 28.6992 7.4505C29.8669 8.68765 31.6355 9.05191 33.2613 8.55368C33.8526 6.95939 33.5911 5.17266 32.4236 3.93551C31.2558 2.69828 29.4873 2.33409 27.8615 2.83225Z" stroke="#F47721" stroke-width="2.22656" stroke-miterlimit="22.926" stroke-linecap="round" stroke-linejoin="round"/>
<path d="M34.9527 9.43137C33.325 9.92344 32.0593 11.2111 31.7787 12.8891C31.4983 14.5669 32.2766 16.1963 33.6559 17.1909C35.2836 16.6989 36.5494 15.4111 36.8298 13.7332C37.1102 12.0553 36.332 10.4259 34.9527 9.43137Z" stroke="#F47721" stroke-width="2.22656" stroke-miterlimit="22.926" stroke-linecap="round" stroke-linejoin="round"/>
<path d="M35.8219 18.2421C34.1662 17.8543 32.4262 18.3366 31.3444 19.6495C30.2626 20.9624 30.1218 22.7626 30.819 24.3136C32.4746 24.7013 34.2148 24.219 35.2966 22.9061C36.3784 21.5932 36.5191 19.7929 35.8219 18.2421Z" stroke="#F47721" stroke-width="2.22656" stroke-miterlimit="22.926" stroke-linecap="round" stroke-linejoin="round"/>
<path d="M34.3212 26.8118C33.2827 25.4652 31.6291 24.7398 29.9611 25.0742C28.2931 25.4085 27.0467 26.7151 26.6074 28.3578C27.646 29.7044 29.2995 30.4297 30.9675 30.0953C32.6355 29.7611 33.8818 28.4544 34.3212 26.8118Z" stroke="#F47721" stroke-width="2.22656" stroke-miterlimit="22.926" stroke-linecap="round" stroke-linejoin="round"/>
<path d="M11.7075 28.7596C13.9545 30.0614 16.509 30.738 19.1058 30.7191C21.7025 30.7002 24.2469 29.9865 26.4747 28.6521" stroke="#F47721" stroke-width="2.22656" stroke-miterlimit="22.926" stroke-linecap="round" stroke-linejoin="round"/>
<path d="M14.5469 35.3838L18.8515 31.1533" stroke="#F47721" stroke-width="2.22656" stroke-miterlimit="22.926" stroke-linecap="round" stroke-linejoin="round"/>
<path d="M23.4531 35.3838L19.1484 31.1533" stroke="#F47721" stroke-width="2.22656" stroke-miterlimit="22.926" stroke-linecap="round" stroke-linejoin="round"/>
</svg>
