<svg width="72" height="72" viewBox="0 0 72 72" fill="none" xmlns="http://www.w3.org/2000/svg">
<path d="M0 8C0 3.58172 3.58172 0 8 0H64C68.4183 0 72 3.58172 72 8V64C72 68.4183 68.4183 72 64 72H8C3.58172 72 0 68.4183 0 64V8Z" fill="#F47721"/>
<path d="M29.7053 33.8321L30.3586 32.7004C30.6661 32.1679 30.4837 31.4871 29.9512 31.1796C29.4187 30.8722 28.7378 31.0547 28.4304 31.5871L27.778 32.7172C27.58 32.6805 27.3764 32.6604 27.168 32.6604C26.9596 32.6604 26.7559 32.6805 26.558 32.7172L25.9055 31.5871C25.598 31.0546 24.9172 30.8722 24.3848 31.1796C23.8522 31.4871 23.6698 32.1679 23.9773 32.7004L24.6307 33.8321C24.364 34.1432 24.1568 34.5008 24.0196 34.8869H22.7148C22.1 34.8869 21.6016 35.3854 21.6016 36.0002C21.6016 36.6151 22.1 37.1135 22.7148 37.1135H24.0196C24.1568 37.4996 24.364 37.8572 24.6307 38.1684L23.9773 39.3001C23.6698 39.8325 23.8522 40.5134 24.3848 40.8208C24.9154 41.1271 25.5971 40.9476 25.9055 40.4133L26.558 39.2832C26.7559 39.3199 26.9596 39.3401 27.168 39.3401C27.3764 39.3401 27.58 39.32 27.778 39.2832L28.4304 40.4133C28.7388 40.9475 29.4202 41.1273 29.9512 40.8208C30.4837 40.5134 30.6661 39.8325 30.3586 39.3001L29.7053 38.1684C29.972 37.8572 30.1791 37.4996 30.3163 37.1135H31.6211C32.2359 37.1135 32.7344 36.6151 32.7344 36.0002C32.7344 35.3854 32.2359 34.8869 31.6211 34.8869H30.3163C30.179 34.5008 29.9719 34.1433 29.7053 33.8321ZM26.0547 36.0002C26.0547 35.3864 26.5541 34.8869 27.168 34.8869C27.7818 34.8869 28.2812 35.3864 28.2812 36.0002C28.2812 36.6141 27.7818 37.1135 27.168 37.1135C26.5541 37.1135 26.0547 36.6141 26.0547 36.0002ZM42.4432 38.1684L41.7898 39.3001C41.4823 39.8325 41.6647 40.5134 42.1973 40.8208C42.7279 41.1271 43.4096 40.9476 43.718 40.4133L44.3705 39.2832C44.5684 39.3199 44.7721 39.3401 44.9805 39.3401C45.1889 39.3401 45.3925 39.32 45.5905 39.2832L46.2429 40.4133C46.5513 40.9475 47.2327 41.1273 47.7637 40.8208C48.2962 40.5134 48.4786 39.8325 48.1711 39.3001L47.5178 38.1684C47.7845 37.8572 47.9916 37.4996 48.1288 37.1135H49.4336C50.0484 37.1135 50.5469 36.6151 50.5469 36.0002C50.5469 35.3854 50.0484 34.8869 49.4336 34.8869H48.1288C47.9916 34.5008 47.7844 34.1432 47.5178 33.8321L48.1711 32.7004C48.4786 32.1679 48.2962 31.4871 47.7637 31.1796C47.2312 30.8722 46.5503 31.0547 46.2429 31.5871L45.5905 32.7172C45.3925 32.6805 45.1889 32.6604 44.9805 32.6604C44.7721 32.6604 44.5684 32.6805 44.3705 32.7172L43.718 31.5871C43.4105 31.0546 42.7296 30.8722 42.1973 31.1796C41.6647 31.4871 41.4823 32.1679 41.7898 32.7004L42.4432 33.8321C42.1765 34.1432 41.9693 34.5008 41.8321 34.8869H40.5273C39.9125 34.8869 39.4141 35.3854 39.4141 36.0002C39.4141 36.6151 39.9125 37.1135 40.5273 37.1135H41.8321C41.9694 37.4996 42.1765 37.8572 42.4432 38.1684ZM46.0938 36.0002C46.0938 36.6141 45.5943 37.1135 44.9805 37.1135C44.3666 37.1135 43.8672 36.6141 43.8672 36.0002C43.8672 35.3864 44.3666 34.8869 44.9805 34.8869C45.5943 34.8869 46.0938 35.3864 46.0938 36.0002Z" fill="#FBF4EF"/>
<path d="M55 35.9999C55 30.4751 50.5052 25.9803 44.9805 25.9803C39.4557 25.9803 34.9609 30.4751 34.9609 35.9999C34.9609 40.2969 31.465 43.7928 27.168 43.7928C22.7891 43.7928 19.2266 40.2969 19.2266 35.9999C19.2266 31.9172 22.4426 28.558 26.5192 28.233C26.241 28.5547 26.1599 29.0216 26.3513 29.432C26.6124 29.9919 27.276 30.2291 27.8307 29.9704L30.6845 28.6397C31.3673 28.3213 31.5471 27.4206 31.0242 26.8652L28.6156 24.0527C28.2156 23.5857 27.5129 23.5313 27.046 23.9313C26.579 24.3313 26.5246 25.034 26.9245 25.501L27.3365 25.9821C27.2803 25.9812 27.2242 25.9803 27.168 25.9803C24.4873 25.9803 21.948 27.0194 20.0179 28.9061C18.0717 30.8084 17 33.3277 17 35.9999C17 38.672 18.0717 41.1913 20.0179 43.0936C21.948 44.9803 24.4873 46.0194 27.168 46.0194C32.6927 46.0194 37.1875 41.5246 37.1875 35.9999C37.1875 31.7028 40.6834 28.2069 44.9805 28.2069C49.2775 28.2069 52.7734 31.7028 52.7734 35.9999C52.7734 40.0781 49.6244 43.4343 45.6302 43.7655C45.9076 43.4439 45.9883 42.9777 45.7972 42.5678C45.5373 42.0105 44.8748 41.7694 44.3177 42.0293L41.4639 43.3601C40.782 43.678 40.6019 44.5794 41.124 45.1343L43.5328 47.947C43.9328 48.414 44.6356 48.4683 45.1025 48.0684C45.5695 47.6685 45.6238 46.9657 45.2239 46.4987L44.8119 46.0176C44.868 46.0185 44.9242 46.0194 44.9805 46.0194C50.5052 46.0194 55 41.5246 55 35.9999Z" fill="#FBF4EF"/>
</svg>
