<svg width="72" height="72" viewBox="0 0 72 72" fill="none" xmlns="http://www.w3.org/2000/svg">
<path d="M0 8C0 3.58172 3.58172 0 8 0H64C68.4183 0 72 3.58172 72 8V64C72 68.4183 68.4183 72 64 72H8C3.58172 72 0 68.4183 0 64V8Z" fill="#F47721"/>
<path d="M54.9742 20.8351C55.1594 19.9728 54.314 19.2457 53.4893 19.5604L17.7162 33.2165C17.5059 33.2968 17.3248 33.439 17.197 33.6243C17.0691 33.8095 17.0004 34.0293 17 34.2544C16.9996 34.4795 17.0674 34.6995 17.1945 34.8853C17.3217 35.071 17.5022 35.2139 17.7122 35.295L27.7615 39.1763V51.4009C27.7615 51.6514 27.846 51.8946 28.0013 52.0912C28.1566 52.2877 28.3736 52.4262 28.6173 52.4841C28.861 52.542 29.1172 52.5161 29.3443 52.4104C29.5714 52.3048 29.7563 52.1256 29.869 51.9019L34.0253 43.6542L44.1682 51.1816C44.7852 51.6395 45.672 51.3483 45.8965 50.6124C55.3667 19.5628 54.9573 20.9131 54.9742 20.8351ZM46.1436 24.7478L28.717 37.1584L21.2189 34.2626L46.1436 24.7478ZM29.9881 38.9866L45.1781 28.1688C32.1073 41.9578 32.7899 41.232 32.7329 41.3088C32.6483 41.4227 32.8803 40.9786 29.9881 46.7179V38.9866ZM44.2274 48.4528L35.2992 41.827L51.4425 24.7967L44.2274 48.4528Z" fill="#FBF4EF"/>
</svg>
