<svg width="72" height="72" viewBox="0 0 72 72" fill="none" xmlns="http://www.w3.org/2000/svg">
<path d="M0 8C0 3.58172 3.58172 0 8 0H64C68.4183 0 72 3.58172 72 8V64C72 68.4183 68.4183 72 64 72H8C3.58172 72 0 68.4183 0 64V8Z" fill="#F47721"/>
<path d="M27.1384 19.8322C27.7298 21.4266 27.4684 23.2133 26.3007 24.4505C25.1331 25.6876 23.3645 26.0519 21.7387 25.5537C21.1474 23.9594 21.4088 22.1727 22.5764 20.9355C23.7441 19.6983 25.5127 19.3341 27.1384 19.8322Z" stroke="white" stroke-width="2.22656" stroke-miterlimit="22.926" stroke-linecap="round" stroke-linejoin="round"/>
<path d="M20.0472 26.4314C21.6749 26.9234 22.9406 28.2111 23.2212 29.8891C23.5016 31.5669 22.7233 33.1963 21.344 34.1909C19.7163 33.6989 18.4505 32.4111 18.1701 30.7332C17.8897 29.0553 18.668 27.4259 20.0472 26.4314Z" stroke="white" stroke-width="2.22656" stroke-miterlimit="22.926" stroke-linecap="round" stroke-linejoin="round"/>
<path d="M19.1779 35.2421C20.8336 34.8543 22.5737 35.3366 23.6555 36.6495C24.7373 37.9624 24.878 39.7626 24.1808 41.3136C22.5252 41.7013 20.785 41.219 19.7033 39.9061C18.6214 38.5932 18.4807 36.7929 19.1779 35.2421Z" stroke="white" stroke-width="2.22656" stroke-miterlimit="22.926" stroke-linecap="round" stroke-linejoin="round"/>
<path d="M36 25.8511L38.6788 29.8897L43.3476 31.1894L40.3343 34.9851L40.5411 39.8271L36 38.1343L31.4588 39.8271L31.6656 34.9851L28.6523 31.1894L33.3211 29.8898L36 25.8511Z" stroke="white" stroke-width="2.22656" stroke-miterlimit="22.926" stroke-linecap="round" stroke-linejoin="round"/>
<path d="M20.6787 43.8118C21.7172 42.4652 23.3708 41.7398 25.0388 42.0742C26.7068 42.4085 27.9532 43.7151 28.3925 45.3578C27.3539 46.7044 25.7004 47.4297 24.0324 47.0953C22.3644 46.7611 21.1181 45.4544 20.6787 43.8118Z" stroke="white" stroke-width="2.22656" stroke-miterlimit="22.926" stroke-linecap="round" stroke-linejoin="round"/>
<path d="M44.8615 19.8322C44.2701 21.4266 44.5316 23.2133 45.6992 24.4505C46.8669 25.6876 48.6355 26.0519 50.2613 25.5537C50.8526 23.9594 50.5911 22.1727 49.4236 20.9355C48.2558 19.6983 46.4873 19.3341 44.8615 19.8322Z" stroke="white" stroke-width="2.22656" stroke-miterlimit="22.926" stroke-linecap="round" stroke-linejoin="round"/>
<path d="M51.9527 26.4314C50.325 26.9234 49.0593 28.2111 48.7787 29.8891C48.4983 31.5669 49.2766 33.1963 50.6559 34.1909C52.2836 33.6989 53.5494 32.4111 53.8298 30.7332C54.1102 29.0553 53.332 27.4259 51.9527 26.4314Z" stroke="white" stroke-width="2.22656" stroke-miterlimit="22.926" stroke-linecap="round" stroke-linejoin="round"/>
<path d="M52.8219 35.2421C51.1662 34.8543 49.4262 35.3366 48.3444 36.6495C47.2626 37.9624 47.1218 39.7626 47.819 41.3136C49.4746 41.7013 51.2148 41.219 52.2966 39.9061C53.3784 38.5932 53.5191 36.7929 52.8219 35.2421Z" stroke="white" stroke-width="2.22656" stroke-miterlimit="22.926" stroke-linecap="round" stroke-linejoin="round"/>
<path d="M51.3212 43.8118C50.2827 42.4652 48.6291 41.7398 46.9611 42.0742C45.2931 42.4085 44.0467 43.7151 43.6074 45.3578C44.646 46.7044 46.2995 47.4297 47.9675 47.0953C49.6355 46.7611 50.8818 45.4544 51.3212 43.8118Z" stroke="white" stroke-width="2.22656" stroke-miterlimit="22.926" stroke-linecap="round" stroke-linejoin="round"/>
<path d="M28.7075 45.7596C30.9545 47.0614 33.509 47.738 36.1058 47.7191C38.7025 47.7002 41.2469 46.9865 43.4747 45.6521" stroke="white" stroke-width="2.22656" stroke-miterlimit="22.926" stroke-linecap="round" stroke-linejoin="round"/>
<path d="M31.5469 52.3838L35.8515 48.1533" stroke="white" stroke-width="2.22656" stroke-miterlimit="22.926" stroke-linecap="round" stroke-linejoin="round"/>
<path d="M40.4531 52.3838L36.1484 48.1533" stroke="white" stroke-width="2.22656" stroke-miterlimit="22.926" stroke-linecap="round" stroke-linejoin="round"/>
</svg>
