<svg width="38" height="38" viewBox="0 0 38 38" fill="none" xmlns="http://www.w3.org/2000/svg">
<g clip-path="url(#clip0_4076_206)">
<path d="M37.9742 3.83538C38.1595 2.97304 37.314 2.24592 36.4893 2.56061L0.716244 16.2167C0.505925 16.297 0.324893 16.4392 0.197034 16.6245C0.0691746 16.8098 0.000497185 17.0295 6.31056e-05 17.2546C-0.000370974 17.4797 0.0674587 17.6997 0.194602 17.8855C0.321746 18.0713 0.502228 18.2142 0.712236 18.2953L10.7616 22.1765V34.4012C10.7616 34.6517 10.846 34.8949 11.0013 35.0914C11.1566 35.288 11.3737 35.4264 11.6174 35.4844C11.8611 35.5423 12.1172 35.5163 12.3444 35.4107C12.5715 35.305 12.7564 35.1259 12.8691 34.9021L17.0254 26.6545L27.1683 34.1819C27.7853 34.6398 28.6721 34.3486 28.8966 33.6127C38.3668 2.56306 37.9574 3.91338 37.9742 3.83538ZM29.1437 7.748L11.7171 20.1587L4.21896 17.2628L29.1437 7.748ZM12.9881 21.9869L28.1782 11.1691C15.1073 24.958 15.79 24.2323 15.733 24.309C15.6483 24.4229 15.8803 23.9789 12.9881 29.7182V21.9869ZM27.2274 31.4531L18.2993 24.8272L34.4425 7.79699L27.2274 31.4531Z" fill="#FBF4EF"/>
</g>
<defs>
<clipPath id="clip0_4076_206">
<rect width="38" height="38" fill="white"/>
</clipPath>
</defs>
</svg>
