<svg width="38" height="38" viewBox="0 0 38 38" fill="none" xmlns="http://www.w3.org/2000/svg">
<path d="M10.1385 2.83201C10.7298 4.42637 10.4684 6.21303 9.30076 7.45025C8.13308 8.6874 6.36453 9.05167 4.7387 8.55344C4.1474 6.95915 4.40879 5.17241 5.5764 3.93526C6.74415 2.69804 8.51271 2.33385 10.1385 2.83201Z" stroke="white" stroke-width="2.22656" stroke-miterlimit="22.926" stroke-linecap="round" stroke-linejoin="round"/>
<path d="M3.04726 9.43137C4.67494 9.92344 5.94067 11.2111 6.22121 12.8891C6.50161 14.5669 5.72336 16.1963 4.34408 17.1909C2.71632 16.6989 1.45052 15.4111 1.17012 13.7332C0.889726 12.0553 1.66798 10.4259 3.04726 9.43137Z" stroke="white" stroke-width="2.22656" stroke-miterlimit="22.926" stroke-linecap="round" stroke-linejoin="round"/>
<path d="M2.17801 18.2423C3.83368 17.8545 5.57373 18.3369 6.65554 19.6498C7.73735 20.9626 7.87807 22.7629 7.18086 24.3138C5.52527 24.7015 3.78506 24.2192 2.70333 22.9063C1.62152 21.5934 1.4808 19.7932 2.17801 18.2423Z" stroke="white" stroke-width="2.22656" stroke-miterlimit="22.926" stroke-linecap="round" stroke-linejoin="round"/>
<path d="M18.9999 8.85106L21.6788 12.8897L26.3476 14.1894L23.3343 17.9851L23.5411 22.8271L18.9999 21.1343L14.4588 22.8271L14.6656 17.9851L11.6523 14.1894L16.3211 12.8898L18.9999 8.85106Z" stroke="white" stroke-width="2.22656" stroke-miterlimit="22.926" stroke-linecap="round" stroke-linejoin="round"/>
<path d="M3.67879 26.8118C4.71725 25.4652 6.37084 24.7398 8.03883 25.0742C9.70689 25.4085 10.9532 26.7151 11.3925 28.3578C10.354 29.7044 8.70049 30.4297 7.0325 30.0953C5.36444 29.7611 4.11816 28.4544 3.67879 26.8118Z" stroke="white" stroke-width="2.22656" stroke-miterlimit="22.926" stroke-linecap="round" stroke-linejoin="round"/>
<path d="M27.8614 2.83201C27.2701 4.42637 27.5315 6.21303 28.6991 7.45025C29.8668 8.6874 31.6354 9.05167 33.2612 8.55344C33.8525 6.95915 33.591 5.17241 32.4235 3.93526C31.2557 2.69804 29.4872 2.33385 27.8614 2.83201Z" stroke="white" stroke-width="2.22656" stroke-miterlimit="22.926" stroke-linecap="round" stroke-linejoin="round"/>
<path d="M34.9526 9.43137C33.3249 9.92344 32.0592 11.2111 31.7787 12.8891C31.4983 14.5669 32.2765 16.1963 33.6558 17.1909C35.2836 16.6989 36.5494 15.4111 36.8297 13.7332C37.1101 12.0553 36.3319 10.4259 34.9526 9.43137Z" stroke="white" stroke-width="2.22656" stroke-miterlimit="22.926" stroke-linecap="round" stroke-linejoin="round"/>
<path d="M35.8219 18.2423C34.1662 17.8545 32.4261 18.3369 31.3443 19.6498C30.2625 20.9626 30.1218 22.7629 30.819 24.3138C32.4746 24.7015 34.2148 24.2192 35.2965 22.9063C36.3784 21.5934 36.5191 19.7932 35.8219 18.2423Z" stroke="white" stroke-width="2.22656" stroke-miterlimit="22.926" stroke-linecap="round" stroke-linejoin="round"/>
<path d="M34.3211 26.8118C33.2826 25.4652 31.629 24.7398 29.961 25.0742C28.293 25.4085 27.0466 26.7151 26.6073 28.3578C27.6459 29.7044 29.2994 30.4297 30.9674 30.0953C32.6354 29.7611 33.8817 28.4544 34.3211 26.8118Z" stroke="white" stroke-width="2.22656" stroke-miterlimit="22.926" stroke-linecap="round" stroke-linejoin="round"/>
<path d="M11.7076 28.7594C13.9546 30.0612 16.5091 30.7378 19.1058 30.7189C21.7026 30.7 24.247 29.9863 26.4748 28.6519" stroke="white" stroke-width="2.22656" stroke-miterlimit="22.926" stroke-linecap="round" stroke-linejoin="round"/>
<path d="M14.5468 35.3838L18.8515 31.1533" stroke="white" stroke-width="2.22656" stroke-miterlimit="22.926" stroke-linecap="round" stroke-linejoin="round"/>
<path d="M23.4531 35.3838L19.1484 31.1533" stroke="white" stroke-width="2.22656" stroke-miterlimit="22.926" stroke-linecap="round" stroke-linejoin="round"/>
</svg>
